<svg data-name="Layer 2" xmlns="http://www.w3.org/2000/svg" viewBox="0 0 66 66"><path d="M11.13 0C4.79 0 0 2.26 0 5.27a3 3 0 00.09.66.9.9 0 00-.09.4v12.52C0 22 4.79 24.4 11.13 24.4s11.14-2.4 11.14-5.55V6.33a1.06 1.06 0 00-.09-.4 3 3 0 00.09-.66C22.27 2.26 17.48 0 11.13 0zm9.14 18.85c0 1.68-3.91 3.55-9.14 3.55S2 20.53 2 18.85v-2c2 1.34 5.26 2.19 9.13 2.19s7.16-.85 9.14-2.19zm0-5.05c0 1.33-3.56 3.27-9.14 3.27S2 15.13 2 13.8v-1.18C4 14 7.26 14.8 11.13 14.8s7.16-.85 9.14-2.18zm0-4.27c0 1.34-3.56 3.27-9.14 3.27S2 10.87 2 9.53V8.35c2 1.34 5.26 2.18 9.13 2.18s7.16-.84 9.14-2.18zm-9.14-1C5.56 8.53 2 6.6 2 5.27S5.56 2 11.13 2s9.14 1.93 9.14 3.27-3.56 3.26-9.14 3.26zm22.4 33.07c-6.34 0-11.13 2.26-11.13 5.27a3 3 0 00.09.66.9.9 0 00-.09.4v12.52c0 3.16 4.79 5.55 11.13 5.55s11.14-2.39 11.14-5.55V47.93a1.06 1.06 0 00-.09-.4 3 3 0 00.09-.66c0-3.01-4.79-5.27-11.14-5.27zm9.14 18.85c0 1.67-3.91 3.55-9.14 3.55s-9.13-1.88-9.13-3.55v-.9c2 1.34 5.26 2.18 9.13 2.18s7.16-.84 9.14-2.18zm0-4c0 1.33-3.56 3.26-9.14 3.26s-9.13-1.91-9.13-3.24v-1.19c2 1.34 5.26 2.19 9.13 2.19s7.16-.85 9.14-2.19zm0-4.27c0 1.33-3.56 3.27-9.14 3.27s-9.13-1.92-9.13-3.25V50c2 1.34 5.26 2.18 9.13 2.18s7.16-.84 9.14-2.18zm-9.14-2.07c-5.57 0-9.13-1.93-9.13-3.26s3.6-3.25 9.13-3.25 9.14 1.93 9.14 3.27-3.56 3.26-9.14 3.26zM66 5.27C66 2.26 61.21 0 54.87 0S43.73 2.26 43.73 5.27a3 3 0 00.09.66 1.06 1.06 0 00-.09.4v12.52c0 3.16 4.79 5.55 11.14 5.55S66 22 66 18.85V6.33a.9.9 0 00-.09-.4 3 3 0 00.09-.66zm-2 13.58c0 1.68-3.91 3.55-9.13 3.55s-9.14-1.87-9.14-3.55v-2c2 1.34 5.26 2.19 9.14 2.19S62 18.22 64 16.88zm0-5.05c0 1.33-3.56 3.27-9.13 3.27s-9.14-1.94-9.14-3.27v-1.18c2 1.33 5.26 2.18 9.14 2.18S62 14 64 12.62zm0-4.27c0 1.34-3.56 3.27-9.13 3.27s-9.14-1.93-9.14-3.27V8.35c2 1.34 5.26 2.18 9.14 2.18S62 9.69 64 8.35zm-9.13-1c-5.58 0-9.14-1.93-9.14-3.26S49.29 2 54.87 2 64 3.93 64 5.27s-3.56 3.26-9.13 3.26zM10.24 29.09a1 1 0 00-1.41 0 1 1 0 000 1.42L17.36 39a1 1 0 00.71.29 1 1 0 00.7-.29 1 1 0 000-1.41zm43.39 0l-8.54 8.54a1 1 0 000 1.41 1 1 0 001.42 0L55 30.51a1 1 0 000-1.42 1 1 0 00-1.37 0z" fill="#fcd692"/></svg>