<svg width="374" height="280" xmlns="http://www.w3.org/2000/svg"><g fill="none"><g opacity=".4" fill="#FFF"><path d="M341.837 64.626l-32.11-18.567 32.109-18.564.284.164 31.826 18.402-32.109 18.565zm-29.836-18.567l29.836 17.251 29.836-17.25-29.837-17.25-29.835 17.25z"/><path d="M279.891 64.625L247.782 46.06l32.11-18.565L312 46.059l-32.11 18.566zM250.056 46.06l29.835 17.25 29.837-17.25-29.837-17.25-29.835 17.25z"/><path d="M310.865 82.532l-.284-.164-31.826-18.4L310.864 45.4l32.11 18.567-32.11 18.564zm-29.837-18.565l29.837 17.25 29.835-17.25-29.836-17.25-29.836 17.25z"/><path d="M341.838 100.44l-.284-.164-31.826-18.401 32.11-18.565.283.165 31.826 18.401-32.109 18.565zm-29.837-18.565l29.837 17.25 29.836-17.249-29.837-17.25-29.836 17.249zm-94.054-17.251l-.284-.165-31.826-18.4 32.109-18.565.284.164 31.826 18.401-32.109 18.565zM188.11 46.058l29.837 17.25 29.835-17.249-29.836-17.25-29.836 17.25z"/><path d="M248.92 82.532l-32.11-18.566L248.92 45.4l32.108 18.566-32.109 18.565zm-29.836-18.566l29.835 17.252 29.836-17.25-29.836-17.251-29.835 17.249z"/><path d="M279.893 100.44l-.284-.164-31.827-18.401 32.11-18.565.284.164L312 81.875l-32.108 18.566zm-29.837-18.565l29.837 17.251 29.835-17.251-29.837-17.25-29.835 17.25z"/><path d="M310.866 118.349l-.284-.165-31.826-18.4 32.109-18.566.284.165 31.826 18.4-32.11 18.566zm-29.837-18.566l29.837 17.25 29.836-17.25-29.837-17.25-29.836 17.25z"/><path d="M341.84 136.256l-.284-.164-31.826-18.4 32.108-18.566 32.11 18.566-32.109 18.564zm-29.838-18.565l29.837 17.25 29.836-17.25-29.837-17.25-29.836 17.25zM156.001 64.624l-.283-.165-31.827-18.4 32.11-18.566.283.164 31.826 18.401-32.109 18.566zm-29.837-18.566l29.837 17.25 29.836-17.25L156 28.808l-29.836 17.25z"/><path d="M186.975 82.532l-.284-.165-31.827-18.401 32.11-18.565.284.164 31.826 18.4-32.11 18.567zm-29.837-18.566l29.837 17.25 29.835-17.25-29.837-17.25-29.835 17.25z"/><path d="M217.948 100.44l-.284-.165-31.826-18.4 32.109-18.566 32.109 18.566-32.108 18.564zM188.11 81.873l29.837 17.25 29.834-17.249-29.835-17.251-29.836 17.25z"/><path d="M248.92 118.349l-32.109-18.567 32.108-18.564.284.165 31.826 18.4-32.108 18.566zm-29.836-18.567l29.837 17.251 29.835-17.25-29.837-17.25-29.835 17.25z"/><path d="M279.893 136.256l-.283-.164-31.826-18.4 32.109-18.566.283.164 31.826 18.401-32.109 18.565zm-29.836-18.565l29.836 17.25 29.837-17.25-29.837-17.25-29.836 17.25z"/><path d="M310.867 154.164l-.284-.164-31.826-18.401 32.109-18.566.283.165 31.827 18.401-32.109 18.565zM281.03 135.6l29.837 17.25 29.835-17.25-29.836-17.25-29.836 17.25z"/><path d="M341.84 172.073l-.283-.165-31.827-18.401 32.11-18.565.283.164 31.826 18.4-32.109 18.567zm-29.837-18.566l29.837 17.25 29.836-17.25-29.837-17.25-29.836 17.25zM94.055 64.623l-.283-.165-31.826-18.4 32.108-18.565.284.164 31.826 18.401-32.109 18.565zM64.22 46.057l29.836 17.25 29.836-17.249-29.837-17.25-29.835 17.25z"/><path d="M125.03 82.532L92.92 63.965l32.108-18.564.284.164 31.826 18.4-32.109 18.567zM95.191 63.965l29.837 17.251 29.835-17.25-29.836-17.25-29.836 17.25z"/><path d="M156.003 100.44l-.285-.165-31.826-18.4 32.11-18.566.283.165 31.826 18.4-32.108 18.565zm-29.837-18.566l29.837 17.25 29.835-17.25L156 64.624l-29.835 17.25z"/><path d="M186.975 118.347l-.283-.164-31.826-18.4 32.109-18.567.283.165 31.826 18.401-32.109 18.565zM157.14 99.782l29.836 17.25 29.836-17.25-29.836-17.25-29.836 17.25z"/><path d="M217.948 136.256l-32.109-18.566 32.109-18.565 32.109 18.566-32.11 18.565zm-29.836-18.566l29.836 17.25 29.836-17.249-29.836-17.252-29.836 17.251z"/><path d="M248.921 154.164l-.283-.165-31.827-18.401 32.11-18.565.283.165L281.03 135.6l-32.109 18.565zm-29.837-18.566l29.837 17.25 29.836-17.249-29.836-17.25-29.837 17.249z"/><path d="M279.894 172.073l-32.11-18.567 32.11-18.564.283.164 31.826 18.4-32.109 18.567zm-29.836-18.567l29.836 17.252 29.836-17.251-29.837-17.25-29.835 17.25z"/><path d="M310.868 189.98l-.283-.165-31.827-18.4 32.11-18.565.283.164 31.826 18.401-32.11 18.565zm-29.837-18.565l29.837 17.25 29.835-17.25-29.836-17.25-29.836 17.25z"/><path d="M341.842 207.888l-.285-.164-31.826-18.4 32.11-18.566.283.164 31.826 18.401-32.108 18.565zm-29.837-18.565l29.837 17.25 29.835-17.25-29.837-17.25-29.835 17.25zM32.11 64.623l-.284-.165L0 46.058l32.11-18.566.283.165 31.826 18.4L32.11 64.623zM2.273 46.057l29.837 17.25 29.836-17.25-29.837-17.25-29.836 17.25z"/><path d="M63.083 82.53l-.283-.164-31.827-18.4L63.083 45.4l.283.164 31.826 18.401L63.083 82.53zM33.246 63.965l29.837 17.25 29.836-17.25-29.837-17.25-29.836 17.25z"/><path d="M94.057 100.438l-.284-.164-31.826-18.4 32.108-18.567 32.11 18.567-32.108 18.564zM64.22 81.873l29.837 17.25 29.835-17.249-29.837-17.251-29.835 17.25z"/><path d="M125.03 118.347L92.92 99.781l32.109-18.565.283.165 31.827 18.401-32.11 18.565zM95.193 99.781l29.837 17.252 29.836-17.25-29.837-17.251L95.193 99.78z"/><path d="M156.003 136.256l-.283-.165-31.827-18.401 32.11-18.565.283.164 31.827 18.401-32.11 18.566zm-29.836-18.566l29.836 17.25 29.836-17.25-29.836-17.25-29.836 17.25z"/><path d="M186.975 154.164l-32.109-18.566 32.11-18.565 32.108 18.565-32.109 18.566zm-29.835-18.566l29.835 17.25 29.836-17.25-29.836-17.25-29.835 17.25z"/><path d="M217.95 172.071l-.285-.165-31.826-18.4 32.109-18.566.283.165 31.827 18.401-32.109 18.565zm-29.838-18.565l29.837 17.25 29.836-17.25-29.837-17.25-29.836 17.25z"/><path d="M248.922 189.98l-.283-.165-31.827-18.401 32.11-18.566 32.11 18.567-32.11 18.564zm-29.837-18.566l29.837 17.25 29.836-17.249-29.837-17.251-29.836 17.25z"/><path d="M279.896 207.888l-32.11-18.566 32.108-18.564.284.164 31.827 18.401-32.11 18.565zm-29.837-18.566l29.837 17.252 29.835-17.25-29.837-17.251-29.835 17.249z"/><path d="M310.869 225.796l-.284-.164-31.826-18.401 32.109-18.566.283.165 31.827 18.4-32.11 18.566zm-29.836-18.565l29.836 17.25 29.836-17.25-29.837-17.25-29.835 17.25z"/><path d="M341.842 243.704l-.283-.165-31.827-18.4 32.109-18.565.284.164 31.826 18.4-32.109 18.566zm-29.837-18.565l29.837 17.25 29.836-17.25-29.837-17.25-29.836 17.25zM32.111 100.438l-.284-.164-31.826-18.4 32.11-18.567.283.165L64.22 81.873l-32.109 18.565zM2.274 81.873l29.837 17.25 29.836-17.25-29.837-17.25-29.836 17.25z"/><path d="M63.084 118.347l-.284-.165L30.974 99.78l32.11-18.565.283.164 31.826 18.4-32.109 18.567zM33.248 99.78l29.836 17.251 29.836-17.25L63.083 82.53 33.248 99.78z"/><path d="M94.057 136.254l-.283-.164-31.826-18.4 32.109-18.566 32.11 18.566-32.11 18.564zM64.221 117.69l29.836 17.25 29.836-17.249-29.836-17.252L64.22 117.69z"/><path d="M125.031 154.163l-.284-.165-31.826-18.4 32.109-18.565.284.164 31.826 18.4-32.109 18.566zm-29.837-18.566l29.837 17.25 29.836-17.25-29.837-17.25-29.836 17.25z"/><path d="M156.004 172.071l-32.11-18.566 32.11-18.565 32.108 18.566-32.108 18.565zm-29.837-18.566l29.837 17.252 29.835-17.25-29.836-17.251-29.836 17.249z"/><path d="M186.976 189.98l-32.108-18.566 32.107-18.566.284.165 31.826 18.401-32.109 18.565zm-29.835-18.566l29.835 17.25 29.836-17.25-29.837-17.25-29.834 17.25z"/><path d="M217.95 207.888l-.284-.165-31.826-18.401 32.11-18.565.283.164 31.826 18.4-32.11 18.567zm-29.837-18.566l29.837 17.25 29.836-17.25-29.837-17.25-29.836 17.25z"/><path d="M248.923 225.795l-.284-.164-31.826-18.401 32.11-18.565 32.11 18.566-32.11 18.564zm-29.836-18.565l29.836 17.25 29.836-17.25-29.837-17.25-29.835 17.25z"/><path d="M279.896 243.703l-.283-.165-31.826-18.4 32.109-18.564.283.164 31.826 18.4-32.109 18.565zm-29.836-18.565l29.836 17.25 29.836-17.25-29.836-17.25-29.836 17.25z"/><path d="M310.87 261.612l-32.11-18.566 32.109-18.565.284.165 31.826 18.401-32.109 18.565zm-29.837-18.566l29.837 17.251 29.835-17.25-29.836-17.251-29.836 17.25z"/><path d="M341.843 279.52l-.283-.164-31.827-18.401 32.11-18.566.283.165 31.826 18.4-32.109 18.566zm-29.837-18.565l29.837 17.25 29.836-17.25-29.837-17.25-29.836 17.25zM32.112 136.254L.002 117.688 32.11 99.124l.284.165 31.826 18.4-32.11 18.565zM2.275 117.688l29.837 17.251 29.836-17.25-29.837-17.25-29.836 17.25z"/><path d="M63.085 154.163l-.283-.165-31.827-18.4 32.109-18.566.284.164 31.826 18.401-32.109 18.566zM33.25 135.597l29.836 17.25 29.836-17.25-29.837-17.25-29.835 17.25z"/><path d="M94.059 172.07l-.284-.164-31.826-18.401 32.109-18.566.283.165 31.826 18.401L94.06 172.07zm-29.837-18.565l29.837 17.25 29.835-17.25-29.836-17.25-29.836 17.25z"/><path d="M125.032 189.979l-.284-.165-31.826-18.401 32.11-18.565 32.109 18.566-32.11 18.565zm-29.837-18.566l29.837 17.25 29.836-17.249-29.837-17.251-29.836 17.25z"/><path d="M156.004 207.886l-32.108-18.565 32.108-18.564 32.11 18.565-32.11 18.564zm-29.835-18.565l29.835 17.25 29.836-17.25-29.836-17.25-29.835 17.25z"/><path d="M186.978 225.795l-32.11-18.566 32.108-18.564.284.164 31.827 18.4-32.11 18.566zM157.14 207.23l29.837 17.251 29.835-17.25-29.837-17.25-29.835 17.249z"/><path d="M217.951 243.703l-.284-.165-31.826-18.4 32.109-18.566.283.165 31.827 18.401-32.109 18.565zm-29.836-18.565l29.836 17.25 29.836-17.25-29.837-17.25-29.835 17.25z"/><path d="M248.924 261.611l-.283-.164-31.827-18.401 32.109-18.566.284.165 31.826 18.4-32.109 18.566zm-29.837-18.565l29.837 17.25 29.836-17.25-29.837-17.25-29.836 17.25z"/><path d="M279.898 279.52l-.284-.166-31.826-18.4 32.109-18.565 32.11 18.566-32.11 18.564zm-29.837-18.566l29.837 17.25 29.835-17.25-29.836-17.25-29.836 17.25zM32.113 172.07L.003 153.504l32.109-18.565.284.165 31.826 18.401-32.11 18.565zM2.276 153.504l29.837 17.251 29.836-17.25-29.837-17.25-29.836 17.249z"/><path d="M63.086 189.979l-.283-.165-31.827-18.401 32.11-18.565.283.164 31.826 18.4-32.11 18.567zM33.25 171.413l29.836 17.25 29.836-17.25-29.837-17.25-29.835 17.25z"/><path d="M94.06 207.886l-.284-.164-31.826-18.4 32.109-18.567.283.165 31.827 18.401-32.11 18.565zm-29.837-18.565l29.837 17.25 29.836-17.25-29.837-17.25-29.836 17.25z"/><path d="M125.032 225.795l-32.11-18.566 32.11-18.565 32.109 18.565-32.11 18.566zm-29.836-18.566l29.836 17.25 29.836-17.25-29.836-17.25-29.836 17.25z"/><path d="M156.005 243.702l-.284-.164-31.825-18.401 32.108-18.566 32.11 18.567-32.109 18.564zm-29.836-18.565l29.836 17.25 29.836-17.249-29.837-17.252-29.835 17.25z"/><path d="M186.978 261.611l-32.11-18.566 32.11-18.565.283.165 31.826 18.4-32.109 18.566zm-29.836-18.566l29.836 17.251 29.836-17.25-29.836-17.25-29.836 17.249z"/><path d="M217.952 279.52l-.284-.166-31.827-18.4 32.11-18.565.284.164 31.825 18.4-32.108 18.566zm-29.837-18.566l29.837 17.25 29.835-17.25-29.836-17.25-29.836 17.25zM32.114 207.886l-.284-.165L.004 189.32l32.109-18.565.284.165 31.826 18.401-32.11 18.565zM2.277 189.32l29.837 17.25 29.835-17.249-29.836-17.25L2.277 189.32z"/><path d="M63.087 225.795l-32.11-18.567 32.11-18.564.282.164 31.827 18.401-32.109 18.566zm-29.836-18.567l29.836 17.252 29.836-17.251-29.837-17.25-29.835 17.249z"/><path d="M94.06 243.702l-.283-.164-31.827-18.401 32.11-18.566 32.109 18.566-32.109 18.565zm-29.836-18.565l29.836 17.25 29.836-17.25-29.836-17.25-29.836 17.25z"/><path d="M125.033 261.61l-32.109-18.565 32.108-18.565.284.164 31.826 18.4-32.109 18.566zm-29.836-18.565l29.836 17.25 29.836-17.25-29.837-17.25-29.835 17.25z"/><path d="M156.006 279.518l-.283-.164-31.827-18.4 32.11-18.567 32.11 18.567-32.11 18.564zm-29.837-18.565l29.837 17.25 29.835-17.25-29.836-17.251-29.836 17.251zm-94.054-17.252l-.284-.164L.005 225.136l32.109-18.566 32.11 18.567-32.11 18.564zM2.278 225.136l29.837 17.25 29.835-17.25-29.836-17.25-29.836 17.25z"/><path d="M63.088 261.61l-.284-.165-31.826-18.401 32.11-18.564.283.164 31.826 18.4-32.109 18.565zm-29.836-18.566l29.836 17.25 29.836-17.25-29.837-17.25-29.835 17.25z"/><path d="M94.061 279.518l-32.11-18.566 32.11-18.565 32.108 18.566-32.108 18.565zm-29.836-18.566l29.836 17.251 29.835-17.25-29.835-17.251-29.836 17.25z"/><path d="M32.116 279.517l-.284-.164L.006 260.952l32.109-18.565.284.164 31.826 18.4-32.11 18.566zM2.279 260.952l29.837 17.25 29.835-17.25-29.836-17.25-29.836 17.25z"/></g><path d="M241.94 203.122l-60.812-34.996a2.239 2.239 0 01-1.128-1.993 2.24 2.24 0 011.216-1.94l7.65-3.946a2.265 2.265 0 012.151.05l62.856 36.175a2.245 2.245 0 011.127 1.996 2.245 2.245 0 01-1.215 1.943l-5.55 2.856a6.563 6.563 0 01-6.295-.145z" fill="#CFBAFF"/><path d="M245.133 196.047l-51.266-29.829c-4.367-2.515-7.867-9.306-7.867-15.14V6.942c0-5.835 3.525-8.52 7.867-5.992l51.266 29.886C249.5 33.352 253 40.143 253 45.977v144.116c0 5.804-3.525 8.482-7.867 5.954z" fill="#F1DBB5"/><path d="M241.137 198.048l-51.274-29.833c-4.369-2.516-7.863-9.307-7.863-15.143V8.944c0-5.836 3.52-8.52 7.863-5.993l51.274 29.833C245.506 35.3 249 42.091 249 47.927v144.134c-.031 5.836-3.55 8.515-7.863 5.987z" fill="#616E84"/><path d="M249 47.928v144.124c0 5.842-3.52 8.521-7.863 6l-20.105-11.704-6.24-3.635-24.93-14.495c-4.368-2.515-7.862-9.307-7.862-15.15V8.945c0-5.817 3.52-8.521 7.863-6l51.274 29.834c4.325 2.528 7.863 9.339 7.863 15.15z" fill="#FFE9C2"/><path d="M245 46.65v140.39c0 3.534-2.48 4.974-5.538 3.2l-16.13-9.327-1.407-.823-.477-.277-3.484-2.019-10.09-5.824-4.188-2.421-1.683-.975-11.471-6.61c-3.058-1.767-5.532-6.076-5.532-9.61V11.964c0-3.54 2.474-4.975 5.532-3.207l20.142 11.654v.056a9.569 9.569 0 004.345 7.478c2.386 1.365 4.32.258 4.32-2.516v-.062L239.48 37.02c3.04 1.787 5.52 6.089 5.52 9.63z" fill="#FFF"/><ellipse fill="#F1DBB5" transform="rotate(-29.887 216.188 24.994)" cx="216.188" cy="24.994" rx="1.342" ry="2.318"/><path d="M215.505 25.896c-.302-.299-.49-.8-.505-1.346 0-.488.225-.697.5-.439.296.292.482.782.5 1.318 0 .515-.225.71-.495.467z" fill="#FFF" opacity=".1"/><path d="M251.004 66.91c-.551.234-1.004 0-1.004-.554v-5.873c.015-.555.387-1.072 1.004-1.395.552-.229.996 0 .996.553v5.874c-.01.554-.38 1.072-.996 1.395zm0 10c-.551.234-1.004 0-1.004-.548v-5.88c.015-.554.387-1.07 1.004-1.394.552-.229.996 0 .996.553v5.874c-.008.554-.378 1.072-.996 1.394z" fill="#FFE9C2"/><path d="M75.176 188.591l-51.214-29.64a4 4 0 01-.01-6.919l53.84-31.363a4 4 0 014.017-.006l54.229 31.386a4 4 0 01.01 6.919l-50.83 29.61a10 10 0 01-10.042.013z" fill="#CFBAFF"/><path fill="#FFF" d="M126 74l-.234 80.69L80 181l.234-80.69z"/><path fill="#C9F1E8" d="M81 100.31L80.767 181 35 154.69 35.226 74z"/><path fill="#FFF" d="M126 74.5L80.65 101 35 74.5 80.35 48z"/><path fill="#F0FFFC" d="M47 109.344L46.976 118 40 113.656l.018-8.656zm0-11.998L46.982 106 40 101.654 40.024 93zm0-11.002L46.976 95 40 90.656 40.024 82zm29 52.09L75.981 147 50 131.566l.019-8.566zm0-12L75.975 135 50 119.566l.025-8.566zm0-11.996L75.975 123 50 107.562 50.025 99zm0-11.004L75.975 112 50 96.566 50.019 88zm-30 28.91L45.976 141 39 136.656l.024-8.656zm0-11L45.976 130 39 125.656l.024-8.656zm30 28.09L75.975 158 50 142.566l.025-8.566z"/><path fill-opacity=".07" fill="#6507FA" d="M91.976 110l.024 8.656L85.024 123 85 114.344zm0-11l.024 8.656L85.018 112 85 103.35zm29.999 29l.025 8.562L96.025 152 96 143.438zm.006-11l.019 8.562L96.025 141 96 132.432zm-.006-12l.025 8.562L96.025 129 96 120.438zm0-12l.025 8.562L96.025 117 96 108.432zm0-11l.025 8.562L96.025 106 96 97.432zm-29.999 63l.024 8.654L85.018 158 85 149.346zm0-11l.024 8.656L85.024 147 85 138.344zm0-12l.024 8.654L85.024 135 85 126.346z"/><g fill="#2A313F"><path d="M68.98 65.81c6.675-3.15 16.45-3.15 23.162 0l-2.36 1.34c-5.39-2.427-13.07-2.427-18.423 0l-2.378-1.34z"/><path d="M73.061 68.09a20.494 20.494 0 0115.095 0l-2.378 1.346a15.206 15.206 0 00-10.325 0l-2.392-1.347zm4.657 2.643a10.105 10.105 0 015.744 0l-2.6 1.476a3.817 3.817 0 00-.532 0l-2.612-1.476zm5.504 3.107a.935.935 0 000-.297l2.6-1.476a2.17 2.17 0 01.734 1.621 2.17 2.17 0 01-.734 1.622l-2.6-1.47zm4.922 2.748c2.12-1.748 2.106-4.082 0-5.837l2.378-1.346c3.41 2.508 3.43 6.028.045 8.536l-2.423-1.353zM73.061 70.77c-2.12 1.754-2.1 4.089.038 5.837l-2.379 1.352c-3.41-2.507-3.429-6.028-.05-8.535l2.391 1.346z"/><path d="M92.205 78.898c4.27-3.032 4.24-7.38-.057-10.413l2.36-1.34c5.586 3.78 5.624 9.314.076 13.094l-2.379-1.34zm-20.77 1.334c5.384 2.422 13.065 2.422 18.423 0l2.373 1.34c-6.669 3.15-16.45 3.15-23.155 0l2.36-1.34zM79.719 75h.542L83 76.56a10.45 10.45 0 01-6 0L79.719 75zm-10.787-6.67c-4.556 3.012-4.529 7.322.068 10.34L66.506 80c-5.976-3.753-6.01-9.247-.088-13l2.514 1.33z"/><path d="M75.364 78a14.032 14.032 0 0010.253 0L88 79.453a18.952 18.952 0 01-15 0L75.364 78zM78 73.363a.886.886 0 000 .274L75.66 75a2.032 2.032 0 010-3L78 73.363z"/></g><path d="M231.502 128.784A5.423 5.423 0 01234 133.04v4.214c0 1.565-1.124 2.196-2.498 1.404l-34.004-19.44a5.423 5.423 0 01-2.498-4.256v-4.213c0-1.566 1.13-2.197 2.498-1.411l34.004 19.446z" fill="#FFE9C2"/><path d="M140.125 104.598c-.281 2.457-3.206 13.058-2.581 16.686.625 3.627 10.625 9.711 10.625 9.711l1.387-6.221-5.537-5.433 1.5-10.294-5.394-4.449z" fill="#FFCEA9"/><path d="M147.844 94.147a4.37 4.37 0 00-5.563 1.686c-1.469 2.443-2.994 10.814-3.125 12.243 0 0 2.063 2.857 5.156 2.38l3.532-16.309z" fill="#EDEDED"/><path d="M159.256 212.347a8.537 8.537 0 006.494-.783c1.563.05 10-3.578 11.162-.533 1.007 2.67-2.656 5.138-4.612 5.64-4.269 1.033-7.425 3.17-9.144 3.533-1.25.27-2.931.445-3.95-.557-1.25-1.235-1.143-5.708.05-7.3zm-13.712-6.171c2.17.6 4.49.32 6.456-.784 1.563.05 10-3.583 11.162-.532 1.007 2.669-2.65 5.138-4.606 5.639-4.275 1.034-7.431 3.17-9.15 3.534-1.25.27-2.931.445-3.95-.564-1.212-1.24-1.106-5.702.088-7.293z" fill="#3E52DC"/><path d="M145.375 183.15a51.665 51.665 0 011.95-9.286s-.581-8.007-.869-15.601c-.331-8.621-3.319-16.21-.962-23.082L172 141.095s-1.606 34.36-1.956 38.521a77.971 77.971 0 01-1.194 9.649c-1.213 6.666-3.175 22.556-3.175 22.556-2.806 1.629-6.488.727-6.488.727s.2-20.05.382-24.875c.219-5.864.4-5.42.4-5.42l-.875-14.617-.575-7.274s-.738 5.338-1.213 10.106c-.419 4.154-1.419 7.92-2.537 15.664-.969 6.717-2.544 20.2-2.544 20.2-2.806 1.636-6.612.282-6.612.282s-.994-17.644-.238-23.464z" fill="#FFE9C2"/><path d="M149.25 94.298c2.019.094 3.525.626 3.75 0 .22-1.044.374-2.101.463-3.164-.232-.59-.432-1.222-.432-1.222-2.537-1.56-3.337-4.31-3.675-7.519-.569-5.47 2.382-10.256 7.838-10.833 5.131-.532 8.906 3.083 9.912 8.045.544 2.45 1.625 7.08.163 11.109-.813 2.256-1.875 4.041-2.919 4.386a25.781 25.781 0 01-3.037-.27s-.275 1.517-.463 2.507c-.188.99-.112 1.49 1.825 2.688 1.938 1.196-2.931 3.652-6.106 3.414s-6.725-2.111-7.694-4.204c-1.106-2.293-1.012-5.006.375-4.937z" fill="#FFCEA9"/><path d="M152.175 94.592c-.563 1.404.862 3.133 4.656 4.311 3.794 1.178 4.132-.345 4.132-.345s5.562 2.507 7.375 3.81c2.28 1.598 3.287 6.215 3.593 14.01.356 9.022.388 22.405.088 24.717 0 0-4.257 4.248-9.7 3.804-5.444-.445-14.613-5.282-16.831-9.01.056-7.914.98-9.198-.294-13.785-2.925-10.432-4.469-14.705-3.044-21.635 1.169-5.714 2.813-6.422 5.063-6.372a46.91 46.91 0 014.962.495z" fill="#FFF"/><path d="M193.569 117.167c-4.494-1.046-10.338-1.566-12.331-2.92-4.826-3.277-8.794-6.578-11.72-8.27-3.45-1.999-4.824-1.573-6.687-.902-2.187.795-2.356 3.396 1.382 6.522 4.424 3.69 7.924 5.934 13.993 9.555 1.588.946 19.238 2.6 23.913 2.782 1.25.05 2.2.138 4.612.232 2.413.094 5.207-.376 6.982-1.329 1.775-.952 2.268-1.578 2.23-2.023-.043-.558-.556-.702-1.418-.357a12.22 12.22 0 01-4.219 1.177s1.925-.626 3.038-1.146a12.1 12.1 0 002.769-1.692c.8-.676.656-2.224-.22-1.88-.874.345-1.468.815-3.124 1.523-.88.377-1.8.649-2.744.808 1.09-.54 2.136-1.17 3.125-1.88a5.078 5.078 0 001.875-2.155c.206-.463-.156-1.328-1.188-.777-.93.49-1.874 1.504-3.812 2.168-1.394.476-2.444.627-2.331.345.112-.282.95-.495 1.837-1.422.888-.928 1.156-2.269.625-2.707-.531-.439-.444-.345-1.456.432-1.012.777-2.156 1.153-3.494 2.362a7.63 7.63 0 01-3.081 1.98c-1.537.527-4.287.564-8.556-.426z" fill="#FFCEA9"/><path d="M160.981 103.157c2.119-2.161 4.613-2.356 8.388.464 3.775 2.82 6.75 5.232 6.75 5.232a8.158 8.158 0 01-1.988 5.683c-2.331 2.844-4.375 2.255-4.375 2.255s-3.65-3.189-6.087-5.4c-2.438-2.212-5.306-5.57-2.688-8.234z" fill="#EDEDED"/><path d="M166.956 78.903s4.719-7.186-5.5-8.652c-7.368-1.053-12.106 3.69-12.65 8.847-.525 4.918 2.5 10.024 4.681 12.055 1.063.382 3.357.626 6.37-.771a37.11 37.11 0 00.137-4.029s-3.588-7.581 6.962-7.45z" fill="#3E52DC"/><path d="M325.017 225.631c7.381 4.319 13.645 3.87 6.807 8.973-17.557 13.096-25.999 10.997-33.38 6.678l-32.12-18.8c-7.388-4.32-2.97-13.912 4.367-18.218 7.338-4.306 14.819-1.752 22.206 2.573l32.12 18.794z" fill="#CFBAFF"/><path d="M335.994 178.272c0 .194-.032.395-.07.595a4.919 4.919 0 01-.118.482c-.05.188-.094.376-.163.563-.068.188-.125.307-.193.463-.07.157-.17.395-.275.589-.107.194-.17.282-.25.42a8.201 8.201 0 01-.444.656c-.163.213-.32.42-.5.626-.044.044-.082.094-.125.144-.244.27-.513.526-.794.783-.182.162-.382.319-.582.482-.2.162-.337.281-.525.413-.187.131-.45.307-.681.457-.231.15-.463.313-.719.457-.577.333-1.172.636-1.782.907l-.537.226c-.48.208-.973.396-1.482.563-.18.063-.362.131-.543.188-.32.1-.626.188-.976.281-.35.094-.487.138-.744.2-.256.063-.693.15-1.043.22-.238.05-.47.106-.713.144-.706.125-1.425.225-2.144.3l-.675.057c-.425.037-.85.068-1.25.087h-2.72c-.287 0-.625 0-.956-.05l-.875-.069-.938-.106-.844-.12-1.006-.174-.782-.157c-.394-.087-.781-.188-1.169-.288l-.625-.175a25.655 25.655 0 01-2.025-.689c-.325-.125-.625-.262-.95-.4-.163-.075-.332-.138-.488-.213-.475-.232-.944-.47-1.388-.726l-32.193-18.609c-3.72-2.153-5.576-4.976-5.57-7.799L266 209.444c0 2.823 1.875 5.633 5.57 7.792l32.137 18.622c.45.256.912.494 1.387.72.157.075.332.144.494.212.281.126.557.257.844.37l.1.037c.656.257 1.332.482 2.025.683l.163.056.488.119c.387.1.775.2 1.169.288.106 0 .206.056.312.075l.475.081c.331.063.663.125 1 .176l.4.068c.144 0 .294.032.444.05.313.044.625.076.944.107l.444.05h.425l.956.05h2.72c.431 0 .85-.05 1.25-.081l.519-.038h.156a30.628 30.628 0 002.15-.3h.1c.207-.038.4-.094.626-.132.35-.067.7-.142 1.05-.225l.737-.2c.325-.088.657-.176.976-.276l.206-.062c.119-.038.219-.088.337-.126a27.18 27.18 0 001.482-.563l.544-.232a18.972 18.972 0 001.781-.9l.225-.139c.175-.106.325-.219.488-.325.162-.107.469-.294.681-.45.213-.157.357-.282.525-.42.17-.138.4-.313.582-.482l.118-.094c.238-.225.463-.45.676-.682l.125-.15c.125-.144.256-.282.368-.426.113-.144.082-.132.132-.194.162-.22.306-.438.444-.664.056-.087.13-.181.18-.275a1.02 1.02 0 00.07-.144c.103-.19.194-.387.275-.588.05-.113.118-.226.162-.338.044-.113 0-.082 0-.12.069-.187.113-.381.163-.569a3.84 3.84 0 00.112-.382v-.1c0-.2.05-.394.063-.594.012-.2.043-.257.05-.389v-.169l.144-50.437c.008.18.008.359 0 .538z" fill="#FFF"/><path d="M330.428 170.083c7.394 4.326 7.438 11.344.081 15.67-7.356 4.326-19.323 4.332-26.723 0l-32.215-18.83c-7.394-4.326-7.437-11.344-.075-15.676 7.363-4.332 19.317-4.326 26.717 0l32.215 18.836z" fill="#FFF"/><path d="M282 209.647l4.317-12.088a10.943 10.943 0 01-2.115-6.018c0-2.481 1.344-3.817 3.207-3.493a4.496 4.496 0 011.659.636c2.676 1.597 4.847 5.452 4.835 8.633 0 1.979-.857 3.213-2.146 3.48l3.232 13.08L296 218l-14-8.353z" fill="#CFBAFF"/><path d="M290 134c-.29.183-.562.393-.816.625l-.133.125a4.584 4.584 0 00-.605.782l-.163.275-.036.068a.991.991 0 00-.085.157 4.452 4.452 0 00-.247.575v.037a6.258 6.258 0 00-.32 1.45v.057a5.982 5.982 0 00-.05.825l-.042 16.878v6.082a9.41 9.41 0 01-4.503 1.063V141.7c.003-.442.041-.883.115-1.319 0-.087.03-.181.054-.275a3.48 3.48 0 01.09-.362v-.057c.034-.11.072-.218.116-.325a.09.09 0 010-.056c.036-.087.066-.169.103-.25a.963.963 0 01.078-.206.472.472 0 00.055-.094c.075-.168.164-.329.266-.481h.03c.09-.139.186-.272.29-.4.109-.125.218-.25.332-.37a.416.416 0 01.133-.124c.123-.119.252-.23.387-.331.116-.098.241-.182.375-.25a1.05 1.05 0 01.12-.094L290 134z" fill="#C9F1E8"/><path d="M324 159.535v.576l-.044 16.71v6.146a10.033 10.033 0 01-4.579 1.032h-.056v-8.221l.031-12.954a17.72 17.72 0 00-.112-2.05c-.037-.332-.08-.676-.137-1.02v-.15c-.043-.262-.087-.538-.149-.8a.358.358 0 000-.113 27.837 27.837 0 00-.492-2.013c0-.094-.056-.175-.08-.262-.088-.3-.18-.588-.28-.882-.1-.294-.23-.688-.355-1.031-.125-.344-.243-.626-.367-.938-.156-.413-.342-.825-.523-1.25a.627.627 0 01-.056-.138s0-.031-.037-.056c-.33-.732-.69-1.476-1.089-2.207-.15-.3-.311-.588-.48-.882a31.41 31.41 0 00-.671-1.169c-.236-.388-.529-.813-.79-1.213a31.66 31.66 0 00-.386-.625l-.137-.206a.568.568 0 00-.08-.1 48.574 48.574 0 00-3.05-4.033c-.068-.087-.149-.169-.217-.25a26.205 26.205 0 00-1.55-1.738 2.215 2.215 0 00-.236-.25 55.639 55.639 0 00-.834-.863 38.84 38.84 0 00-1.001-.981c-.517-.482-1.027-.963-1.562-1.432a45.87 45.87 0 00-2.837-2.276l-.567-.412a38.319 38.319 0 00-3.247-2.107c-.38-.219-.74-.413-1.108-.625-.367-.213-.821-.425-1.244-.625-.28-.138-.567-.263-.84-.388l-.355-.163-.423-.168c-.76-.32-1.512-.626-2.252-.826a.545.545 0 00-.088-.012l-.273-.069c-.125-.05-.25-.069-.361-.106a5.17 5.17 0 00-.454-.125h-.038l-.305-.069a9.96 9.96 0 00-.79-.169c-.143-.037-.305-.056-.454-.081a.186.186 0 00-.08 0l-.555-.094h-.13a9.748 9.748 0 00-1.033-.094 5.914 5.914 0 00-.66-.037h-.33a8.849 8.849 0 00-1.007.05h-.318a2.477 2.477 0 00-.317.037 1.964 1.964 0 00-.286.044h-.031c-.081 0-.162.038-.243.044-.193.037-.386.069-.579.125a.297.297 0 00-.093 0 .353.353 0 00-.156.037c-.14.03-.277.072-.41.125a2.356 2.356 0 00-.318.088h-.05a5.82 5.82 0 00-.671.275l-.081.031a4.497 4.497 0 00-.423.22 1.602 1.602 0 00-.274.137l4.648-2.714a8.908 8.908 0 011.462-.675.093.093 0 01.056 0 9.298 9.298 0 011.244-.344l.137-.037h.156c.286-.056.585-.088.877-.125h.255c.349 0 .703-.044 1.077-.044h1.101c.15 0 .305.038.454.044l.585.062h.056c.193 0 .386.07.591.094.205.025.286.044.43.081h.05c.341.07.69.15 1.057.238.342.081.69.181 1.033.287a.1.1 0 01.056 0c.12.032.24.071.354.12.23.068.448.137.66.218a.478.478 0 01.124.044 3.3 3.3 0 01.436.162c.168.07.342.125.523.194.066.035.134.064.205.088l.466.206c.137.056.274.106.411.175.107.042.211.093.311.15.166.065.329.14.486.225.105.044.205.094.31.15.106.057.287.138.418.207.13.068.323.168.479.262.08.03.157.068.23.113l.89.494c.087.056.18.1.26.162.4.225.785.469 1.17.72.2.112.393.25.585.374.094.072.192.139.293.2l.299.2c.398.275.784.55 1.176.838l.36.288c.112.08.23.156.343.25.112.094.317.244.479.381.41.306.796.625 1.194.97l.125.112c.077.061.15.128.218.2.273.225.547.456.82.706.275.25.592.538.878.825.058.044.11.094.156.15.032.017.06.04.08.07.366.345.72.695 1.064 1.05l.542.575c.08.075.162.169.242.25.081.081.137.137.206.219.305.331.622.687.92 1.025.15.162.287.338.424.494l.205.25c.08.094.168.187.236.275.312.369.592.725.878 1.088.106.137.205.275.317.412.112.138.174.22.255.332l.33.437c.274.376.535.77.809 1.145l.305.443.08.12c.162.224.3.48.455.706.298.481.622.95.89 1.419l.105.175c.33.538.623 1.088.921 1.632 0 .05.044.093.069.137a1.9 1.9 0 01.087.175c.137.263.273.513.404.775a64 64 0 01.386.794c.068.144.124.294.193.432.023.044.041.09.056.137.037.07.068.15.106.22.112.25.211.493.317.743.106.25.193.482.292.72.05.124.094.255.137.38a.527.527 0 00.05.126c.025.076.054.151.087.225.08.256.174.493.255.737.081.244.156.488.224.732.037.112.069.225.106.344.037.118 0 .08.031.125.032.086.059.173.08.262.07.25.138.494.194.732.056.237.112.469.162.7 0 .1.043.219.068.319a.628.628 0 000 .106c0 .088.037.181.05.263.043.225.08.456.124.675.044.219.056.431.094.625.037.194 0 .263.03.4a.188.188 0 010 .081c.004.055.004.109 0 .163 0 .206.038.419.05.625.013.206.088.482.1.675z" fill="#C9F1E8"/><path d="M320 162.918l-.031 12.897V184c-2.793 0-5.18-.996-6.248-2.396v-3.405l.057-18.872c0-6.38-6.954-15.791-15.225-20.54-3.717-2.141-7.178-3.038-9.87-2.789a6.954 6.954 0 00-2.756.785 1.08 1.08 0 00-.125.093 2.15 2.15 0 00-.387.249 2.809 2.809 0 00-.4.33.424.424 0 00-.137.124 2.138 2.138 0 00-.344.368 2.223 2.223 0 00-.3.398h-.03a3.29 3.29 0 00-.276.48 1.299 1.299 0 00-.137.298.963.963 0 00-.106.249.087.087 0 000 .056c-.053.123-.095.25-.125.38-.039.118-.07.239-.094.36a2.37 2.37 0 00-.056.275 7.895 7.895 0 00-.119 1.313v21.206c-2.755 0-5.135-.946-6.247-2.315v-3.567L277 138.152c0-4.432 1.762-7.519 4.685-9.056a4.6 4.6 0 01.425-.218l.081-.031a5.96 5.96 0 01.675-.274 2.08 2.08 0 01.369-.112 2.6 2.6 0 01.412-.125.357.357 0 01.156-.037.301.301 0 01.094 0l.287-.062a2.47 2.47 0 01.294-.062c.081 0 .162-.032.244-.044h.03c.095-.022.192-.036.288-.044.106-.019.212-.031.319-.037.106-.01.212-.01.318 0a9.018 9.018 0 011.013-.05h.33c.222 0 .443.013.663.038.347.012.693.044 1.037.093.23.02.46.054.687.1a.188.188 0 01.081 0c.15 0 .313.043.456.08.263.044.519.1.794.169.275.068.525.124.8.205.112.037.237.056.362.106l.368.1c.744.23 1.5.503 2.262.82.268.1.518.219.78.33.263.113.563.25.844.387l.737.367c.157.087.331.168.488.249.368.205.73.398 1.112.622a38.513 38.513 0 013.26 2.098l.57.41a45.99 45.99 0 012.848 2.266c.537.467 1.05.946 1.568 1.426.344.317.675.622 1.006.977.331.355.562.573.837.859.085.077.165.16.237.249.538.554 1.05 1.139 1.556 1.73.069.081.15.162.219.25a48.399 48.399 0 013.06 4.014c.08.096.154.198.22.305.412.622.8 1.207 1.18 1.824.238.385.456.771.675 1.163.169.293.331.58.48.878.4.728.763 1.469 1.094 2.197.038.069.069.137.094.193.181.411.368.822.525 1.245.125.305.25.622.368.934.119.31.25.684.356 1.027.107.342.194.579.281.877 0 .087.057.168.082.262.193.672.368 1.344.493 2.004a.353.353 0 010 .112c.063.261.106.535.15.797v.15c.056.341.1.671.138 1.014.108.659.18 1.324.212 1.991z" fill="#AFDDD3"/><path d="M234.93 78.526a2.42 2.42 0 011.07 1.89l-.087 31.474c0 2.773-1.953 3.901-4.354 2.52L201.31 96.687a9.683 9.683 0 01-4.31-7.565l.087-31.473c0-.693.491-.977 1.082-.63l3.247 1.89v-5.042c0-9.72 6.842-13.653 15.184-8.768 8.34 4.885 15.114 16.76 15.083 26.474v5.043l3.247 1.91zm-9.734-5.673V67.81c0-5.56-3.85-12.342-8.615-15.128-4.765-2.786-8.665-.542-8.677 5.011v5.043l17.298 10.085m-5.48 23.134l-.666-7.564c1.114-.29 1.78-1.387 1.78-3.013a9.651 9.651 0 00-4.311-7.564c-2.382-1.393-4.354-.271-4.354 2.52a9.218 9.218 0 001.76 5.081l-.703 6.745c-.021.396.07.79.261 1.135.189.364.467.673.81.895l4.353 2.521a.744.744 0 00.809.05.883.883 0 00.273-.819" fill="#CFBAFF"/><path d="M232.39 146.824a3.454 3.454 0 011.61 2.71v4.352c0 .994-.717 1.398-1.584.901l-35.838-20.606a3.473 3.473 0 01-1.578-2.717v-4.35c0-1.002.717-1.4 1.584-.896l35.807 20.606z" fill="#FFE9C2"/></g></svg>