<svg width="376" height="229" xmlns="http://www.w3.org/2000/svg"><g fill="none" fill-rule="evenodd"><g opacity=".4" fill="#FFF" fill-rule="nonzero"><path d="M329.761 34.056l-29.19-16.805L329.76.448l.258.149 28.933 16.655-29.19 16.804zm-27.124-16.805l27.124 15.615 27.124-15.614L329.76 1.638l-27.123 15.613z"/><path d="M273.447 34.056l-29.19-16.805L273.447.447l29.19 16.804-29.19 16.805zM246.324 17.25l27.123 15.614 27.124-15.614-27.124-15.614-27.123 15.614z"/><path d="M301.604 50.264l-.258-.148-28.932-16.656 29.19-16.804 29.19 16.805-29.19 16.803zM274.48 33.46l27.124 15.614 27.124-15.613-27.124-15.615L274.48 33.46z"/><path d="M329.762 66.474l-.258-.15L300.57 49.67l29.19-16.803.258.15 28.933 16.655-29.19 16.803zm-27.124-16.805l27.124 15.615 27.123-15.613-27.124-15.615-27.123 15.613zm-85.504-15.614l-.259-.15-28.932-16.655L217.133.447l.258.149 28.933 16.655-29.19 16.804zM190.009 17.25l27.125 15.614 27.123-15.613-27.124-15.614-27.124 15.613z"/><path d="M245.29 50.264L216.1 33.46l29.19-16.803 29.19 16.804-29.19 16.804zM218.167 33.46l27.123 15.615 27.124-15.614-27.124-15.614-27.123 15.613z"/><path d="M273.448 66.474l-.258-.15-28.933-16.655 29.19-16.804.258.15 28.933 16.654-29.19 16.805zm-27.124-16.805l27.124 15.615L300.57 49.67l-27.124-15.614-27.123 15.614z"/><path d="M301.605 82.683l-.258-.149-28.933-16.655 29.19-16.805.259.15 28.932 16.655-29.19 16.804zm-27.124-16.804l27.124 15.614 27.124-15.614-27.125-15.615-27.123 15.615z"/><path d="M329.763 98.892l-.258-.149-28.933-16.655 29.19-16.804 29.19 16.805-29.19 16.803zm-27.125-16.804l27.125 15.614 27.123-15.613-27.124-15.615-27.124 15.614zM160.82 34.055l-.258-.15-28.934-16.655L160.818.446l.258.149L190.01 17.25l-29.19 16.805zM133.694 17.25l27.124 15.614 27.124-15.614-27.125-15.614-27.123 15.614z"/><path d="M188.977 50.264l-.258-.149-28.933-16.656 29.19-16.804.258.149 28.933 16.655-29.19 16.805zm-27.124-16.805l27.124 15.614L216.1 33.46l-27.124-15.614-27.123 15.614z"/><path d="M217.134 66.473l-.257-.15-28.933-16.654 29.19-16.805 29.19 16.805-29.19 16.804zM190.01 49.669l27.124 15.614 27.123-15.614-27.124-15.614-27.123 15.614z"/><path d="M245.291 82.683l-29.19-16.805 29.19-16.804.257.15 28.933 16.655-29.19 16.804zm-27.124-16.805l27.124 15.615 27.123-15.614-27.124-15.615-27.123 15.614z"/><path d="M273.448 98.892l-.257-.149-28.933-16.655 29.19-16.804.258.149 28.932 16.655-29.19 16.804zm-27.124-16.804l27.124 15.614 27.124-15.614-27.124-15.614-27.124 15.614z"/><path d="M301.606 115.101l-.258-.149-28.933-16.655 29.19-16.804.258.149 28.933 16.655-29.19 16.804zm-27.124-16.804l27.124 15.614 27.123-15.614-27.124-15.614-27.123 15.614z"/><path d="M329.764 131.31l-.258-.149-28.933-16.655 29.19-16.804.258.149 28.933 16.655-29.19 16.805zm-27.125-16.804l27.125 15.615 27.123-15.615-27.124-15.613-27.124 15.613zM104.505 34.054l-.258-.15L75.314 17.25 104.504.446l.258.149 28.933 16.655-29.19 16.804zM77.38 17.25l27.124 15.613 27.123-15.613-27.124-15.614L77.38 17.25z"/><path d="M132.663 50.264l-29.191-16.805 29.19-16.804.258.149 28.933 16.655-29.19 16.805zm-27.125-16.805l27.125 15.614 27.123-15.614-27.124-15.614-27.124 15.614z"/><path d="M160.82 66.473l-.258-.15L131.63 49.67l29.19-16.805.257.15L190.01 49.67l-29.19 16.804zm-27.124-16.804l27.125 15.614 27.122-15.614-27.124-15.614-27.123 15.614z"/><path d="M188.977 82.682l-.257-.149-28.933-16.655 29.19-16.805.258.15 28.932 16.655-29.19 16.804zm-27.124-16.804l27.124 15.614 27.124-15.614-27.124-15.614-27.124 15.614z"/><path d="M217.134 98.892l-29.19-16.805 29.19-16.804 29.19 16.805-29.19 16.804zm-27.123-16.805l27.123 15.614 27.124-15.613-27.124-15.615-27.123 15.614z"/><path d="M245.292 115.1l-.258-.148-28.933-16.656 29.19-16.803.258.149 28.933 16.655-29.19 16.804zm-27.125-16.804l27.125 15.614 27.123-15.613-27.124-15.614-27.124 15.613z"/><path d="M273.45 131.31l-29.191-16.804 29.19-16.804.258.149 28.932 16.655-29.19 16.805zm-27.125-16.804l27.124 15.615 27.124-15.615-27.125-15.613-27.123 15.613z"/><path d="M301.607 147.52l-.257-.15-28.933-16.654 29.19-16.805.257.15 28.933 16.655-29.19 16.804zm-27.124-16.804l27.124 15.613 27.123-15.613-27.124-15.615-27.123 15.615z"/><path d="M329.765 163.729l-.258-.149-28.933-16.655 29.19-16.804.258.149 28.933 16.655-29.19 16.804zm-27.125-16.804l27.125 15.614 27.123-15.614-27.124-15.614-27.124 15.614zM48.191 34.054l-.258-.15L19 17.25 48.19.445l.258.15L77.38 17.25 48.19 34.054zM21.067 17.25L48.19 32.863 75.314 17.25 48.19 1.635 21.067 17.25z"/><path d="M76.349 50.263l-.258-.149-28.933-16.655 29.19-16.805.257.15 28.933 16.655-29.19 16.804zM49.224 33.459L76.35 49.073l27.123-15.614-27.125-15.614-27.123 15.614z"/><path d="M104.506 66.472l-.258-.149-28.933-16.655 29.19-16.805 29.191 16.806-29.19 16.803zM77.381 49.668l27.125 15.614 27.124-15.613-27.125-15.615L77.38 49.668z"/><path d="M132.664 82.682l-29.191-16.805 29.19-16.804.257.15 28.933 16.655-29.19 16.804zm-27.125-16.805l27.125 15.615 27.123-15.614-27.125-15.614-27.123 15.613z"/><path d="M160.821 98.892l-.258-.15-28.933-16.655 29.19-16.804.258.149 28.934 16.655-29.19 16.805zm-27.124-16.805l27.124 15.614 27.124-15.614-27.124-15.614-27.124 15.614z"/><path d="M188.977 115.1l-29.19-16.804 29.19-16.804 29.19 16.804-29.19 16.805zm-27.122-16.804l27.122 15.614 27.124-15.614-27.124-15.614-27.122 15.614z"/><path d="M217.136 131.31l-.259-.15-28.932-16.654 29.19-16.805.257.15 28.933 16.655-29.19 16.804zm-27.125-16.804l27.125 15.614 27.123-15.614-27.125-15.614-27.123 15.614z"/><path d="M245.293 147.519l-.258-.15-28.933-16.654 29.19-16.805 29.191 16.806-29.19 16.803zm-27.124-16.804l27.124 15.614 27.124-15.613-27.125-15.615-27.123 15.614z"/><path d="M273.45 163.729l-29.19-16.805 29.19-16.803.257.149 28.933 16.655-29.19 16.804zm-27.124-16.805l27.125 15.615 27.122-15.614-27.124-15.614-27.123 15.613z"/><path d="M301.608 179.938l-.258-.149-28.933-16.655 29.19-16.805.258.15 28.933 16.655-29.19 16.804zm-27.124-16.804l27.124 15.614 27.124-15.614-27.125-15.614-27.123 15.614z"/><path d="M329.766 196.147l-.258-.149-28.933-16.655 29.19-16.804.257.149 28.934 16.655-29.19 16.804zm-27.125-16.804l27.125 15.615 27.123-15.615-27.124-15.614-27.124 15.614zM48.192 66.472l-.258-.149L19 49.668l29.19-16.805.258.15 28.933 16.655-29.19 16.804zM21.067 49.668l27.125 15.614 27.123-15.614-27.124-15.614-27.124 15.614z"/><path d="M76.35 82.681l-.259-.149-28.933-16.655 29.19-16.804.258.149 28.933 16.655-29.19 16.804zM49.224 65.877L76.349 81.49l27.124-15.614-27.124-15.614-27.124 15.614z"/><path d="M104.507 98.89l-.258-.148-28.933-16.656 29.19-16.804 29.19 16.805-29.19 16.803zM77.383 82.086L104.507 97.7l27.123-15.613-27.124-15.615-27.123 15.614z"/><path d="M132.665 115.1l-.259-.15-28.932-16.655 29.19-16.803.257.149 28.934 16.655-29.19 16.804zM105.54 98.295l27.125 15.615 27.123-15.614-27.124-15.614-27.124 15.613z"/><path d="M160.822 131.31l-29.19-16.806 29.19-16.803 29.189 16.805-29.189 16.804zm-27.124-16.806l27.124 15.616 27.123-15.614-27.124-15.614-27.123 15.612z"/><path d="M188.979 147.519l-29.19-16.804 29.188-16.805.259.15 28.933 16.655-29.19 16.804zm-27.124-16.804l27.124 15.614 27.123-15.614-27.125-15.614-27.122 15.614z"/><path d="M217.136 163.728l-.258-.149-28.933-16.655 29.19-16.804.258.148 28.933 16.656-29.19 16.804zm-27.124-16.804l27.124 15.614 27.124-15.614-27.124-15.614-27.124 15.614z"/><path d="M245.294 179.937l-.258-.148-28.933-16.656 29.19-16.804 29.191 16.805-29.19 16.803zm-27.124-16.804l27.124 15.614 27.124-15.613-27.125-15.615-27.123 15.614z"/><path d="M273.451 196.146l-.258-.149-28.932-16.655 29.19-16.803.257.149 28.933 16.655-29.19 16.803zm-27.124-16.804l27.124 15.614 27.124-15.613-27.124-15.614-27.124 15.613z"/><path d="M301.61 212.357l-29.192-16.806 29.19-16.803.258.15 28.933 16.655-29.19 16.804zm-27.125-16.806l27.124 15.615 27.123-15.613-27.124-15.615-27.123 15.613z"/><path d="M329.767 228.566l-.258-.15-28.933-16.654 29.19-16.805.257.149 28.934 16.656-29.19 16.804zm-27.125-16.804l27.125 15.614 27.123-15.614-27.124-15.615-27.124 15.615zM48.192 98.89l-29.19-16.805 29.19-16.803.258.15 28.933 16.654-29.19 16.804zM21.068 82.085L48.192 97.7l27.124-15.614-27.124-15.614-27.124 15.613z"/><path d="M76.35 115.1l-.258-.15L47.16 98.296l29.19-16.804.258.15 28.933 16.654L76.35 115.1zM49.226 98.295L76.35 113.91l27.124-15.615-27.125-15.614-27.123 15.614z"/><path d="M104.508 131.308l-.258-.148-28.933-16.656 29.19-16.804.257.15 28.934 16.654-29.19 16.804zm-27.124-16.804l27.124 15.615 27.123-15.615-27.124-15.614-27.123 15.614z"/><path d="M132.665 147.518l-.258-.15-28.933-16.654 29.19-16.804 29.191 16.805-29.19 16.803zm-27.124-16.804l27.124 15.614 27.124-15.613-27.124-15.615-27.124 15.614z"/><path d="M160.822 163.727l-29.19-16.804 29.19-16.803 29.19 16.804-29.19 16.803zM133.7 146.923l27.123 15.614 27.123-15.613-27.123-15.614-27.123 15.613z"/><path d="M188.98 179.937l-29.191-16.805 29.19-16.803.257.148 28.934 16.656-29.19 16.804zm-27.125-16.805l27.125 15.615 27.123-15.614-27.124-15.614-27.124 15.613z"/><path d="M217.137 196.146l-.258-.149-28.933-16.655 29.19-16.804.258.15 28.933 16.654-29.19 16.804zm-27.124-16.804l27.124 15.614 27.124-15.614-27.125-15.614-27.123 15.614z"/><path d="M245.295 212.355l-.258-.148-28.933-16.656 29.19-16.804.258.15 28.933 16.654-29.19 16.804zm-27.125-16.804l27.125 15.615 27.123-15.615-27.124-15.614-27.124 15.614z"/><path d="M273.452 228.565l-.258-.15-28.932-16.655 29.19-16.804 29.19 16.806-29.19 16.803zm-27.124-16.805l27.124 15.615 27.124-15.613-27.124-15.616-27.124 15.614zM48.193 131.308l-29.19-16.805L48.193 97.7l.258.15 28.933 16.654-29.19 16.804zM21.07 114.503l27.124 15.616 27.124-15.615L48.192 98.89 21.07 114.503z"/><path d="M76.35 147.518l-.256-.15-28.934-16.654 29.19-16.804.258.148 28.933 16.656-29.19 16.804zm-27.123-16.804l27.124 15.614 27.123-15.614L76.35 115.1l-27.123 15.614z"/><path d="M104.509 163.727l-.258-.149-28.933-16.655 29.19-16.804.258.149 28.933 16.655-29.19 16.804zm-27.124-16.804l27.124 15.614 27.123-15.614-27.124-15.615-27.123 15.615z"/><path d="M132.665 179.937l-29.19-16.805 29.19-16.804 29.19 16.804-29.19 16.805zm-27.123-16.805l27.123 15.614 27.124-15.614-27.124-15.614-27.123 15.614z"/><path d="M160.823 196.145l-.258-.149-28.933-16.655 29.19-16.804 29.191 16.805-29.19 16.803zm-27.124-16.804l27.124 15.614 27.123-15.613-27.124-15.615-27.123 15.614z"/><path d="M188.98 212.355l-29.19-16.805 29.19-16.803.258.15 28.932 16.654-29.19 16.804zm-27.124-16.805l27.124 15.616 27.124-15.615-27.124-15.614-27.124 15.613z"/><path d="M217.138 228.565l-.258-.15-28.933-16.655 29.19-16.804.258.15 28.933 16.654-29.19 16.805zm-27.124-16.805l27.124 15.615 27.123-15.615-27.124-15.614-27.123 15.614zm-141.82-48.033l-.258-.15-28.933-16.655 29.19-16.803.258.149 28.933 16.655-29.19 16.804zM21.07 146.922l27.124 15.614 27.123-15.613-27.124-15.615-27.123 15.614z"/><path d="M76.352 179.937l-29.19-16.806 29.19-16.803.257.149 28.933 16.655-29.19 16.805zM49.228 163.13l27.124 15.615 27.123-15.614-27.124-15.614-27.123 15.613z"/><path d="M104.51 196.145l-.258-.149-28.934-16.655 29.19-16.804 29.19 16.804-29.189 16.804zm-27.125-16.804l27.124 15.614 27.123-15.614-27.123-15.614-27.124 15.614z"/><path d="M132.666 212.355l-29.19-16.805 29.19-16.804.258.149 28.932 16.655-29.19 16.805zm-27.123-16.805l27.123 15.615 27.124-15.615-27.125-15.613-27.122 15.613z"/><path d="M160.824 228.564l-.258-.149-28.933-16.655 29.19-16.805 29.19 16.805-29.19 16.804zm-27.125-16.804l27.125 15.613 27.123-15.613-27.124-15.615-27.124 15.615zm-85.504-15.615l-.258-.15-28.933-16.655 29.19-16.804 29.191 16.805-29.19 16.804zM21.071 179.34l27.124 15.614 27.123-15.613-27.124-15.615-27.123 15.614z"/><path d="M76.353 212.354l-.258-.149-28.933-16.655 29.19-16.804.258.149 28.933 16.655-29.19 16.804zM49.229 195.55l27.124 15.614 27.123-15.614-27.124-15.613-27.123 15.613z"/><path d="M104.51 228.564l-29.19-16.805 29.19-16.804 29.19 16.805-29.19 16.804zm-27.124-16.805l27.124 15.614 27.123-15.613-27.123-15.615-27.124 15.614z"/><path d="M48.196 228.563l-.258-.149-28.933-16.655 29.19-16.804.258.149 28.933 16.655-29.19 16.804zm-27.124-16.804l27.124 15.614 27.124-15.614-27.125-15.614-27.123 15.614z"/></g><path d="M369.916 105.344c5.897 1.384 7.843 4.141 4.346 6.15l-209.683 74.754c-3.493 1.928-11.107 2.325-17.004.89L6.09 153.325c-5.899-1.384-7.85-4.038-4.355-5.935l209.643-73.483c3.496-1.978 11.112-2.503 17.012-1.17l141.526 32.607z" fill="#BFAFD8" fill-rule="nonzero"/><path d="M363.071 84.171c5.752 1.377 7.646 4.095 4.227 6.065L162.51 163.297c-3.414 1.89-10.843 2.263-16.595.836L7.934 130.52c-5.753-1.377-7.65-3.994-4.236-5.852l204.747-71.814c3.417-1.938 10.85-2.437 16.602-1.11L363.071 84.17z" fill="#E8ECF1" fill-rule="nonzero"/><path d="M134.417 161L8.932 130.728c-5.751-1.363-7.648-3.955-4.235-5.795l204.706-71.098c3.417-1.919 10.847-2.413 16.6-1.1L364 84.843" fill="#CFBAFF" fill-rule="nonzero"/><path stroke="#BAB3AD" stroke-width="3" stroke-linecap="round" d="M117 94l54 14m-22-25l82 22"/><path stroke="#BAB3AC" stroke-width="3" stroke-linecap="round" d="M184 71l82 22"/><path stroke="#FDF6F7" stroke-width="3" stroke-linecap="round" d="M117 79l54 14m-19-26l82 20m-55-31l82 20"/><path d="M176.602 143.558c14.662 2.136 32.314-3.675 39.427-12.978 7.112-9.304 1.018-18.735-13.614-21.065-14.631-2.332-32.283 3.48-39.426 12.978-7.142 9.498-1.047 18.93 13.613 21.065z" fill="#BAB3AD" fill-rule="nonzero"/><path d="M364.094 54.315c5.75 1.422 7.624 4.145 4.184 6.077l-205.796 70.99c-3.436 1.852-10.882 2.16-16.631.688L7.91 97.376C2.161 95.955.283 93.33 3.72 91.51l205.74-69.747c3.44-1.9 10.89-2.331 16.643-.96l137.992 33.513z" stroke="#FDF6F7" stroke-width="3"/><path d="M178.158 136.96c15.041.651 32.307-6.78 38.568-16.596 6.26-9.815-.85-18.455-15.879-19.299-15.03-.842-32.296 6.588-38.567 16.597-6.271 10.01.839 18.65 15.878 19.298z" fill="#C9F1E8" fill-rule="nonzero"/><path d="M179.851 114l-.851 8 19-3.943" stroke="#F7F7F7" stroke-width="4" stroke-linecap="round" stroke-linejoin="round"/></g></svg>