<svg width="568" height="492" xmlns="http://www.w3.org/2000/svg"><defs><linearGradient x1="-16.35%" y1="329.025%" x2="-3.353%" y2="340.766%" id="a"><stop stop-color="#3919BB" offset="0%"/><stop stop-color="#4F10DB" offset="50%"/><stop stop-color="#6507FA" offset="100%"/></linearGradient></defs><g fill="none"><g opacity=".4" fill="#FFF"><path d="M519.154 128.608l-48.766-28.18 48.764-28.177.43.25 48.336 27.929-48.764 28.178zm-45.313-28.18l45.313 26.184 45.312-26.182-45.314-26.183-45.311 26.181z"/><path d="M425.076 128.607l-48.765-28.179 48.765-28.178 48.765 28.178-48.765 28.179zm-45.312-28.179l45.312 26.183 45.313-26.183-45.313-26.183-45.312 26.183z"/><path d="M472.115 155.786l-.43-.25-48.335-27.928 48.764-28.179 48.766 28.18-48.765 28.177zm-45.313-28.178l45.313 26.183 45.312-26.182-45.313-26.183-45.312 26.182z"/><path d="M519.156 182.967l-.432-.25-48.334-27.929 48.764-28.176.43.25 48.336 27.928-48.764 28.177zm-45.314-28.179l45.314 26.183 45.31-26.18-45.312-26.183-45.312 26.18zM331 128.605l-.432-.25-48.334-27.929 48.764-28.176.43.25 48.336 27.928L331 128.605zm-45.314-28.179L331 126.61l45.311-26.181-45.313-26.183-45.312 26.181z"/><path d="M378.038 155.786l-48.764-28.18 48.764-28.177 48.764 28.18-48.764 28.177zm-45.312-28.18l45.312 26.185 45.312-26.183-45.312-26.182-45.312 26.18z"/><path d="M425.077 182.967l-.43-.25-48.336-27.929 48.765-28.177.431.249 48.335 27.928-48.765 28.18zm-45.313-28.179l45.313 26.184 45.313-26.184-45.314-26.182-45.312 26.182z"/><path d="M472.117 210.148l-.43-.25-48.336-27.928 48.764-28.18.432.251 48.334 27.929-48.764 28.178zm-45.313-28.178l45.313 26.181 45.312-26.181-45.314-26.184-45.311 26.184z"/><path d="M519.157 237.328l-.431-.25-48.335-27.928 48.765-28.178 48.765 28.179-48.764 28.177zm-45.314-28.178l45.314 26.182 45.312-26.181-45.313-26.184-45.313 26.183zm-236.921-80.545l-.43-.25-48.336-27.929 48.764-28.178.43.25 48.336 27.928-48.764 28.179zm-45.314-28.179l45.314 26.183 45.312-26.183-45.314-26.182-45.312 26.182z"/><path d="M283.961 155.785l-.43-.25-48.336-27.929 48.765-28.178.431.25 48.335 27.928-48.765 28.18zm-45.313-28.179l45.313 26.183 45.313-26.183-45.314-26.182-45.312 26.182z"/><path d="M331.001 182.965l-.43-.25-48.335-27.927 48.763-28.18 48.764 28.18-48.762 28.177zm-45.313-28.177l45.313 26.182 45.31-26.182L331 128.605l-45.311 26.183z"/><path d="M378.04 210.148l-48.766-28.18 48.764-28.177.43.25 48.336 27.929-48.764 28.178zm-45.313-28.18l45.313 26.183 45.31-26.181-45.312-26.184-45.311 26.182z"/><path d="M425.078 237.328l-.43-.25-48.335-27.928 48.764-28.178.431.25 48.335 27.928-48.765 28.178zm-45.313-28.178l45.313 26.182 45.313-26.182-45.314-26.183-45.312 26.183z"/><path d="M472.119 264.508l-.432-.25-48.334-27.928 48.764-28.179.43.25 48.336 27.93-48.764 28.177zm-45.314-28.178l45.314 26.183 45.311-26.183-45.313-26.182-45.312 26.182z"/><path d="M519.159 291.69l-.431-.251-48.336-27.929 48.765-28.178.43.25 48.336 27.928-48.764 28.18zm-45.314-28.18l45.314 26.184 45.312-26.184-45.314-26.181-45.312 26.181zM142.844 128.603l-.431-.25-48.335-27.928 48.764-28.177.431.25 48.335 27.928-48.764 28.177zM97.53 100.425l45.314 26.182 45.312-26.18-45.314-26.183-45.312 26.181z"/><path d="M189.884 155.785l-48.766-28.18 48.764-28.177.43.25 48.336 27.928-48.764 28.18zm-45.314-28.18l45.314 26.184 45.311-26.183-45.313-26.182-45.312 26.181z"/><path d="M236.924 182.965l-.432-.25-48.334-27.927 48.764-28.18.43.251 48.336 27.929-48.764 28.177zm-45.314-28.177l45.314 26.182 45.31-26.182-45.312-26.183-45.312 26.183z"/><path d="M283.962 210.146l-.43-.25-48.335-27.928 48.764-28.18.431.251 48.335 27.929-48.765 28.178zm-45.313-28.178l45.313 26.182 45.312-26.182-45.313-26.183-45.312 26.183z"/><path d="M331.001 237.327l-48.764-28.179L331 180.97l48.764 28.18L331 237.327zm-45.312-28.179l45.312 26.183 45.312-26.181-45.312-26.185-45.312 26.183z"/><path d="M378.04 264.507l-.43-.25-48.336-27.929 48.766-28.177.43.25 48.335 27.93-48.764 28.176zm-45.313-28.179l45.314 26.183 45.312-26.18-45.313-26.183-45.313 26.18z"/><path d="M425.08 291.69l-48.765-28.18 48.763-28.178.432.25 48.335 27.928-48.765 28.18zm-45.313-28.18l45.313 26.184 45.312-26.184-45.314-26.181-45.31 26.18z"/><path d="M472.12 318.87l-.43-.25-48.335-27.928 48.764-28.18.43.251 48.335 27.929-48.764 28.177zm-45.313-28.178l45.313 26.181 45.312-26.181-45.313-26.184-45.312 26.184z"/><path d="M519.16 346.05l-.431-.25-48.335-27.928 48.765-28.178.43.25 48.336 27.928-48.765 28.178zm-45.314-28.178l45.314 26.182 45.312-26.182-45.313-26.183-45.313 26.183zM48.766 128.603l-.43-.25L0 100.426l48.765-28.178.43.25 48.335 27.928-48.764 28.178zM3.452 100.425l45.314 26.182 45.312-26.182-45.313-26.183-45.313 26.183z"/><path d="M95.806 155.783l-.43-.25-48.336-27.928 48.764-28.178.43.25 48.336 27.928-48.764 28.178zm-45.314-28.178l45.314 26.183 45.312-26.183-45.314-26.182-45.312 26.182z"/><path d="M142.845 182.964l-.43-.25-48.336-27.928 48.765-28.18 48.766 28.182-48.765 28.176zm-45.314-28.178l45.314 26.182 45.313-26.18-45.314-26.185-45.313 26.183z"/><path d="M189.885 210.146l-48.766-28.18 48.764-28.177.43.25 48.336 27.929-48.764 28.178zm-45.314-28.18l45.314 26.184 45.312-26.182-45.314-26.183-45.312 26.18z"/><path d="M236.925 237.327l-.431-.25-48.336-27.929 48.766-28.178.43.25 48.336 27.928-48.765 28.179zm-45.313-28.179l45.313 26.183 45.312-26.183-45.313-26.183-45.312 26.183z"/><path d="M283.962 264.507l-48.764-28.179 48.764-28.178 48.765 28.178-48.765 28.18zm-45.31-28.179l45.31 26.183 45.312-26.183-45.312-26.182-45.31 26.182z"/><path d="M331.003 291.687l-.432-.25-48.334-27.928L331 235.331l.43.25 48.336 27.928-48.764 28.178zm-45.314-28.178l45.314 26.183 45.312-26.183-45.314-26.182-45.312 26.182z"/><path d="M378.043 318.868l-.431-.25-48.336-27.928 48.765-28.18 48.766 28.182-48.764 28.176zm-45.314-28.178l45.314 26.182 45.312-26.18-45.314-26.185-45.312 26.183z"/><path d="M425.082 346.05l-48.766-28.18 48.764-28.176.431.25 48.335 27.928-48.764 28.178zm-45.314-28.18l45.314 26.184 45.311-26.182-45.313-26.183-45.312 26.18z"/><path d="M472.122 373.23l-.43-.25-48.336-27.928 48.764-28.179.43.25 48.336 27.929-48.764 28.178zm-45.313-28.178l45.313 26.183 45.312-26.183-45.314-26.183-45.311 26.183z"/><path d="M519.161 400.411l-.43-.25-48.336-27.929 48.765-28.178.43.25 48.336 27.928-48.765 28.18zm-45.314-28.179l45.314 26.184 45.313-26.184-45.314-26.182-45.313 26.182zM48.768 182.964l-.431-.25L0 154.786l48.765-28.18.43.251 48.336 27.929-48.764 28.178zM3.454 154.786l45.314 26.182 45.311-26.182-45.313-26.183-45.312 26.183z"/><path d="M95.807 210.145l-.431-.25-48.335-27.93 48.765-28.177.43.25 48.335 27.928-48.764 28.179zm-45.313-28.18l45.313 26.184 45.312-26.183-45.313-26.183-45.312 26.183z"/><path d="M142.846 237.325l-.43-.25-48.335-27.928 48.764-28.179 48.766 28.18-48.765 28.177zm-45.313-28.178l45.313 26.182 45.312-26.181-45.313-26.184-45.312 26.183z"/><path d="M189.887 264.506l-.432-.25-48.334-27.929 48.764-28.177.43.25 48.336 27.928-48.764 28.178zm-45.314-28.179l45.314 26.183 45.312-26.182-45.314-26.182-45.312 26.181z"/><path d="M236.927 291.687l-48.767-28.18 48.765-28.176 48.764 28.178-48.762 28.178zm-45.314-28.18l45.314 26.185 45.31-26.183-45.312-26.182-45.312 26.18z"/><path d="M283.964 318.868L235.2 290.69l48.762-28.18.432.251 48.335 27.929-48.765 28.178zm-45.312-28.178l45.312 26.182 45.312-26.182-45.314-26.183-45.31 26.183z"/><path d="M331.004 346.049l-.43-.25-48.336-27.93 48.765-28.177.43.25 48.335 27.928-48.764 28.179zm-45.313-28.18l45.313 26.183 45.312-26.182-45.313-26.183-45.312 26.183z"/><path d="M378.043 373.229l-.43-.25-48.335-27.929 48.765-28.178 48.766 28.18-48.766 28.177zM332.73 345.05l45.313 26.183 45.314-26.181-45.314-26.184-45.313 26.182z"/><path d="M425.083 400.41l-.43-.251-48.335-27.928 48.764-28.177.43.25 48.335 27.928-48.764 28.177zm-45.313-28.18l45.313 26.183 45.312-26.182-45.313-26.182-45.312 26.181z"/><path d="M472.124 427.591l-48.767-28.18 48.765-28.176.43.25 48.336 27.928-48.764 28.178zm-45.314-28.18l45.314 26.184 45.31-26.182-45.312-26.183-45.312 26.182z"/><path d="M519.163 454.772l-.43-.25-48.336-27.928 48.764-28.18.431.25 48.336 27.93-48.765 28.178zm-45.314-28.178l45.314 26.182 45.312-26.182-45.314-26.183-45.312 26.183zM48.769 237.325L.003 209.145l48.765-28.177.43.25 48.335 27.93-48.764 28.177zm-45.314-28.18L48.77 235.33l45.312-26.182-45.313-26.183-45.313 26.181z"/><path d="M95.809 264.506l-.431-.25-48.335-27.929 48.764-28.178.431.25 48.335 27.928-48.764 28.18zm-45.314-28.179L95.81 262.51l45.312-26.183-45.314-26.182-45.312 26.182z"/><path d="M142.848 291.685l-.43-.249-48.335-27.928 48.764-28.18.43.251 48.336 27.929-48.765 28.177zm-45.313-28.177l45.313 26.182 45.312-26.182-45.313-26.183-45.312 26.183z"/><path d="M189.888 318.867l-.43-.25-48.336-27.93 48.765-28.177 48.765 28.18-48.764 28.177zm-45.314-28.18l45.314 26.184L235.2 290.69l-45.313-26.184-45.313 26.182z"/><path d="M236.927 346.047l-48.765-28.178 48.765-28.177 48.764 28.178-48.764 28.177zm-45.313-28.178l45.313 26.182 45.31-26.181-45.31-26.183-45.313 26.182z"/><path d="M283.966 373.229l-48.766-28.18 48.764-28.177.431.25 48.335 27.928-48.764 28.179zm-45.314-28.18l45.314 26.184 45.312-26.183-45.314-26.182-45.312 26.181z"/><path d="M331.006 400.41l-.43-.251-48.336-27.928 48.764-28.179.43.25 48.336 27.93-48.764 28.177zm-45.313-28.179l45.313 26.183 45.312-26.183-45.314-26.182-45.311 26.182z"/><path d="M378.045 427.59l-.43-.25-48.336-27.928 48.764-28.18.432.251 48.335 27.929-48.765 28.177zm-45.314-28.178l45.314 26.182 45.312-26.182-45.314-26.183-45.312 26.183z"/><path d="M425.085 454.77l-.43-.25-48.335-27.928 48.764-28.178 48.765 28.18-48.764 28.177zm-45.313-28.178l45.313 26.182 45.312-26.18-45.313-26.185-45.312 26.183zM48.77 291.685L.004 263.505 48.77 235.33l.43.25 48.336 27.929-48.765 28.177zm-45.313-28.18L48.77 289.69l45.313-26.182-45.314-26.183-45.312 26.18z"/><path d="M95.81 318.867l-.43-.25-48.336-27.93L95.81 262.51l.43.25 48.335 27.928-48.764 28.179zm-45.313-28.18l45.313 26.184 45.312-26.183-45.313-26.182-45.312 26.182z"/><path d="M142.85 346.047l-.43-.25-48.336-27.928 48.764-28.179.43.25 48.336 27.929-48.764 28.178zm-45.313-28.178l45.313 26.182 45.312-26.182-45.314-26.184-45.31 26.184z"/><path d="M189.888 373.228l-48.764-28.179 48.764-28.178 48.764 28.178-48.764 28.179zm-45.312-28.179l45.312 26.183 45.312-26.183-45.312-26.182-45.312 26.182z"/><path d="M236.927 400.407l-.43-.25-48.335-27.928 48.765-28.178 48.766 28.18-48.766 28.176zm-45.313-28.178l45.313 26.183 45.313-26.18-45.313-26.185-45.313 26.182z"/><path d="M283.967 427.59l-48.765-28.18 48.764-28.177.43.25 48.335 27.929-48.764 28.177zm-45.313-28.18l45.313 26.184 45.312-26.182-45.313-26.183-45.312 26.18z"/><path d="M331.007 454.77l-.431-.25-48.335-27.928 48.765-28.178.43.25 48.335 27.928-48.764 28.179zm-45.313-28.178l45.313 26.182 45.312-26.182-45.313-26.183-45.312 26.183zM48.772 346.046l-.431-.25L.006 317.867 48.77 289.69l.431.25 48.335 27.929-48.764 28.177zM3.458 317.867l45.314 26.183 45.311-26.181-45.313-26.184-45.312 26.182z"/><path d="M95.811 373.228l-48.765-28.18L95.81 316.87l.43.25 48.335 27.928-48.765 28.179zm-45.313-28.18l45.313 26.184 45.313-26.183-45.313-26.182-45.313 26.18z"/><path d="M142.851 400.407l-.43-.25-48.336-27.928 48.765-28.178 48.764 28.178-48.763 28.178zM97.538 372.23l45.313 26.183 45.311-26.183-45.312-26.182-45.312 26.182z"/><path d="M189.89 427.588l-48.765-28.178 48.763-28.178.431.25 48.335 27.928-48.764 28.178zm-45.312-28.178l45.312 26.183 45.312-26.183-45.314-26.182-45.31 26.182z"/><path d="M236.93 454.769l-.431-.25-48.336-27.928 48.764-28.179 48.767 28.18-48.765 28.177zm-45.315-28.178l45.314 26.181 45.312-26.18-45.314-26.185-45.312 26.184zM48.773 400.406l-.43-.25L.007 372.229l48.765-28.178 48.766 28.18-48.765 28.176zM3.46 372.228l45.313 26.182 45.312-26.18-45.313-26.185L3.46 372.228z"/><path d="M95.813 427.587l-.431-.25-48.335-27.928 48.764-28.177.431.25 48.336 27.928-48.765 28.177zM50.5 399.409l45.313 26.182 45.312-26.181-45.314-26.182-45.311 26.18z"/><path d="M142.852 454.769l-48.765-28.18 48.765-28.177 48.763 28.179-48.763 28.178zm-45.313-28.18l45.313 26.183 45.311-26.181-45.311-26.184-45.313 26.182z"/><path d="M48.775 454.767l-.43-.25L.008 426.59l48.764-28.178.431.25 48.335 27.928-48.764 28.178zM3.46 426.589l45.314 26.183 45.312-26.183-45.314-26.183L3.461 426.59z"/></g><path d="M275.391 394.21l-90.16-52.088c-3.305-1.909-2.89-5.243.925-7.447l95.561-55.352c3.815-2.204 9.587-2.443 12.891-.534l90.161 52.088c3.304 1.91 2.89 5.244-.925 7.448l-95.562 55.351c-3.815 2.204-9.587 2.445-12.89.535z" fill="#CFBAFF"/><path d="M280.99 377.5c-2.582 0-5.067-.538-6.968-1.63l-90.444-51.951c-2.275-1.307-3.578-3.326-3.578-5.536 0-2.495 1.642-4.868 4.505-6.513l95.858-55.204c4.64-2.666 11.497-2.902 15.615-.536l90.444 51.952c2.275 1.305 3.578 3.324 3.578 5.536 0 2.493-1.642 4.867-4.507 6.511l-95.857 55.206c-2.497 1.434-5.636 2.165-8.645 2.165zm-4.288-6.25c2.483 1.427 7.274 1.177 10.251-.534l95.857-55.205c1.341-.77 1.828-1.555 1.828-1.893 0-.2-.278-.56-.896-.915l-90.444-51.952c-2.483-1.428-7.274-1.178-10.251.533l-95.858 55.203c-1.341.77-1.827 1.556-1.827 1.896 0 .198.277.56.897.915l90.443 51.952z" fill="#FFF"/><path d="M282.296 120.115s-49.489 4.72-79.296 7.01L282.058 352.5l104.572-60.372.05-.03.186-.107-.001-.009c1.308-.826 2.135-2.625 2.135-5.167V66.53c0-2.326-.696-4.83-1.816-7.031l-104.888 60.615z" fill-opacity=".91" fill="#FFF"/><path d="M382.332 54.327L290.283 1.273c-1.6-.922-3.063-.989-4.193-.362L181 61.434l4.95 18.293 26.35 74.914 4.96 2.859L387 59.67c-1.18-2.312-2.833-4.286-4.668-5.343z" fill="#E8ECF1"/><path d="M277.519 352.72l-92.038-53.279c-3.58-2.072-6.481-7.63-6.481-12.415V66.192c0-4.785 2.902-6.984 6.481-4.912l92.038 53.28c3.58 2.07 6.481 7.63 6.481 12.415v220.833c0 4.785-2.902 6.984-6.481 4.912z" fill-opacity=".91" fill="#FFF"/><path d="M279.495 113.565l-92.378-53.288c-2.079-1.2-3.926-.96-5.117.375.93-.147 2 .079 3.137.735l92.378 53.287c3.592 2.074 6.505 7.633 6.505 12.419v220.87c0 2.015-.521 3.565-1.388 4.537 2.007-.317 3.368-2.377 3.368-5.647v-220.87c0-4.786-2.913-10.346-6.505-12.418z" fill="#FFF"/><path d="M271.321 338.819l-80.643-46.545c-3.136-1.81-5.678-6.666-5.678-10.846V76.473c0-4.18 2.542-6.102 5.678-4.292l80.643 46.545c3.137 1.81 5.679 6.667 5.679 10.847v204.954c0 4.18-2.542 6.102-5.679 4.292z" fill="url(#a)"/><path d="M271.321 338.819l-80.643-46.545c-3.136-1.81-5.678-6.666-5.678-10.846V76.473c0-4.18 2.542-6.102 5.678-4.292l80.643 46.545c3.137 1.81 5.679 6.667 5.679 10.847v204.954c0 4.18-2.542 6.102-5.679 4.292z" fill="url(#a)"/><path d="M271.321 338.819l-80.643-46.545c-3.136-1.81-5.678-6.666-5.678-10.846V76.473c0-4.18 2.542-6.102 5.678-4.292l80.643 46.545c3.137 1.81 5.679 6.667 5.679 10.847v204.954c0 4.18-2.542 6.102-5.679 4.292z" fill-opacity=".6" fill="#CCE7FC"/><path d="M274.776 337.272l-80.48-46.545c-3.13-1.81-5.667-6.667-5.667-10.848V74.922c0-1.425.3-2.58.814-3.422-2.024-.015-3.443 1.846-3.443 4.972V281.43c0 4.18 2.537 9.036 5.666 10.846l80.48 46.545c2.062 1.194 3.863.757 4.854-.87-.683-.005-1.435-.223-2.224-.68z" fill-opacity=".91" fill="#FFF"/><path d="M271.353 244.854L241.544 227.5 194 255.179l83 48.321v-47.765c0-4.194-2.528-9.065-5.647-10.88z" fill-opacity=".6" fill="#CCE7FC"/><path d="M271.353 202.855L241.544 185.5 194 213.18l83 48.32v-47.764c0-4.194-2.528-9.065-5.647-10.88z" fill-opacity=".6" fill="#CCE7FC"/><path d="M271.353 160.854L241.544 143.5 194 171.18l83 48.32v-47.764c0-4.194-2.528-9.066-5.647-10.882z" fill-opacity=".6" fill="#CCE7FC"/><path d="M271.353 118.854L241.544 101.5 194 129.179l83 48.321v-47.765c0-4.194-2.528-9.065-5.647-10.88z" fill-opacity=".6" fill="#CCE7FC"/><path d="M271.353 118.966L205.36 80.5 194 87.121l83 48.379v-5.64c0-4.199-2.528-9.076-5.647-10.894z" fill-opacity=".6" fill="#CCE7FC"/><path fill-opacity=".91" fill="#FFF" d="M277 135.854L194 87.5v26.648l83 48.352zm0 42L194 129.5v26.647l83 48.353zm0 42L194 171.5v26.647l83 48.353zm0 42L194 213.5v26.647l83 48.353zm0 42L194 255.5v26.646l83 48.354z"/><path d="M269.8 153.112l-62.6-36.468c-1.767-1.03-3.201-3.791-3.201-6.17v-7.145c0-2.379 1.434-3.471 3.201-2.441l62.599 36.468c1.767 1.03 3.2 3.791 3.2 6.17v7.145c0 2.379-1.433 3.471-3.2 2.441z" fill-opacity=".26" fill="#6507FA"/><path d="M210.314 115.063c-1.785-1.031-3.231-3.797-3.231-6.177v-7.155c0-.38.05-.716.118-1.028l-.081-.047c-1.785-1.03-3.232.063-3.232 2.445v7.154c0 2.382 1.447 5.148 3.232 6.178l63.201 36.517c1.499.865 2.747.218 3.112-1.418l-63.12-36.469z" opacity=".3" fill="#06033E"/><path d="M249.873 133.365l-37.745-21.73c-.623-.36-1.128-1.322-1.128-2.15 0-.828.505-1.209 1.128-.85l37.745 21.73c.622.359 1.127 1.321 1.127 2.15 0 .828-.505 1.209-1.127.85z" fill="#FFF"/><path d="M269.8 195.112l-62.6-36.468c-1.767-1.03-3.2-3.791-3.2-6.17v-7.145c0-2.377 1.433-3.471 3.2-2.442l62.6 36.469c1.767 1.029 3.2 3.792 3.2 6.17v7.145c0 2.378-1.433 3.472-3.2 2.441z" fill-opacity=".26" fill="#6507FA"/><path d="M210.314 156.44c-1.785-1.03-3.232-3.796-3.232-6.178v-7.153c0-.382.05-.717.118-1.028l-.081-.048c-1.785-1.031-3.231.064-3.231 2.445v7.155c0 2.38 1.446 5.146 3.23 6.178l63.202 36.516c1.499.866 2.748.219 3.113-1.417l-63.12-36.47z" opacity=".3" fill="#06033E"/><path d="M249.872 175.365l-37.745-21.73c-.622-.36-1.127-1.32-1.127-2.15 0-.828.505-1.208 1.127-.85l37.745 21.731c.623.359 1.128 1.32 1.128 2.15 0 .827-.505 1.208-1.128.849z" fill="#FFF"/><path d="M269.8 237.112l-62.6-36.468c-1.767-1.03-3.2-3.791-3.2-6.17v-7.145c0-2.377 1.433-3.471 3.2-2.442l62.6 36.469c1.767 1.029 3.2 3.792 3.2 6.17v7.145c0 2.378-1.433 3.472-3.2 2.441z" fill-opacity=".26" fill="#6507FA"/><path d="M210.314 199.157c-1.785-1.032-3.232-3.797-3.232-6.178v-7.154c0-.382.05-.716.118-1.028l-.081-.047c-1.785-1.032-3.231.063-3.231 2.444v7.155c0 2.381 1.446 5.146 3.23 6.178l63.202 36.516c1.499.866 2.748.22 3.113-1.417l-63.12-36.469z" opacity=".3" fill="#06033E"/><path d="M249.872 217.365l-37.745-21.73c-.622-.36-1.127-1.322-1.127-2.15 0-.828.505-1.208 1.127-.85l37.745 21.73c.623.359 1.128 1.321 1.128 2.15 0 .828-.505 1.209-1.128.85z" fill-opacity=".6" fill="#CCE7FC"/><path d="M269.8 279.112l-62.6-36.468c-1.767-1.03-3.2-3.793-3.2-6.17v-7.145c0-2.379 1.433-3.47 3.2-2.441l62.6 36.468c1.767 1.03 3.2 3.792 3.2 6.17v7.145c0 2.379-1.433 3.47-3.2 2.441z" fill-opacity=".26" fill="#6507FA"/><path d="M210.314 241.37c-1.785-1.03-3.232-3.797-3.232-6.178v-7.154c0-.381.05-.717.118-1.028l-.081-.047c-1.785-1.031-3.231.063-3.231 2.444v7.155c0 2.38 1.446 5.146 3.23 6.178l63.202 36.516c1.499.866 2.748.219 3.113-1.417l-63.12-36.47z" opacity=".3" fill="#06033E"/><path d="M249.872 259.365l-37.745-21.73c-.622-.359-1.127-1.322-1.127-2.15 0-.828.505-1.209 1.127-.85l37.745 21.73c.623.36 1.128 1.322 1.128 2.15 0 .828-.505 1.209-1.128.85z" fill="#FFF"/><path d="M238.508 252.413l-26.38-14.92c-.511-.51-1.128-1.297-1.128-2.108 0-.812.598-.965 1.078-.852l26.381 14.922c.622.351.526.906.526 1.718 0 .812.145 1.592-.477 1.24z" fill="#FD9843"/><path d="M269.8 321.112l-62.6-36.468c-1.767-1.03-3.2-3.792-3.2-6.17v-7.145c0-2.379 1.433-3.471 3.2-2.441l62.6 36.468c1.767 1.03 3.2 3.792 3.2 6.17v7.145c0 2.379-1.433 3.47-3.2 2.441z" fill-opacity=".26" fill="#6507FA"/><path d="M210.314 282.63c-1.785-1.032-3.232-3.798-3.232-6.178v-7.155c0-.38.05-.716.118-1.028l-.081-.047c-1.785-1.03-3.231.063-3.231 2.445v7.155c0 2.38 1.446 5.146 3.23 6.177l63.202 36.517c1.499.866 2.748.219 3.113-1.418l-63.12-36.469z" opacity=".3" fill="#06033E"/><path d="M249.872 301.365l-37.745-21.73c-.622-.359-1.127-1.321-1.127-2.15 0-.828.505-1.209 1.127-.85l37.745 21.73c.623.359 1.128 1.322 1.128 2.15 0 .828-.505 1.209-1.128.85z" fill-opacity=".6" fill="#CCE7FC"/><path d="M193.293 87.587l6.98 3.786v26.492l-6.98-3.785zm0 41.581l6.98 3.786v26.492l-6.98-3.785zm0 42.642l6.98 3.786v26.492l-6.98-3.786zm0 41.582l6.98 3.793v26.542l-6.98-3.793zm0 41.64l6.98 3.785v26.492l-6.98-3.785z" opacity=".5" fill="#6507FA" fill-opacity=".26"/><path d="M258 135.67c0 .741-.672 1.042-1.5.671-.83-.37-1.5-1.271-1.5-2.012 0-.74.67-1.04 1.5-.67.828.37 1.5 1.27 1.5 2.012z" fill-opacity=".6" fill="#CCE7FC"/><path d="M264 138.67c0 .741-.672 1.042-1.5.671-.828-.37-1.5-1.27-1.5-2.011 0-.742.672-1.042 1.5-.671.828.37 1.5 1.27 1.5 2.011z" fill="#FECB1C"/><path d="M269 142.67c0 .741-.672 1.042-1.5.671-.828-.37-1.5-1.27-1.5-2.011 0-.742.672-1.042 1.5-.671.828.37 1.5 1.27 1.5 2.011z" fill-opacity=".6" fill="#CCE7FC"/><path d="M258 177.67c0 .741-.672 1.042-1.5.672-.828-.371-1.5-1.271-1.5-2.013 0-.74.672-1.041 1.5-.67.828.37 1.5 1.27 1.5 2.012z" fill="#FECB1C"/><path d="M264 180.67c0 .741-.672 1.042-1.5.672-.83-.371-1.5-1.271-1.5-2.013 0-.74.67-1.04 1.5-.67.828.37 1.5 1.27 1.5 2.012z" fill-opacity=".6" fill="#CCE7FC"/><path d="M269 184.67c0 .741-.672 1.042-1.5.671-.828-.37-1.5-1.271-1.5-2.012 0-.74.672-1.04 1.5-.67s1.5 1.27 1.5 2.012zm-11 35.001c0 .74-.672 1.04-1.5.67s-1.5-1.27-1.5-2.011c0-.742.672-1.042 1.5-.671.828.37 1.5 1.27 1.5 2.012z" fill="#FFF"/><path d="M264 223.671c0 .74-.672 1.04-1.5.67-.83-.37-1.5-1.27-1.5-2.011 0-.742.67-1.042 1.5-.671.828.37 1.5 1.27 1.5 2.012z" fill="#FECB1C"/><path d="M269 226.67c0 .742-.672 1.042-1.5.671-.828-.37-1.5-1.27-1.5-2.011 0-.742.672-1.042 1.5-.671.828.37 1.5 1.27 1.5 2.011zm-11 35c0 .741-.672 1.042-1.5.671-.828-.37-1.5-1.27-1.5-2.012 0-.74.672-1.04 1.5-.67s1.5 1.27 1.5 2.011z" fill="#FFF"/><path d="M264 264.67c0 .742-.672 1.042-1.5.671-.83-.37-1.5-1.27-1.5-2.011 0-.741.67-1.042 1.5-.671.828.37 1.5 1.27 1.5 2.011zm5 4c0 .741-.672 1.042-1.5.672-.828-.371-1.5-1.272-1.5-2.013 0-.74.672-1.041 1.5-.67.828.37 1.5 1.27 1.5 2.012z" fill-opacity=".6" fill="#CCE7FC"/><path d="M258 303.671c0 .74-.672 1.04-1.5.67s-1.5-1.27-1.5-2.011c0-.741.672-1.042 1.5-.671.828.37 1.5 1.27 1.5 2.012z" fill="#FFF"/><path d="M264 307.671c0 .74-.672 1.04-1.5.67-.83-.37-1.5-1.27-1.5-2.011 0-.742.67-1.042 1.5-.671.828.37 1.5 1.27 1.5 2.012z" fill="#FECB1C"/><path d="M269 310.67c0 .741-.672 1.041-1.5.672-.828-.371-1.5-1.272-1.5-2.012 0-.742.672-1.042 1.5-.671.828.37 1.5 1.27 1.5 2.012z" fill-opacity=".6" fill="#CCE7FC"/><path d="M298 322.5V134.972l.39-.223L377 89.5v187.528l-.39.223L298 322.5zm1.557-186.63v183.94l75.887-43.68V92.19l-75.887 43.68z" fill-opacity=".26" fill="#6507FA"/><path d="M356.696 173.777l-35.392 20.212c-2.377 1.358-4.304-.083-4.304-3.22v-19.41c0-3.135 1.927-6.778 4.304-8.136l35.392-20.212c2.377-1.358 4.304.083 4.304 3.22v19.41c0 3.135-1.927 6.778-4.304 8.136z" fill-opacity=".26" fill="#6507FA"/><path d="M356.607 142.634c.2.542.315 1.193.315 1.946v19.412c0 3.136-1.898 6.779-4.238 8.137l-34.838 20.213c-.29.168-.573.292-.846.376.63 1.714 2.146 2.304 3.923 1.273l34.84-20.214c2.34-1.358 4.237-5 4.237-8.136V146.23c0-2.748-1.457-4.193-3.393-3.595z" fill-opacity=".91" fill="#FFF"/><path d="M350 162.65c.553-.351 1-.066 1 .637v4.154c0 .703-.447 1.557-1 1.909-.552.35-1 .066-1-.636v-4.157c0-.701.448-1.555 1-1.906z" fill="#FFF"/><path d="M345 165.663c.553-.38 1-.072 1 .686v3.928c0 .76-.447 1.68-1 2.06-.553.38-1 .073-1-.686v-3.928c0-.759.447-1.681 1-2.06z" fill-opacity=".6" fill="#CCE7FC"/><path d="M340 164.657c.552-.366 1-.07 1 .664v8.03c0 .734-.448 1.625-1 1.991-.553.368-1 .071-1-.662v-8.032c0-.733.447-1.624 1-1.991z" fill="#FECB1C"/><path d="M335 162.66c.552-.375 1-.07 1 .68v12.96c0 .752-.448 1.663-1 2.04-.552.374-1 .07-1-.68V164.7c0-.75.448-1.663 1-2.04zm-5 4.005c.552-.385 1-.073 1 .696v11.886c0 .77-.448 1.703-1 2.088s-1 .074-1-.696v-11.885c0-.77.448-1.705 1-2.089z" fill-opacity=".6" fill="#CCE7FC"/><path d="M325 174.655c.553-.362 1-.069 1 .655v6.07c0 .724-.447 1.603-1 1.965-.554.362-1 .069-1-.655v-6.07c0-.724.446-1.603 1-1.965z" fill="#FFF"/><path d="M349 159.671c0 .74.448 1.04 1 .67.553-.37 1-1.27 1-2.011 0-.74-.447-1.042-1-.672-.552.37-1 1.273-1 2.013z" fill="#FECB1C"/><path d="M349 155.67c0 .741.448 1.042 1 .671.553-.37 1-1.272 1-2.012s-.447-1.04-1-.67c-.552.37-1 1.27-1 2.01z" fill="#FFF"/><path d="M79.023 352.206L25.23 320.97c-3.302-1.917-2.888-5.266.925-7.48l51.942-30.16c3.813-2.214 9.58-2.454 12.881-.537l53.795 31.236c3.3 1.917 2.887 5.265-.926 7.479l-51.942 30.16c-3.813 2.213-9.58 2.454-12.88.537z" fill="#CFBAFF"/><path d="M84.647 339.5c-2.629 0-5.162-.567-7.144-1.716h-.002l-53.747-31.166c-2.385-1.382-3.752-3.53-3.754-5.896 0-2.646 1.705-5.154 4.677-6.877l51.898-30.091c4.802-2.786 11.646-3.018 15.922-.536l53.75 31.165c2.385 1.383 3.753 3.531 3.753 5.895 0 2.647-1.705 5.153-4.678 6.876l-51.897 30.094c-2.577 1.493-5.74 2.252-8.778 2.252zm-4.093-7.026c2.372 1.373 6.956 1.123 9.817-.536l51.898-30.094c1.305-.755 1.618-1.44 1.626-1.568-.018-.037-.193-.289-.7-.583l-53.75-31.167c-2.368-1.372-6.953-1.122-9.817.537L27.73 299.155c-1.306.756-1.617 1.44-1.624 1.568.018.039.193.291.699.585l53.75 31.166h-.002z" fill="#FFF"/><path d="M146.99 282.488v-18.436l-41.625-.023-14.388-8.251c-3.302-1.893-9.07-1.655-12.882.53l-13.424 7.698-41.663-.023v18.961c-.094 1.282.626 2.519 2.212 3.428l53.802 30.85c3.302 1.893 9.07 1.656 12.882-.53l51.95-29.788c2.199-1.261 3.26-2.896 3.136-4.416z" fill="#BFAFD8"/><path d="M85 254.5c-2.416.058-4.924.662-6.905 1.799l-13.424 7.699-41.663-.023v18.966c-.094 1.282.626 2.519 2.212 3.429l53.802 30.857c1.586.91 3.743 1.322 5.978 1.268V254.5z" fill="#C9F1E8"/><path d="M80 317.611c2.766 1.238 6.766 1.169 10-.119V295.5H80v22.111z" fill-opacity=".91" fill="#FFF"/><path d="M79.023 298.206L25.23 266.97c-3.302-1.917-2.888-5.265.925-7.479l51.942-30.16c3.813-2.213 9.58-2.454 12.88-.537l53.795 31.235c3.302 1.917 2.888 5.266-.924 7.48l-51.943 30.16c-3.813 2.214-9.58 2.454-12.88.537z" fill="#FFF"/><path d="M143.855 263.836l-51.947 30.16c-3.812 2.212-9.58 2.454-12.881.537l-53.799-31.235c-.736-.428-1.277-.929-1.647-1.47-1.134 1.836-.62 3.827 1.647 5.143l53.799 31.235c3.301 1.917 9.069 1.677 12.881-.537l51.947-30.16c2.962-1.72 3.862-4.122 2.572-6.009-.519.838-1.378 1.643-2.572 2.336z" fill="#FFF"/><path d="M127 287.159c0 1.481-.895 3.283-2 4.024-1.105.74-2 .14-2-1.341 0-1.482.895-3.284 2-4.025 1.105-.74 2-.14 2 1.342zm7-4c0 1.481-.895 3.283-2 4.024-1.105.74-2 .14-2-1.341 0-1.482.895-3.284 2-4.024 1.105-.742 2-.141 2 1.34zm7-4c0 1.481-.895 3.283-2 4.023-1.104.742-2 .141-2-1.34s.896-3.284 2-4.024c1.105-.742 2-.141 2 1.341z" fill-opacity=".6" fill="#CCE7FC"/><path d="M82.204 278.888l-25.161-14.75c-1.545-.904-1.351-2.485.432-3.531l24.296-14.242c1.783-1.045 4.48-1.16 6.025-.254l25.161 14.75c1.545.905 1.351 2.487-.432 3.532l-24.296 14.243c-1.783 1.045-4.48 1.158-6.025.252z" fill="#C4C4C4"/><path d="M84.615 266.41l-3.471-2.169c-.213-.133-.186-.366.06-.519l3.35-2.095c.247-.154.619-.17.832-.037l3.47 2.169c.213.132.186.366-.06.519l-3.35 2.095c-.246.154-.618.17-.831.037z" fill-opacity=".6" fill="#CCE7FC"/><path d="M57.043 264.46l.07.04c.118-.083.227-.167.362-.244l24.3-13.722c1.783-1.007 4.48-1.118 6.025-.245l25.094 14.172c1.425-.996 1.499-2.354.072-3.16L87.8 247.089c-1.544-.873-4.242-.763-6.025.244l-24.3 13.723c-1.783 1.008-1.977 2.53-.432 3.404z" fill="#BFAFD8"/><path fill="#CFBAFF" d="M96 445.5L61 425l35-20.5 35 20.5z"/><path d="M96 433.5a2.69 2.69 0 01-1.341-.36l-35.316-20.323A2.678 2.678 0 0158 410.499c0-.956.513-1.84 1.343-2.318l35.314-20.323a2.693 2.693 0 012.684 0l35.315 20.323A2.676 2.676 0 01134 410.5c0 .956-.512 1.84-1.344 2.318L97.342 433.14a2.683 2.683 0 01-1.341.359zm-29.945-23.001L96 427.732l29.944-17.233-29.946-17.232-29.944 17.232z" fill="#FFF"/><path fill="#BFAFD8" d="M95 414.5l-35-20.333V353.5l35 20.334z"/><path fill="#FFE9C2" d="M131 394.167L96 414.5v-40.666l35-20.334z"/><path fill="#FFF" d="M95 373.5L60 353l35-20.5 35 20.5zm-12 19l-10-5.666V375.5l10 5.666z"/><path fill="#CFBAFF" d="M489 227.5L454 207l35-20.5 35 20.5z"/><path d="M489 214.5a2.68 2.68 0 01-1.342-.36l-35.315-20.324a2.674 2.674 0 01-1.343-2.317c0-.956.512-1.84 1.343-2.318l35.314-20.323a2.692 2.692 0 012.684 0l35.316 20.323a2.672 2.672 0 010 4.635l-35.314 20.325a2.693 2.693 0 01-1.343.359zm-29.946-23.001L489 208.732l29.946-17.233-29.947-17.232-29.945 17.232z" fill="#FFF"/><path fill="#BFAFD8" d="M488 196.5l-35-20.333V135.5l35 20.334z"/><path fill="#FFE9C2" d="M524 176.167L489 196.5v-40.666l35-20.334z"/><path fill="#FFF" d="M488 155.5L453 135l35-20.5 35 20.5zm-12 19l-10-5.666V157.5l10 5.666z"/><path d="M476.023 352.206l-53.794-31.235c-3.302-1.917-2.888-5.266.924-7.48l51.943-30.16c3.813-2.214 9.58-2.454 12.88-.537l53.795 31.236c3.302 1.917 2.887 5.265-.925 7.479l-51.942 30.16c-3.812 2.213-9.58 2.454-12.881.537z" fill="#CFBAFF"/><path d="M481.646 339.5c-2.628 0-5.161-.567-7.144-1.716l-53.748-31.166c-2.386-1.382-3.754-3.53-3.754-5.896 0-2.646 1.704-5.154 4.676-6.877l51.899-30.091c4.801-2.786 11.646-3.018 15.922-.536l53.75 31.165c2.385 1.383 3.753 3.531 3.753 5.895 0 2.647-1.705 5.153-4.679 6.876l-51.896 30.094c-2.577 1.493-5.74 2.252-8.78 2.252zm-4.093-7.026c2.373 1.373 6.958 1.123 9.818-.536l51.898-30.094c1.305-.755 1.618-1.44 1.626-1.568-.02-.037-.194-.289-.7-.583l-53.75-31.167c-2.369-1.372-6.954-1.122-9.817.537l-51.898 30.092c-1.305.756-1.616 1.44-1.624 1.568.018.039.194.291.7.585l53.749 31.166h-.002z" fill="#FFF"/><path d="M542.99 282.488v-18.436l-41.625-.023-14.388-8.251c-3.302-1.893-9.07-1.655-12.882.53l-13.424 7.698-41.663-.023v18.961c-.094 1.282.626 2.519 2.212 3.428l53.802 30.85c3.302 1.893 9.07 1.656 12.882-.53l51.949-29.788c2.2-1.261 3.26-2.896 3.137-4.416z" fill="#BFAFD8"/><path d="M481 254.5c-2.416.058-4.924.662-6.905 1.799l-13.424 7.699-41.663-.023v18.966c-.094 1.282.626 2.519 2.212 3.429l53.802 30.857c1.587.91 3.743 1.322 5.978 1.268V254.5z" fill="#C9F1E8"/><path d="M476 317.611c2.766 1.238 6.766 1.169 10-.119V295.5h-10v22.111z" fill-opacity=".91" fill="#FFF"/><path d="M475.023 298.206L421.23 266.97c-3.302-1.917-2.887-5.265.925-7.479l51.942-30.16c3.812-2.213 9.58-2.454 12.881-.537l53.794 31.235c3.302 1.917 2.888 5.266-.924 7.48l-51.943 30.16c-3.813 2.214-9.58 2.454-12.88.537z" fill="#FFF"/><path d="M539.855 263.836l-51.946 30.16c-3.813 2.212-9.58 2.454-12.883.537l-53.797-31.235c-.737-.428-1.277-.929-1.648-1.47-1.134 1.836-.62 3.827 1.648 5.143l53.797 31.235c3.302 1.917 9.07 1.677 12.883-.537l51.946-30.16c2.962-1.72 3.862-4.122 2.572-6.009-.518.838-1.378 1.643-2.572 2.336z" fill="#FFF"/><path d="M523 287.159c0 1.481-.895 3.283-2 4.024-1.104.74-2 .14-2-1.341 0-1.482.896-3.284 2-4.025 1.105-.74 2-.14 2 1.342zm7-4c0 1.481-.895 3.283-2 4.024-1.104.74-2 .14-2-1.341 0-1.482.896-3.284 2-4.024 1.105-.742 2-.141 2 1.34zm7-4c0 1.481-.896 3.283-2 4.023-1.105.742-2 .141-2-1.34s.895-3.284 2-4.024c1.104-.742 2-.141 2 1.341z" fill-opacity=".6" fill="#CCE7FC"/><path d="M478.204 278.888l-25.161-14.75c-1.545-.904-1.351-2.485.432-3.531l24.296-14.242c1.783-1.045 4.48-1.16 6.024-.254l25.162 14.75c1.545.905 1.35 2.487-.432 3.532l-24.295 14.243c-1.784 1.045-4.481 1.158-6.026.252z" fill="#C4C4C4"/><path d="M480.615 266.41l-3.47-2.169c-.215-.133-.187-.366.06-.519l3.35-2.095c.246-.154.617-.17.83-.037l3.472 2.169c.212.132.185.366-.06.519l-3.352 2.095c-.246.154-.618.17-.83.037z" fill-opacity=".6" fill="#CCE7FC"/><path d="M453.043 264.46l.07.04c.118-.083.227-.167.362-.244l24.3-13.722c1.783-1.007 4.48-1.118 6.025-.245l25.095 14.172c1.423-.996 1.498-2.354.07-3.16L483.8 247.089c-1.544-.873-4.242-.763-6.025.244l-24.3 13.723c-1.783 1.008-1.977 2.53-.432 3.404z" fill="#BFAFD8"/><path fill="#CFBAFF" d="M474 445.5L439 425l35-20.5 35 20.5z"/><path d="M474 433.5c-.464 0-.926-.12-1.34-.36l-35.317-20.323a2.678 2.678 0 01-1.343-2.318c0-.956.513-1.84 1.343-2.318l35.314-20.323a2.692 2.692 0 012.684 0l35.316 20.323A2.677 2.677 0 01512 410.5c0 .956-.511 1.84-1.343 2.318l-35.314 20.324a2.69 2.69 0 01-1.343.359zm-29.946-23.001L474 427.732l29.946-17.233L474 393.267l-29.946 17.232z" fill="#FFF"/><path fill="#BFAFD8" d="M474 414.5l-35-20.333V353.5l35 20.334z"/><path fill="#FFE9C2" d="M509 394.167L474 414.5v-40.666l35-20.334z"/><path fill="#FFF" d="M474 373.5L439 353l35-20.5 35 20.5zm-12 19l-10-5.666V375.5l10 5.666z"/><path d="M278.023 490.206l-53.794-31.236c-3.302-1.917-2.888-5.265.924-7.478l51.943-30.16c3.813-2.215 9.58-2.455 12.88-.538l53.796 31.236c3.3 1.917 2.887 5.265-.926 7.478l-51.942 30.16c-3.812 2.215-9.58 2.455-12.881.538z" fill="#CFBAFF"/><path d="M283.647 477.5c-2.628 0-5.162-.567-7.144-1.717l-53.749-31.166c-2.385-1.382-3.752-3.53-3.754-5.895 0-2.647 1.705-5.153 4.677-6.876l51.899-30.092c4.801-2.786 11.645-3.018 15.922-.536l53.75 31.166c2.385 1.382 3.752 3.53 3.752 5.893 0 2.647-1.705 5.153-4.678 6.876l-51.897 30.094c-2.576 1.493-5.739 2.253-8.778 2.253zm-4.093-7.027c2.372 1.374 6.957 1.124 9.817-.536l51.898-30.092c1.306-.756 1.62-1.441 1.627-1.57-.02-.036-.194-.287-.7-.583l-53.75-31.165c-2.369-1.373-6.954-1.124-9.817.536l-51.898 30.091c-1.305.757-1.616 1.441-1.624 1.57.018.037.193.29.7.585l53.749 31.164h-.002z" fill="#FFF"/><path d="M345.99 419.488v-18.436l-41.625-.024-14.388-8.25c-3.302-1.893-9.07-1.655-12.882.53l-13.424 7.698-41.663-.023v18.961c-.094 1.282.626 2.518 2.212 3.428l53.802 30.85c3.302 1.894 9.07 1.655 12.882-.531l51.949-29.787c2.2-1.261 3.26-2.895 3.137-4.416z" fill="#BFAFD8"/><path d="M284 391.5c-2.416.058-4.924.662-6.905 1.799l-13.424 7.699-41.663-.023v18.966c-.094 1.282.626 2.519 2.212 3.429l53.802 30.857c1.587.91 3.743 1.322 5.978 1.268V391.5z" fill="#C9F1E8"/><path d="M279 454.611c2.766 1.238 6.766 1.169 10-.119V432.5h-10v22.111z" fill-opacity=".91" fill="#FFF"/><path d="M278.023 435.206L224.23 403.97c-3.302-1.917-2.887-5.265.925-7.479l51.942-30.16c3.812-2.213 9.58-2.454 12.881-.537l53.794 31.235c3.302 1.917 2.888 5.266-.924 7.48l-51.943 30.16c-3.813 2.214-9.58 2.454-12.88.537z" fill="#FFF"/><path d="M342.855 400.836l-51.946 30.16c-3.813 2.212-9.58 2.454-12.883.537l-53.797-31.235c-.737-.428-1.277-.929-1.648-1.47-1.134 1.836-.62 3.827 1.648 5.143l53.797 31.235c3.302 1.917 9.07 1.677 12.883-.537l51.946-30.16c2.962-1.72 3.862-4.122 2.572-6.009-.518.838-1.378 1.643-2.572 2.336z" fill="#FFF"/><path d="M326 424.159c0 1.481-.895 3.283-2 4.024-1.104.74-2 .14-2-1.341 0-1.483.896-3.284 2-4.025 1.105-.74 2-.14 2 1.342zm7-4c0 1.481-.895 3.283-2 4.023-1.104.742-2 .141-2-1.34 0-1.482.896-3.284 2-4.024 1.105-.742 2-.141 2 1.341zm7-4c0 1.481-.896 3.283-2 4.023-1.105.742-2 .141-2-1.34s.895-3.284 2-4.024c1.104-.742 2-.141 2 1.341z" fill-opacity=".6" fill="#CCE7FC"/><path d="M281.204 415.888l-25.161-14.75c-1.545-.904-1.351-2.485.432-3.531l24.296-14.242c1.783-1.045 4.48-1.16 6.024-.254l25.162 14.75c1.545.905 1.35 2.487-.432 3.532l-24.295 14.243c-1.784 1.045-4.481 1.158-6.026.252z" fill="#C4C4C4"/><path d="M283.615 404.41l-3.47-2.169c-.215-.132-.187-.366.06-.519l3.35-2.095c.246-.154.617-.17.83-.037l3.472 2.169c.212.132.185.366-.06.52l-3.352 2.094c-.246.154-.618.17-.83.037z" fill-opacity=".6" fill="#CCE7FC"/><path d="M256.043 401.46l.07.04c.118-.082.227-.166.362-.244l24.3-13.722c1.783-1.007 4.48-1.117 6.025-.245l25.095 14.172c1.423-.996 1.498-2.354.07-3.16L286.8 384.089c-1.544-.873-4.242-.763-6.025.244l-24.3 13.723c-1.783 1.008-1.977 2.53-.432 3.404z" fill="#BFAFD8"/><path fill="#CFBAFF" d="M92 227.5L57 207l35-20.5 35 20.5z"/><path d="M92 214.5c-.463 0-.926-.12-1.341-.36l-35.316-20.324A2.675 2.675 0 0154 191.499c0-.956.513-1.84 1.343-2.318l35.314-20.323a2.692 2.692 0 012.684 0l35.316 20.323a2.672 2.672 0 010 4.635L93.342 214.14a2.683 2.683 0 01-1.341.359zm-29.946-23.001l29.947 17.233 29.945-17.233-29.947-17.232-29.945 17.232z" fill="#FFF"/><path fill="#BFAFD8" d="M92 196.5l-35-20.333V135.5l35 20.334z"/><path fill="#FFE9C2" d="M127 176.167L92 196.5v-40.666l35-20.334z"/><path fill="#FFF" d="M92 155.5L57 135l35-20.5 35 20.5zm-13 19l-10-5.666V157.5l10 5.666z"/></g></svg>