<svg width="374" height="316" xmlns="http://www.w3.org/2000/svg"><g fill="none"><g opacity=".4" fill="#FFF"><path d="M341.837 69.626l-32.11-18.567 32.109-18.564.284.164 31.826 18.402-32.109 18.565zm-29.836-18.567l29.836 17.251 29.836-17.25-29.837-17.25-29.835 17.25z"/><path d="M279.891 69.625L247.782 51.06l32.11-18.565L312 51.059l-32.11 18.566zM250.056 51.06l29.835 17.25 29.837-17.25-29.837-17.25-29.835 17.25z"/><path d="M310.865 87.532l-.284-.164-31.826-18.4L310.864 50.4l32.11 18.567-32.11 18.564zm-29.837-18.565l29.837 17.25 29.835-17.25-29.836-17.25-29.836 17.25z"/><path d="M341.838 105.44l-.284-.164-31.826-18.401 32.11-18.565.283.165 31.826 18.401-32.109 18.565zm-29.837-18.565l29.837 17.25 29.836-17.249-29.837-17.25-29.836 17.249zm-94.054-17.251l-.284-.165-31.826-18.4 32.109-18.565.284.164 31.826 18.401-32.109 18.565zM188.11 51.058l29.837 17.25 29.835-17.249-29.836-17.25-29.836 17.25z"/><path d="M248.92 87.532l-32.11-18.566L248.92 50.4l32.108 18.566-32.109 18.565zm-29.836-18.566l29.835 17.252 29.836-17.25-29.836-17.251-29.835 17.249z"/><path d="M279.893 105.44l-.284-.164-31.827-18.401 32.11-18.565.284.164L312 86.875l-32.108 18.566zm-29.837-18.565l29.837 17.251 29.835-17.251-29.837-17.25-29.835 17.25z"/><path d="M310.866 123.349l-.284-.165-31.826-18.4 32.109-18.566.284.165 31.826 18.4-32.11 18.566zm-29.837-18.566l29.837 17.25 29.836-17.25-29.837-17.25-29.836 17.25z"/><path d="M341.84 141.256l-.284-.164-31.826-18.4 32.108-18.566 32.11 18.566-32.109 18.564zm-29.838-18.565l29.837 17.25 29.836-17.25-29.837-17.25-29.836 17.25zM156.001 69.624l-.283-.165-31.827-18.4 32.11-18.566.283.164 31.826 18.401-32.109 18.566zm-29.837-18.566l29.837 17.25 29.836-17.25L156 33.808l-29.836 17.25z"/><path d="M186.975 87.532l-.284-.165-31.827-18.401 32.11-18.565.284.164 31.826 18.4-32.11 18.567zm-29.837-18.566l29.837 17.25 29.835-17.25-29.837-17.25-29.835 17.25z"/><path d="M217.948 105.44l-.284-.165-31.826-18.4 32.109-18.566 32.109 18.566-32.108 18.564zM188.11 86.873l29.837 17.25 29.834-17.249-29.835-17.251-29.836 17.25z"/><path d="M248.92 123.349l-32.109-18.567 32.108-18.564.284.165 31.826 18.4-32.108 18.566zm-29.836-18.567l29.837 17.251 29.835-17.25-29.837-17.25-29.835 17.25z"/><path d="M279.893 141.256l-.283-.164-31.826-18.4 32.109-18.566.283.164 31.826 18.401-32.109 18.565zm-29.836-18.565l29.836 17.25 29.837-17.25-29.837-17.25-29.836 17.25z"/><path d="M310.867 159.164l-.284-.164-31.826-18.401 32.109-18.566.283.165 31.827 18.401-32.109 18.565zM281.03 140.6l29.837 17.25 29.835-17.25-29.836-17.25-29.836 17.25z"/><path d="M341.84 177.073l-.283-.165-31.827-18.401 32.11-18.565.283.164 31.826 18.4-32.109 18.567zm-29.837-18.566l29.837 17.25 29.836-17.25-29.837-17.25-29.836 17.25zM94.055 69.623l-.283-.165-31.826-18.4 32.108-18.565.284.164 31.826 18.401-32.109 18.565zM64.22 51.057l29.836 17.25 29.836-17.249-29.837-17.25-29.835 17.25z"/><path d="M125.03 87.532L92.92 68.965l32.108-18.564.284.164 31.826 18.4-32.109 18.567zM95.191 68.965l29.837 17.251 29.835-17.25-29.836-17.25-29.836 17.25z"/><path d="M156.003 105.44l-.285-.165-31.826-18.4 32.11-18.566.283.165 31.826 18.4-32.108 18.565zm-29.837-18.566l29.837 17.25 29.835-17.25L156 69.624l-29.835 17.25z"/><path d="M186.975 123.347l-.283-.164-31.826-18.4 32.109-18.567.283.165 31.826 18.401-32.109 18.565zm-29.836-18.565l29.836 17.25 29.836-17.25-29.836-17.25-29.836 17.25z"/><path d="M217.948 141.256l-32.109-18.566 32.109-18.565 32.109 18.566-32.11 18.565zm-29.836-18.566l29.836 17.25 29.836-17.249-29.836-17.252-29.836 17.251z"/><path d="M248.921 159.164l-.283-.165-31.827-18.401 32.11-18.565.283.165L281.03 140.6l-32.109 18.565zm-29.837-18.566l29.837 17.25 29.836-17.249-29.836-17.25-29.837 17.249z"/><path d="M279.894 177.073l-32.11-18.567 32.11-18.564.283.164 31.826 18.4-32.109 18.567zm-29.836-18.567l29.836 17.252 29.836-17.251-29.837-17.25-29.835 17.25z"/><path d="M310.868 194.98l-.283-.165-31.827-18.4 32.11-18.565.283.164 31.826 18.401-32.11 18.565zm-29.837-18.565l29.837 17.25 29.835-17.25-29.836-17.25-29.836 17.25z"/><path d="M341.842 212.888l-.285-.164-31.826-18.4 32.11-18.566.283.164 31.826 18.401-32.108 18.565zm-29.837-18.565l29.837 17.25 29.835-17.25-29.837-17.25-29.835 17.25zM32.11 69.623l-.284-.165L0 51.058l32.11-18.566.283.165 31.826 18.4L32.11 69.623zM2.273 51.057l29.837 17.25 29.836-17.25-29.837-17.25-29.836 17.25z"/><path d="M63.083 87.53l-.283-.164-31.827-18.4L63.083 50.4l.283.164 31.826 18.401L63.083 87.53zM33.246 68.965l29.837 17.25 29.836-17.25-29.837-17.25-29.836 17.25z"/><path d="M94.057 105.438l-.284-.164-31.826-18.4 32.108-18.567 32.11 18.567-32.108 18.564zM64.22 86.873l29.837 17.25 29.835-17.249-29.837-17.251-29.835 17.25z"/><path d="M125.03 123.347l-32.11-18.566 32.109-18.565.283.165 31.827 18.401-32.11 18.565zm-29.837-18.566l29.837 17.252 29.836-17.25-29.837-17.251-29.836 17.249z"/><path d="M156.003 141.256l-.283-.165-31.827-18.401 32.11-18.565.283.164 31.827 18.401-32.11 18.566zm-29.836-18.566l29.836 17.25 29.836-17.25-29.836-17.25-29.836 17.25z"/><path d="M186.975 159.164l-32.109-18.566 32.11-18.565 32.108 18.565-32.109 18.566zm-29.835-18.566l29.835 17.25 29.836-17.25-29.836-17.25-29.835 17.25z"/><path d="M217.95 177.071l-.285-.165-31.826-18.4 32.109-18.566.283.165 31.827 18.401-32.109 18.565zm-29.838-18.565l29.837 17.25 29.836-17.25-29.837-17.25-29.836 17.25z"/><path d="M248.922 194.98l-.283-.165-31.827-18.401 32.11-18.566 32.11 18.567-32.11 18.564zm-29.837-18.566l29.837 17.25 29.836-17.249-29.837-17.251-29.836 17.25z"/><path d="M279.896 212.888l-32.11-18.566 32.108-18.564.284.164 31.827 18.401-32.11 18.565zm-29.837-18.566l29.837 17.252 29.835-17.25-29.837-17.251-29.835 17.249z"/><path d="M310.869 230.796l-.284-.164-31.826-18.401 32.109-18.566.283.165 31.827 18.4-32.11 18.566zm-29.836-18.565l29.836 17.25 29.836-17.25-29.837-17.25-29.835 17.25z"/><path d="M341.842 248.704l-.283-.165-31.827-18.4 32.109-18.565.284.164 31.826 18.4-32.109 18.566zm-29.837-18.565l29.837 17.25 29.836-17.25-29.837-17.25-29.836 17.25zM32.111 105.438l-.284-.164-31.826-18.4 32.11-18.567.283.165L64.22 86.873l-32.109 18.565zM2.274 86.873l29.837 17.25 29.836-17.25-29.837-17.25-29.836 17.25z"/><path d="M63.084 123.347l-.284-.165-31.826-18.401 32.11-18.565.283.164 31.826 18.4-32.109 18.567zM33.248 104.78l29.836 17.251L92.92 104.78 63.083 87.53l-29.835 17.25z"/><path d="M94.057 141.254l-.283-.164-31.826-18.4 32.109-18.566 32.11 18.566-32.11 18.564zM64.221 122.69l29.836 17.25 29.836-17.249-29.836-17.252L64.22 122.69z"/><path d="M125.031 159.163l-.284-.165-31.826-18.4 32.109-18.565.284.164 31.826 18.4-32.109 18.566zm-29.837-18.566l29.837 17.25 29.836-17.25-29.837-17.25-29.836 17.25z"/><path d="M156.004 177.071l-32.11-18.566 32.11-18.565 32.108 18.566-32.108 18.565zm-29.837-18.566l29.837 17.252 29.835-17.25-29.836-17.251-29.836 17.249z"/><path d="M186.976 194.98l-32.108-18.566 32.107-18.566.284.165 31.826 18.401-32.109 18.565zm-29.835-18.566l29.835 17.25 29.836-17.25-29.837-17.25-29.834 17.25z"/><path d="M217.95 212.888l-.284-.165-31.826-18.401 32.11-18.565.283.164 31.826 18.4-32.11 18.567zm-29.837-18.566l29.837 17.25 29.836-17.25-29.837-17.25-29.836 17.25z"/><path d="M248.923 230.795l-.284-.164-31.826-18.401 32.11-18.565 32.11 18.566-32.11 18.564zm-29.836-18.565l29.836 17.25 29.836-17.25-29.837-17.25-29.835 17.25z"/><path d="M279.896 248.703l-.283-.165-31.826-18.4 32.109-18.564.283.164 31.826 18.4-32.109 18.565zm-29.836-18.565l29.836 17.25 29.836-17.25-29.836-17.25-29.836 17.25z"/><path d="M310.87 266.612l-32.11-18.566 32.109-18.565.284.165 31.826 18.401-32.109 18.565zm-29.837-18.566l29.837 17.251 29.835-17.25-29.836-17.251-29.836 17.25z"/><path d="M341.843 284.52l-.283-.164-31.827-18.401 32.11-18.566.283.165 31.826 18.4-32.109 18.566zm-29.837-18.565l29.837 17.25 29.836-17.25-29.837-17.25-29.836 17.25zM32.112 141.254L.002 122.688l32.109-18.564.284.165 31.826 18.4-32.11 18.565zM2.275 122.688l29.837 17.251 29.836-17.25-29.837-17.25-29.836 17.25z"/><path d="M63.085 159.163l-.283-.165-31.827-18.4 32.109-18.566.284.164 31.826 18.401-32.109 18.566zM33.25 140.597l29.836 17.25 29.836-17.25-29.837-17.25-29.835 17.25z"/><path d="M94.059 177.07l-.284-.164-31.826-18.401 32.109-18.566.283.165 31.826 18.401L94.06 177.07zm-29.837-18.565l29.837 17.25 29.835-17.25-29.836-17.25-29.836 17.25z"/><path d="M125.032 194.979l-.284-.165-31.826-18.401 32.11-18.565 32.109 18.566-32.11 18.565zm-29.837-18.566l29.837 17.25 29.836-17.249-29.837-17.251-29.836 17.25z"/><path d="M156.004 212.886l-32.108-18.565 32.108-18.564 32.11 18.565-32.11 18.564zm-29.835-18.565l29.835 17.25 29.836-17.25-29.836-17.25-29.835 17.25z"/><path d="M186.978 230.795l-32.11-18.566 32.108-18.564.284.164 31.827 18.4-32.11 18.566zM157.14 212.23l29.837 17.251 29.835-17.25-29.837-17.25-29.835 17.249z"/><path d="M217.951 248.703l-.284-.165-31.826-18.4 32.109-18.566.283.165 31.827 18.401-32.109 18.565zm-29.836-18.565l29.836 17.25 29.836-17.25-29.837-17.25-29.835 17.25z"/><path d="M248.924 266.611l-.283-.164-31.827-18.401 32.109-18.566.284.165 31.826 18.4-32.109 18.566zm-29.837-18.565l29.837 17.25 29.836-17.25-29.837-17.25-29.836 17.25z"/><path d="M279.898 284.52l-.284-.166-31.826-18.4 32.109-18.565 32.11 18.566-32.11 18.564zm-29.837-18.566l29.837 17.25 29.835-17.25-29.836-17.25-29.836 17.25zM32.113 177.07L.003 158.504l32.109-18.565.284.165 31.826 18.401-32.11 18.565zM2.276 158.504l29.837 17.251 29.836-17.25-29.837-17.25-29.836 17.249z"/><path d="M63.086 194.979l-.283-.165-31.827-18.401 32.11-18.565.283.164 31.826 18.4-32.11 18.567zM33.25 176.413l29.836 17.25 29.836-17.25-29.837-17.25-29.835 17.25z"/><path d="M94.06 212.886l-.284-.164-31.826-18.4 32.109-18.567.283.165 31.827 18.401-32.11 18.565zm-29.837-18.565l29.837 17.25 29.836-17.25-29.837-17.25-29.836 17.25z"/><path d="M125.032 230.795l-32.11-18.566 32.11-18.565 32.109 18.565-32.11 18.566zm-29.836-18.566l29.836 17.25 29.836-17.25-29.836-17.25-29.836 17.25z"/><path d="M156.005 248.702l-.284-.164-31.825-18.401 32.108-18.566 32.11 18.567-32.109 18.564zm-29.836-18.565l29.836 17.25 29.836-17.249-29.837-17.252-29.835 17.25z"/><path d="M186.978 266.611l-32.11-18.566 32.11-18.565.283.165 31.826 18.4-32.109 18.566zm-29.836-18.566l29.836 17.251 29.836-17.25-29.836-17.25-29.836 17.249z"/><path d="M217.952 284.52l-.284-.166-31.827-18.4 32.11-18.565.284.164 31.825 18.4-32.108 18.566zm-29.837-18.566l29.837 17.25 29.835-17.25-29.836-17.25-29.836 17.25zM32.114 212.886l-.284-.165L.004 194.32l32.109-18.565.284.165 31.826 18.401-32.11 18.565zM2.277 194.32l29.837 17.25 29.835-17.249-29.836-17.25L2.277 194.32z"/><path d="M63.087 230.795l-32.11-18.567 32.11-18.564.282.164 31.827 18.401-32.109 18.566zm-29.836-18.567l29.836 17.252 29.836-17.251-29.837-17.25-29.835 17.249z"/><path d="M94.06 248.702l-.283-.164-31.827-18.401 32.11-18.566 32.109 18.566-32.109 18.565zm-29.836-18.565l29.836 17.25 29.836-17.25-29.836-17.25-29.836 17.25z"/><path d="M125.033 266.61l-32.109-18.565 32.108-18.565.284.164 31.826 18.4-32.109 18.566zm-29.836-18.565l29.836 17.25 29.836-17.25-29.837-17.25-29.835 17.25z"/><path d="M156.006 284.518l-.283-.164-31.827-18.4 32.11-18.567 32.11 18.567-32.11 18.564zm-29.837-18.565l29.837 17.25 29.835-17.25-29.836-17.251-29.836 17.251zm-94.054-17.252l-.284-.164L.005 230.136l32.109-18.566 32.11 18.567-32.11 18.564zM2.278 230.136l29.837 17.25 29.835-17.25-29.836-17.25-29.836 17.25z"/><path d="M63.088 266.61l-.284-.165-31.826-18.401 32.11-18.564.283.164 31.826 18.4-32.109 18.565zm-29.836-18.566l29.836 17.25 29.836-17.25-29.837-17.25-29.835 17.25z"/><path d="M94.061 284.518l-32.11-18.566 32.11-18.565 32.108 18.566-32.108 18.565zm-29.836-18.566l29.836 17.251 29.835-17.25-29.835-17.251-29.836 17.25z"/><path d="M32.116 284.517l-.284-.164L.006 265.952l32.109-18.565.284.164 31.826 18.4-32.11 18.566zM2.279 265.952l29.837 17.25 29.835-17.25-29.836-17.25-29.836 17.25z"/></g><g transform="translate(42)"><path d="M274.98 294.922l-74.596-42.95a2.748 2.748 0 01-1.384-2.445 2.748 2.748 0 011.492-2.381l9.384-4.843a2.778 2.778 0 012.639.062l77.103 44.396a2.756 2.756 0 011.382 2.45 2.756 2.756 0 01-1.49 2.385l-6.81 3.504a8.047 8.047 0 01-7.72-.178z" fill="#CFBAFF"/><path d="M278.372 285.83l-62.744-36.643c-5.345-3.09-9.628-11.432-9.628-18.6V53.53c0-7.168 4.314-10.466 9.628-7.36l62.744 36.712c5.345 3.09 9.628 11.431 9.628 18.6v177.034c0 7.13-4.314 10.42-9.628 7.315z" fill="#A28DFB"/><path d="M273.377 288.83l-62.754-36.647c-5.346-3.09-9.623-11.433-9.623-18.602V56.53c0-7.17 4.307-10.468 9.623-7.363l62.754 36.648c5.346 3.09 9.623 11.433 9.623 18.602v177.058c-.038 7.169-4.346 10.46-9.623 7.354z" fill="#616E84"/><path d="M283 104.419v177.046c0 7.177-4.307 10.468-9.623 7.37l-24.607-14.377-7.637-4.465-30.51-17.806c-5.346-3.09-9.623-11.434-9.623-18.61V56.53c0-7.145 4.307-10.467 9.623-7.37l62.754 36.649C278.67 88.914 283 97.28 283 104.419z" fill="#BAC3FB"/><path d="M279 102.52v172.61c0 4.346-3.059 6.117-6.83 3.936L252.276 267.6l-1.735-1.013-.588-.34-4.298-2.483-12.444-7.16-5.165-2.978-2.076-1.198-14.148-8.127c-3.77-2.173-6.822-7.47-6.822-11.816V59.874c0-4.354 3.051-6.117 6.822-3.944l24.843 14.329v.07a11.758 11.758 0 005.358 9.194c2.943 1.678 5.328.317 5.328-3.093v-.078l24.842 14.33c3.748 2.195 6.807 7.484 6.807 11.838z" fill="#F3F6F9"/><ellipse fill="#F1DBB5" transform="rotate(-29.887 243.324 75.81)" cx="243.324" cy="75.81" rx="1.647" ry="2.845"/><path d="M242.505 76.896c-.302-.299-.49-.8-.505-1.346 0-.488.225-.697.5-.439.296.292.482.782.5 1.318 0 .515-.225.71-.495.467z" fill="#FFF" opacity=".1"/><path d="M286.004 126.887c-.551.293-1.004 0-1.004-.691v-7.343c.015-.693.387-1.339 1.004-1.743.552-.286.996 0 .996.691v7.342c-.01.693-.38 1.34-.996 1.744zm0 13c-.551.293-1.004 0-1.004-.684v-7.35c.015-.693.387-1.339 1.004-1.743.552-.286.996 0 .996.691v7.342c-.008.693-.378 1.341-.996 1.744z" fill="#FFE9C2"/><path d="M71.232 277.106L5.984 239.453a4 4 0 01-.01-6.923l67.777-39.367a4 4 0 014.008-.006l68.257 39.39a4 4 0 01.01 6.923l-64.773 37.622a10 10 0 01-10.02.014z" fill="#CFBAFF"/><path d="M75.706 265c-2.184 0-4.288-.465-5.935-1.408L25.117 238.02c-1.982-1.134-3.118-2.897-3.118-4.838 0-2.171 1.416-4.228 3.885-5.642L69 202.85c3.988-2.286 9.675-2.477 13.227-.44l44.654 25.571c1.982 1.134 3.118 2.897 3.118 4.837 0 2.172-1.417 4.228-3.887 5.642l-43.114 24.692c-2.14 1.226-4.768 1.848-7.293 1.848zm-3.413-5.655c1.978 1.132 5.8.925 8.183-.441l43.26-24.796c1.088-.623 1.349-1.187 1.355-1.293-.016-.03-.161-.238-.584-.48l-44.803-25.68c-1.974-1.132-5.795-.926-8.183.442l-43.259 24.795c-1.087.622-1.347 1.186-1.353 1.292.015.032.161.24.583.482l44.802 25.68h-.001z" fill="#FFF"/><path d="M261.925 203.4a6.69 6.69 0 013.075 5.25v5.196c0 1.93-1.384 2.709-3.075 1.732l-41.85-23.975a6.69 6.69 0 01-3.075-5.25v-5.196c0-1.931 1.391-2.71 3.075-1.74l41.85 23.983zm0-85a6.69 6.69 0 013.075 5.25v5.196c0 1.93-1.384 2.709-3.075 1.732l-41.85-23.975a6.69 6.69 0 01-3.075-5.25v-5.196c0-1.931 1.391-2.71 3.075-1.74l41.85 23.983z" fill="#FFE9C2"/><path d="M150.27 173.456c-.345 3.023-3.929 16.071-3.163 20.536s13.016 11.953 13.016 11.953l1.7-7.657-6.784-6.686 1.838-12.67-6.608-5.476z" fill="#FFCEA9"/><path d="M159.725 160.594a5.339 5.339 0 00-6.814 2.074c-1.8 3.008-3.668 13.31-3.829 15.068 0 0 2.527 3.517 6.317 2.93l4.326-20.072z" fill="#EDEDED"/><path d="M173.705 306.072c2.674.752 5.535.406 7.955-.964 1.914.062 12.25-4.403 13.675-.655 1.232 3.285-3.254 6.323-5.65 6.94-5.23 1.272-9.097 3.902-11.202 4.35-1.531.33-3.591.547-4.839-.687-1.531-1.52-1.401-7.025.061-8.984zm-16.798-7.596c2.66.74 5.502.393 7.91-.964 1.913.062 12.25-4.41 13.674-.655 1.232 3.285-3.247 6.323-5.643 6.94-5.237 1.272-9.104 3.902-11.21 4.35-1.53.331-3.59.547-4.838-.695-1.485-1.527-1.355-7.017.107-8.976z" fill="#BFAFD8"/><path d="M156.7 270.136a63.848 63.848 0 012.39-11.428s-.713-9.856-1.065-19.202c-.406-10.611-4.066-19.95-1.18-28.41l32.472 7.28s-1.968 42.29-2.397 47.41a96.396 96.396 0 01-1.462 11.877c-1.485 8.205-3.89 27.761-3.89 27.761-3.437 2.005-7.947.895-7.947.895s.245-24.677.467-30.615c.268-7.218.49-6.67.49-6.67l-1.072-17.992-.704-8.953s-.904 6.57-1.485 12.439c-.513 5.113-1.738 9.747-3.109 19.279-1.187 8.267-3.116 24.862-3.116 24.862-3.438 2.013-8.1.347-8.1.347s-1.218-21.716-.292-28.88z" fill="#FFE9C2"/><path d="M161.447 160.779c2.473.115 4.319.77 4.594 0a31.83 31.83 0 00.567-3.895 27.431 27.431 0 01-.528-1.503c-3.109-1.92-4.089-5.306-4.502-9.254-.697-6.732 2.917-12.624 9.6-13.334 6.287-.655 10.911 3.795 12.144 9.902.666 3.015 1.99 8.714.199 13.673-.996 2.776-2.297 4.974-3.576 5.398a31.438 31.438 0 01-3.72-.332s-.338 1.866-.567 3.085c-.23 1.218-.138 1.835 2.235 3.308 2.374 1.473-3.59 4.496-7.48 4.203-3.89-.293-8.238-2.599-9.425-5.175-1.355-2.822-1.24-6.161.46-6.076z" fill="#FFCEA9"/><path d="M165.03 161.141c-.688 1.728 1.057 3.856 5.705 5.306 4.647 1.45 5.06-.424 5.06-.424s6.815 3.084 9.035 4.688c2.795 1.967 4.027 7.65 4.402 17.243.437 11.105.475 27.577.108 30.422 0 0-5.214 5.229-11.883 4.681-6.669-.547-17.9-6.5-20.619-11.09.07-9.739 1.202-11.32-.36-16.964-3.583-12.84-5.474-18.1-3.728-26.628 1.431-7.033 3.445-7.905 6.201-7.843 2.036.094 4.065.298 6.08.61z" fill="#FFF"/><path d="M215.739 188.926c-5.505-1.288-12.664-1.928-15.106-3.594-5.91-4.033-10.773-8.097-14.356-10.179-4.226-2.46-5.91-1.936-8.192-1.11-2.68.979-2.887 4.18 1.692 8.027 5.42 4.542 9.708 7.303 17.143 11.76 1.944 1.165 23.566 3.2 29.293 3.424 1.531.062 2.695.17 5.65.286 2.956.115 6.378-.463 8.552-1.635 2.175-1.172 2.78-1.944 2.734-2.491-.054-.686-.682-.864-1.738-.44a14.916 14.916 0 01-5.168 1.45s2.358-.771 3.72-1.411a14.811 14.811 0 003.393-2.082c.98-.833.803-2.738-.268-2.314-1.072.425-1.8 1.003-3.829 1.874a14.712 14.712 0 01-3.36.995 27.523 27.523 0 003.827-2.313 6.24 6.24 0 002.297-2.653c.253-.57-.191-1.635-1.454-.956-1.141.601-2.297 1.85-4.67 2.668-1.708.586-2.994.771-2.857.424.138-.347 1.164-.61 2.251-1.75 1.088-1.142 1.417-2.792.766-3.332-.65-.54-.544-.424-1.784.532s-2.641 1.42-4.28 2.907a9.341 9.341 0 01-3.774 2.437c-1.884.648-5.253.694-10.482-.524z" fill="#FFCEA9"/><path d="M175.818 171.683c2.596-2.66 5.65-2.9 10.275.57a293.74 293.74 0 018.27 6.44 10.07 10.07 0 01-2.435 6.994c-2.856 3.501-5.36 2.776-5.36 2.776s-4.471-3.925-7.457-6.647c-2.986-2.722-6.5-6.856-3.293-10.133z" fill="#EDEDED"/><path d="M183.138 141.831s5.78-8.845-6.738-10.65c-9.027-1.295-14.83 4.543-15.496 10.89-.643 6.053 3.062 12.338 5.734 14.836 1.302.47 4.112.772 7.802-.948.146-1.649.203-3.304.169-4.959 0 0-4.395-9.33 8.529-9.169z" fill="#706868"/><path d="M63 219v-61.973l-.128-.073L37 142v61.973l.128.073L63 219zm-.513-61.676v60.787l-24.975-14.435V142.89l24.975 14.435z" fill-opacity=".26" fill="#6507FA"/><path d="M263.02 225.85a4.294 4.294 0 011.98 3.365v5.402c0 1.235-.883 1.736-1.95 1.119l-44.108-25.58a4.318 4.318 0 01-1.942-3.373v-5.401c0-1.243.883-1.736 1.95-1.111l44.07 25.58z" fill="#FFE9C2"/><path d="M267.854 135.74c-15.28.46-18.01 34.104-25.818 36.456-3.53 1.064-4.544-20.128-10.222-19.594-4.654.438-3.096-21.92-6.733-21.599-3.638.321-4.622 15.236-9.058 15.13-6.402-.155-10.023 11.372-10.023 11.372L273 197l-.266-59.23s-1.331-2.138-4.88-2.03z" fill="#FECB1C"/><path d="M241.581 169.54c.783 0 1.42.768 1.42 1.711 0 .945-.637 1.711-1.42 1.711-.784 0-1.42-.766-1.42-1.71s.636-1.711 1.42-1.711z" fill="#A28DFB"/><path d="M252.745 150.548c.783 0 1.42.766 1.42 1.71s-.637 1.711-1.42 1.711c-.784 0-1.42-.767-1.42-1.71 0-.945.636-1.711 1.42-1.711z" fill="#C9F1E8"/><path fill="#D7BFFE" d="M46.718 89.77l-11.256-6.519 10.72-13.156L49 74.622zm77.359-69.6l-17.23-10.332s.647 10.31.647 10.331c0 .021 9.9 3.196 9.9 3.196l6.683-3.196z"/><path d="M43.81 58.198c1.3-.756 2.54-1.197 3.694-1.38 1.72-9.119 8.015-18.802 15.52-23.17 2.258-1.315 4.405-2.017 6.352-2.168 1.025-11.052 8.65-23.614 17.907-29.002C92.119-.336 96.507-.67 99.744 1.054v-.009l.157.092a8.9 8.9 0 01.246.142l10.067 5.994-3.345 2.663c3.003 1.323 4.9 4.718 4.9 9.736 0 9.254-6.445 20.507-14.395 25.134L43.81 83.363C37.84 86.838 33 84.021 33 77.072c0-6.95 4.84-15.4 10.81-18.874z" fill="#D7BFFE"/><path d="M111.77 15.986L88.384 2.038c4.54-2.417 8.64-2.616 11.717-.958v-.008l.158.093c.084.047.167.096.249.146l10.189 6.143-3.386 2.73c2.125.948 3.7 2.936 4.457 5.802z" fill="#D7BFFE"/><path d="M68.326 56.568L51.462 46.383c2.892-5.148 6.875-9.646 11.284-12.266.584-.347 1.16-.65 1.727-.914l21.45 12.909-17.597 10.456z" fill="#F6F4FE"/><path d="M105.615 7.932l-7.39 4.365-13.533-8.156a26.888 26.888 0 013.04-2.108c1.64-.968 3.224-1.635 4.73-2.033l13.153 7.932zM53.738 43.04l13.724 8.157-4.773 5.37-12.458-7.42a40.377 40.377 0 013.507-6.106z" fill-opacity=".5" fill="#D3EBFF"/><path d="M53.77 64.349c1.314-.757 2.567-1.198 3.733-1.38 1.74-9.119 8.101-18.803 15.686-23.17 2.282-1.314 4.451-2.016 6.419-2.167 1.036-11.053 8.74-23.613 18.096-29.001 10.062-5.795 18.219-1.098 18.219 10.49 0 .394-.011.79-.03 1.189 7.358-3.404 13.107.431 13.107 9.125 0 9.253-6.513 20.505-14.548 25.132L53.77 89.512c-6.033 3.474-10.924.658-10.924-6.291 0-6.948 4.891-15.398 10.924-18.872z" fill="#FFE9C2"/><path d="M115.462 20.506c.018-.394.03-.787.03-1.176l-.001-.05c4.092-1.561 7.61-.881 9.817 1.625-2.398-1.937-5.885-2.202-9.846-.399z" fill="#FFF"/><path d="M53.805 64.27c1.317-.754 2.575-1.195 3.745-1.377 1.744-9.107 8.126-18.777 15.735-23.14 2.289-1.312 4.465-2.013 6.439-2.164 1.039-11.037 8.768-23.582 18.153-28.962 6.289-3.605 11.834-3.143 15.123.517-3.35-2.844-8.479-2.953-14.231.345-9.386 5.38-17.115 17.925-18.154 28.963-1.974.15-4.15.852-6.439 2.163-7.609 4.363-13.99 14.034-15.735 23.14-1.17.183-2.428.623-3.745 1.379-6.052 3.47-10.958 11.908-10.958 18.847 0 2.504.645 4.461 1.747 5.79-1.642-1.257-2.639-3.533-2.639-6.653 0-6.939 4.907-15.377 10.959-18.847z" fill="#E6EBFC"/><path d="M117.77 22.48l-4.558 2.109.232-5.005c.016-.351.026-.7.026-1.047 0-4.468-1.353-7.707-3.808-9.121-2.457-1.413-5.947-.962-9.827 1.272-8.344 4.804-15.624 16.499-16.573 26.624l-.239 2.552-2.562.196c-1.574.12-3.298.715-5.124 1.767-6.628 3.815-12.602 12.683-14.205 21.084l-.401 2.103-2.12.331c-.845.133-1.747.471-2.68 1.008-5.09 2.932-9.393 10.361-9.393 16.223 0 2.194.61 3.804 1.674 4.417 1.063.61 2.766.334 4.672-.763l60.64-34.912c7.054-4.061 13.014-14.356 13.014-22.478 0-3.188-.942-5.616-2.586-6.663-.677-.43-1.494-.645-2.417-.645-1.123 0-2.4.317-3.765.949z" fill="#F6F4FE"/><path fill="#E6EBFC" d="M87.154 60.257l-1.23-.99 1.21-1.47zm4.923-20.947l-1.208-1.188-.023 1.23zm-9.159 16.028L81 54.543l3.692-2.894z"/><path d="M86.617 60.163l7.257-4.51c.368-.229.665-.805.664-1.287l-.023-8.866-8.592 5.34.024 8.865c.002.482.301.687.67.458z" fill-opacity=".3" fill="#C4D9FB"/><path d="M90.886 38.186l8.418 5.06c.357.214.068 1.014-.474 1.313l-8.597 4.729-8.597 4.73c-.543.298-.836-.183-.48-.79l8.358-14.287c.361-.617 1.008-.973 1.372-.755z" fill-opacity=".3" fill="#C4D9FB"/><path d="M87.847 60.163l7.258-4.51c.368-.229.666-.805.664-1.287l-.024-8.866-8.591 5.34.024 8.865c.001.482.301.687.67.458z" fill="#FFE9C2"/><path d="M92.117 39.416l8.418 5.06c.357.214.068 1.014-.474 1.312l-8.598 4.73-8.597 4.729c-.542.298-.835-.182-.48-.789l8.36-14.287c.36-.618 1.007-.974 1.37-.755z" fill="#FFE9C2"/><path d="M133.991 209.801v-16.996l-37.933-.021-13.111-7.606c-3.01-1.745-8.266-1.526-11.74.489l-12.233 7.096-37.967-.021v17.48c-.086 1.181.57 2.321 2.017 3.16l49.028 28.44c3.009 1.745 8.265 1.526 11.74-.49l47.34-27.46c2.005-1.163 2.972-2.67 2.86-4.07z" fill="#BFAFD8"/><path d="M78 184c-2.222.053-4.528.611-6.349 1.658l-12.34 7.098-38.303-.021v17.484c-.087 1.181.574 2.322 2.033 3.16l49.463 28.447c1.458.839 3.441 1.22 5.496 1.17V184z" fill="#C9F1E8"/><path d="M26 193.002L21.009 193v17.51c-.1 1.184.661 2.324 2.342 3.165L26 215v-21.998z" fill="#C9F1E8"/><path d="M73 242.227c2.49 1.076 6.09 1.017 9-.104V223h-9v19.227z" fill="#FFF"/><path d="M72.053 224.832l-49.022-28.199c-3.008-1.73-2.631-4.753.843-6.751l47.334-27.23c3.475-1.998 8.73-2.214 11.738-.484l49.023 28.199c3.009 1.73 2.631 4.753-.843 6.752l-47.335 27.227c-3.474 2-8.73 2.216-11.738.486z" fill="#FFF"/><path d="M72.468 219.03L31.69 195.604c-2.503-1.438-2.19-3.949.7-5.61l39.377-22.62c2.89-1.66 7.26-1.841 9.763-.403l40.78 23.427c2.503 1.437 2.19 3.95-.7 5.61l-39.376 22.618c-2.89 1.66-7.262 1.841-9.766.404z" fill="#C4C4C4"/><path d="M116 215.382c0 1.234-.895 2.736-2 3.354-1.105.617-2 .117-2-1.118s.895-2.736 2-3.354c1.105-.617 2-.117 2 1.118zm7-4c0 1.235-.896 2.736-2 3.354-1.105.617-2 .117-2-1.118s.895-2.736 2-3.354c1.104-.617 2-.116 2 1.118zm6-4c0 1.235-.896 2.736-2 3.353-1.105.618-2 .117-2-1.118 0-1.234.895-2.735 2-3.353 1.104-.617 2-.116 2 1.118z" fill-opacity=".6" fill="#CCE7FC"/><path d="M70 229.894c0 .988-.672 1.388-1.5.895-.828-.496-1.5-1.695-1.5-2.683 0-.988.672-1.389 1.5-.894.828.494 1.5 1.694 1.5 2.682zm-5-3c0 .988-.672 1.388-1.5.895-.828-.494-1.5-1.696-1.5-2.684 0-.987.672-1.388 1.5-.893.828.493 1.5 1.694 1.5 2.682zm5 8c0 .988-.672 1.388-1.5.894-.828-.494-1.5-1.694-1.5-2.683 0-.987.672-1.388 1.5-.893.828.494 1.5 1.694 1.5 2.682zm-5-3c0 .988-.672 1.388-1.5.895-.828-.495-1.5-1.695-1.5-2.683 0-.988.672-1.388 1.5-.895.828.495 1.5 1.695 1.5 2.683z" fill="#D3EBFF"/><path d="M133.991 183.801v-16.996l-37.933-.021-13.111-7.606c-3.01-1.745-8.266-1.526-11.74.489l-12.233 7.096-37.967-.021v17.48c-.086 1.181.57 2.321 2.017 3.16l49.028 28.44c3.009 1.745 8.265 1.526 11.74-.49l47.34-27.46c2.005-1.163 2.972-2.67 2.86-4.07z" fill="#BFAFD8"/><path d="M78 158c-2.222.053-4.528.611-6.349 1.658l-12.34 7.098-38.303-.021v17.484c-.087 1.181.574 2.322 2.033 3.16l49.463 28.447c1.458.839 3.441 1.22 5.496 1.17V158z" fill="#C9F1E8"/><path d="M26 167.002L21.009 167v17.51c-.1 1.184.661 2.324 2.342 3.165L26 189v-21.998z" fill="#C9F1E8"/><path d="M73 215.227c2.49 1.076 6.09 1.017 9-.104V196h-9v19.227z" fill="#FFF"/><path d="M72.053 197.832l-49.022-28.199c-3.008-1.73-2.631-4.753.843-6.751l47.334-27.23c3.475-1.998 8.73-2.214 11.738-.484l49.023 28.199c3.009 1.73 2.631 4.753-.843 6.752l-47.335 27.227c-3.474 2-8.73 2.216-11.738.486z" fill="#FFF"/><path d="M72.468 193.03L31.69 169.604c-2.503-1.438-2.19-3.949.7-5.61l39.377-22.62c2.89-1.66 7.26-1.841 9.763-.403l40.78 23.427c2.503 1.437 2.19 3.95-.7 5.61l-39.376 22.618c-2.89 1.66-7.262 1.841-9.766.404z" fill="#C4C4C4"/><path d="M116 187.382c0 1.234-.895 2.736-2 3.354-1.105.617-2 .117-2-1.118s.895-2.736 2-3.354c1.105-.617 2-.117 2 1.118zm7-3c0 1.235-.896 2.736-2 3.354-1.105.617-2 .117-2-1.118s.895-2.736 2-3.354c1.104-.617 2-.116 2 1.118zm6-4c0 1.235-.896 2.736-2 3.353-1.105.618-2 .117-2-1.118 0-1.234.895-2.735 2-3.353 1.104-.617 2-.116 2 1.118z" fill-opacity=".6" fill="#CCE7FC"/><path d="M70 202.894c0 .988-.672 1.388-1.5.895-.828-.496-1.5-1.695-1.5-2.683 0-.988.672-1.389 1.5-.894.828.494 1.5 1.694 1.5 2.682zm-5-2c0 .988-.672 1.388-1.5.895-.828-.494-1.5-1.696-1.5-2.684 0-.987.672-1.388 1.5-.893.828.493 1.5 1.694 1.5 2.682zm5 7c0 .988-.672 1.388-1.5.894-.828-.494-1.5-1.694-1.5-2.683 0-.987.672-1.388 1.5-.893.828.494 1.5 1.694 1.5 2.682zm-5-3c0 .988-.672 1.388-1.5.895-.828-.495-1.5-1.695-1.5-2.683 0-.988.672-1.388 1.5-.895.828.495 1.5 1.695 1.5 2.683z" fill="#D3EBFF"/><path d="M133.991 155.801v-16.996l-37.933-.021-13.111-7.606c-3.01-1.745-8.266-1.526-11.74.489l-12.233 7.096-37.967-.02v17.479c-.086 1.181.57 2.321 2.017 3.16l49.028 28.44c3.009 1.745 8.265 1.526 11.74-.49l47.34-27.46c2.005-1.163 2.972-2.669 2.86-4.07z" fill="#BFAFD8"/><path d="M78 130c-2.222.054-4.528.612-6.349 1.66l-12.34 7.097-38.303-.021v17.483c-.087 1.182.574 2.323 2.033 3.162l49.463 28.445c1.458.838 3.441 1.22 5.496 1.17V130z" fill="#C9F1E8"/><path d="M26 139.002L21.009 139v17.51c-.1 1.184.661 2.324 2.342 3.165L26 161v-21.998z" fill="#C9F1E8"/><path d="M73 188.227c2.49 1.076 6.09 1.017 9-.103V169h-9v19.227z" fill="#FFF"/><path d="M72.053 170.832l-49.022-28.2c-3.008-1.73-2.631-4.752.843-6.75l47.334-27.229c3.475-1.998 8.73-2.215 11.738-.485l49.023 28.199c3.009 1.73 2.631 4.753-.843 6.752l-47.335 27.228c-3.474 1.998-8.73 2.215-11.738.485z" fill="#FFF"/><path d="M131.133 139.151L83.795 166.93c-3.474 2.038-8.73 2.26-11.739.494l-49.025-28.768c-.671-.393-1.165-.855-1.501-1.354-1.034 1.691-.565 3.526 1.501 4.737l49.025 28.769c3.01 1.766 8.265 1.543 11.74-.495l47.337-27.778c2.7-1.584 3.52-3.797 2.345-5.535-.472.771-1.256 1.513-2.345 2.151z" fill="#FFF"/><path d="M116 160.382c0 1.235-.895 2.736-2 3.353-1.105.618-2 .117-2-1.118 0-1.234.895-2.735 2-3.353 1.105-.617 2-.116 2 1.118zm7-3c0 1.234-.896 2.736-2 3.353-1.105.618-2 .117-2-1.118 0-1.234.895-2.736 2-3.353 1.104-.617 2-.117 2 1.118zm6-4c0 1.234-.896 2.736-2 3.354-1.105.617-2 .117-2-1.118s.895-2.736 2-3.354c1.104-.617 2-.117 2 1.118z" fill-opacity=".6" fill="#CCE7FC"/><path d="M74.945 153.46l-22.992-13.014c-1.412-.799-1.235-2.194.396-3.116l22.2-12.566c1.63-.923 4.095-1.024 5.506-.225l22.992 13.015c1.411.799 1.234 2.194-.395 3.116l-22.201 12.567c-1.63.922-4.094 1.023-5.506.224z" fill="#C4C4C4"/><path d="M77.615 142.91l-3.47-2.17c-.214-.132-.188-.365.059-.518l3.35-2.095c.246-.154.62-.17.832-.037l3.47 2.17c.213.133.186.365-.06.518l-3.35 2.095c-.246.154-.619.17-.831.037z" fill-opacity=".6" fill="#CCE7FC"/><path d="M51.953 139.962l.065.038c.107-.077.206-.157.331-.23l22.205-12.96c1.629-.952 4.094-1.055 5.505-.231l22.932 13.384c1.3-.942 1.368-2.223.064-2.983l-22.996-13.424c-1.411-.823-3.876-.72-5.505.231L52.349 136.75c-1.63.95-1.808 2.389-.396 3.213z" fill="#C0B6D0"/><path d="M70 175.894c0 .988-.672 1.388-1.5.894-.828-.494-1.5-1.694-1.5-2.683 0-.986.672-1.388 1.5-.893.828.493 1.5 1.694 1.5 2.682zm-5-3c0 .988-.672 1.388-1.5.894-.828-.494-1.5-1.694-1.5-2.683 0-.987.672-1.388 1.5-.893.828.494 1.5 1.694 1.5 2.682zm5 8c0 .988-.672 1.388-1.5.894-.828-.494-1.5-1.694-1.5-2.683 0-.987.672-1.388 1.5-.893.828.494 1.5 1.694 1.5 2.682zm-5-2c0 .988-.672 1.388-1.5.894-.828-.494-1.5-1.694-1.5-2.683 0-.987.672-1.388 1.5-.893.828.494 1.5 1.693 1.5 2.682z" fill="#D3EBFF"/></g></g></svg>