<svg width="50" height="58" xmlns="http://www.w3.org/2000/svg"><path d="M44.143 0H5.857C2.63 0 0 2.629 0 5.886v38.628C0 47.771 2.629 50.4 5.857 50.4h32.4l-1.514-5.286 3.657 3.4 3.457 3.2L50 57.143V5.886C50 2.629 47.371 0 44.143 0zM33.114 37.314S32.086 36.086 31.23 35c3.742-1.057 5.171-3.4 5.171-3.4a16.33 16.33 0 01-3.286 1.686c-1.428.6-2.8 1-4.143 1.228-2.742.515-5.257.372-7.4-.028a24.001 24.001 0 01-4.2-1.229 16.764 16.764 0 01-2.085-.971c-.086-.057-.172-.086-.257-.143a.395.395 0 01-.115-.086c-.514-.286-.8-.486-.8-.486s1.372 2.286 5 3.372a180.759 180.759 0 01-1.914 2.371c-6.314-.2-8.714-4.343-8.714-4.343 0-9.2 4.114-16.657 4.114-16.657 4.114-3.085 8.029-3 8.029-3l.285.343C15.771 15.143 13.4 17.4 13.4 17.4s.629-.343 1.686-.829c3.057-1.342 5.485-1.714 6.485-1.8.172-.028.315-.057.486-.057a24.175 24.175 0 015.772-.057 23.29 23.29 0 018.6 2.743s-2.258-2.143-7.115-3.629l.4-.457s3.915-.085 8.029 3c0 0 4.114 7.457 4.114 16.657 0 0-2.428 4.143-8.743 4.343zM19.83 23.971c-1.629 0-2.915 1.429-2.915 3.172s1.315 3.171 2.915 3.171c1.628 0 2.914-1.428 2.914-3.171.028-1.743-1.286-3.172-2.914-3.172m10.428 0c-1.628 0-2.914 1.429-2.914 3.172s1.314 3.171 2.914 3.171c1.629 0 2.914-1.428 2.914-3.171 0-1.743-1.285-3.172-2.914-3.172" fill="#FFF"/></svg>