<svg width="292" height="260" xmlns="http://www.w3.org/2000/svg"><g fill="#00C08B" fill-rule="evenodd" opacity=".3"><path d="M220.205 235.961a5.343 5.343 0 01-1.109-5.923l-91.453-91.453-42.182.018L-65.976-12.835l-98.993.043-.044 102.558 96.52 96.52-.034 75.474a5.292 5.292 0 012.584 1.414 5.352 5.352 0 01-.005 7.57 5.351 5.351 0 01-7.568.003 5.355 5.355 0 01.002-7.57 5.303 5.303 0 012.585-1.416l.033-74.479-96.522-96.521.048-105.955 102.39-.044L86.459 136.2l42.182-.018 91.918 91.918c2.107-1.773 5.24-1.693 7.22.288a5.353 5.353 0 01-.005 7.57 5.353 5.353 0 01-7.568.003"/><path d="M203.334 253.564c-1.798-1.799-2.038-4.555-.746-6.626l-90.952-90.952H75.723L-41.14 39.123l-44.888.002-22.13 22.13-.003 57.334 61.021 61.022-.008 104.054a5.3 5.3 0 012.586 1.416 5.355 5.355 0 01-.002 7.575 5.354 5.354 0 01-7.573 0 5.358 5.358 0 01-.001-7.574 5.3 5.3 0 012.586-1.417l.008-103.058-61.022-61.022.003-59.326 23.539-23.538 46.88-.002L76.72 153.582h35.913l91.657 91.658a5.35 5.35 0 016.617 8.323 5.356 5.356 0 01-7.573 0m79.369 3.954a5.347 5.347 0 01-.748-6.622L228.17 197.11l-25.995-.006-86.313-86.313-.01-28.199L97.47 64.21l-36.596-.014L-9.503-6.18a5.347 5.347 0 01-6.613-.75 5.351 5.351 0 01-.008-7.57 5.352 5.352 0 017.571.007 5.346 5.346 0 01.748 6.614l69.672 69.672 36.597.014 19.79 19.79.01 28.199 84.905 84.906 25.995.006 54.49 54.49a5.343 5.343 0 016.612.756 5.349 5.349 0 11-7.563 7.563"/><path d="M42.654 218.275c-2.088-2.088-2.104-5.464-.028-7.54a5.212 5.212 0 012.173-1.283l-.207-62.235-90.029-90.029-29.02-.096a5.227 5.227 0 01-1.401 2.569c-2.076 2.076-5.446 2.064-7.536-.026-2.088-2.088-2.103-5.461-.027-7.537 2.074-2.074 5.447-2.06 7.535.029a5.349 5.349 0 011.42 2.573l30.013.1 91.434 91.434.213 63.037a5.332 5.332 0 012.969 1.495c2.088 2.088 2.101 5.46.027 7.534-2.076 2.076-5.448 2.063-7.536-.025"/><path d="M-14.32 230.084c-2.093-2.092-2.101-5.483-.01-7.573a5.264 5.264 0 012.58-1.41l-.038-43.176-21.758-.02-65.058-65.057-.023-21.396 15.992-15.992 40.798.037L9.476 126.81a5.351 5.351 0 016.62.754 5.353 5.353 0 01.752 6.618l.102.102-1.698 1.698-.102-.102a5.353 5.353 0 01-6.618-.753 5.351 5.351 0 01-.754-6.62l-50.607-50.606-38.807-.037-14.587 14.587.022 19.403 63.65 63.65 23.164.02.04 45.579c.947.217 1.85.681 2.588 1.42a5.35 5.35 0 01.01 7.569 5.351 5.351 0 01-7.571-.008"/></g></svg>