<svg width="50" height="64" xmlns="http://www.w3.org/2000/svg" xmlns:xlink="http://www.w3.org/1999/xlink"><defs><path id="a" d="M0 .149h41.242v26.337H0z"/><path id="c" d="M.096.086h9.39v25.44H.095z"/><path id="e" d="M.27.155h.162v11.674H.27z"/></defs><g fill="none" fill-rule="evenodd"><g transform="translate(.27 36.941)"><mask id="b" fill="#fff"><use xlink:href="#a"/></mask><path d="M0 .167C.129.144.258.15.388.15l4.081.025h.062c.309.002.293-.02.28.296-.025.605-.02 1.21-.023 1.815-.007 1.14.004 2.282-.02 3.423-.034 1.787-.006 3.574-.04 5.361-.033 1.684-.008 3.368-.04 5.052-.031 1.615-.021 3.23-.036 4.845v.186c.001.179.001.179.182.181H35.94c.352 0 .304.047.304-.307l.001-20.48c0-.334-.04-.29.3-.29 1.463-.002 2.927 0 4.39 0h.104c.202 0 .202 0 .203.203v25.717c0 .104-.006.207-.01.31H0V13.45c.059-.073.031-.159.031-.238.005-2.603.008-5.207.011-7.81.002-1.133.004-2.266.002-3.4 0-.075.04-.165-.044-.227V.167z" fill="#002855" mask="url(#b)"/></g><g transform="translate(40.27 .184)"><mask id="d" fill="#fff"><use xlink:href="#c"/></mask><path d="M5.437.086c-.04.167.024.325.05.484.293 1.768.592 3.534.887 5.302.241 1.442.478 2.885.719 4.327.268 1.605.54 3.21.808 4.814.268 1.605.533 3.21.8 4.816.252 1.51.506 3.02.76 4.53.049.288.05.291-.234.339-1.192.2-2.383.397-3.575.595l-1.32.22c-.148.024-.15.024-.173-.114l-.373-2.234-.553-3.312-.56-3.351-.553-3.312-.558-3.331-.554-3.332C.822 5.417.635 4.307.45 3.196.334 2.506.22 1.814.107 1.123.084.98.087.98.23.956 1.82.69 3.412.427 5.002.159c.09-.015.193-.004.27-.073h.165z" fill="#002855" mask="url(#d)"/></g><g transform="translate(0 38.563)"><mask id="f" fill="#fff"><use xlink:href="#e"/></mask><path d="M.27.155c.084.062.045.151.045.227a10741.817 10741.817 0 01-.013 11.209c0 .08.027.165-.032.238V.155z" fill="#FFF" mask="url(#f)"/></g><path d="M43.313 25.994c-.007.067-.06.083-.096.11l-1.239.89-2.849 2.04a.065.065 0 01-.016.013c-.198.14-.153.128-.291-.055-.075-.099-.144-.201-.216-.302L24.608 9.147c-.16-.221-.16-.222.062-.38l3.988-2.857.05-.037c.13-.09.13-.091.22.03.085.116.168.234.252.351l14.034 19.594.1.146m-26.548-8.706l.15.089 2.717 1.64a432429.786 432429.786 0 0118.237 11.02c.154.094.155.096.064.245l-2.61 4.323c-.089.147-.091.148-.25.053l-2.927-1.769-15.362-9.282-2.68-1.62c-.03-.019-.058-.038-.089-.054-.06-.032-.078-.072-.036-.132.023-.034.043-.07.064-.105l2.567-4.253c.025-.042.05-.083.077-.123.015-.021.036-.04.078-.032M8.868 40.121l1.479.146 1.454.14 1.578.155 1.435.136 1.536.15c.478.047.956.09 1.434.137l1.988.194c.478.047.956.09 1.434.136.663.064 1.325.13 1.987.195l1.435.136c.512.049 1.024.102 1.536.151.492.047.985.09 1.476.139.65.062 1.297.128 1.946.192l1.414.134c.533.051 1.066.105 1.598.156.226.022.452.038.677.06.14.013.152.025.139.167-.042.458-.088.916-.134 1.373l-.147 1.496-.194 1.989a4.17 4.17 0 00-.017.246c-.004.084-.037.126-.128.116-.437-.044-.874-.085-1.311-.128l-1.496-.149c-.669-.066-1.338-.132-2.007-.196-.478-.047-.957-.09-1.435-.136l-1.946-.191c-.492-.047-.984-.091-1.476-.14-.648-.062-1.297-.127-1.946-.19-.478-.047-.956-.09-1.434-.137-.526-.051-1.052-.104-1.578-.154l-1.434-.136-1.537-.152c-.47-.045-.943-.088-1.414-.134-.532-.051-1.065-.105-1.598-.156l-1.393-.133-2.028-.198c-.164-.016-.328-.037-.492-.045-.098-.005-.136-.04-.125-.138.02-.164.03-.328.046-.492.063-.635.129-1.27.19-1.906.048-.492.091-.984.138-1.476.04-.417.08-.834.123-1.25.012-.118.016-.117.227-.107M34.849 36.2l-.033.124-1.354 4.797c-.063.22-.064.22-.272.162l-11.59-3.27-11.254-3.178-.733-.206c-.163-.047-.164-.049-.119-.211.178-.635.358-1.269.537-1.903l.814-2.895c.068-.239.068-.24.298-.175 1.954.552 3.909 1.106 5.863 1.657 3.6 1.016 7.2 2.03 10.799 3.047l6.814 1.926c.06.017.12.034.178.052.036.012.056.037.052.073M20.437 54.851h-12.1c-.298 0-.269.03-.269-.26v-4.764c0-.25 0-.25.245-.25h24.282c.035 0 .07.002.103 0 .095-.005.142.035.137.133-.003.041 0 .082 0 .124v4.764c0 .048-.003.096 0 .144.003.08-.035.113-.112.11-.062-.003-.124 0-.186 0h-12.1z" fill="#002855"/></g></svg>