<svg data-name="Layer 2" xmlns="http://www.w3.org/2000/svg" viewBox="0 0 60 64"><path d="M33.07 63.93h-6.41a1 1 0 0 1-1-.82l-2.2-12h-4.8a1 1 0 0 1-1-1.19l2-10.24a4.17 4.17 0 0 1-2.5-4l2.31-12.55a6.68 6.68 0 0 1 6.46-6.06h7.87a6.69 6.69 0 0 1 6.47 6.12L42 35.72a4 4 0 0 1-2 4l2 10.26a1 1 0 0 1-1 1.19h-4.75l-2.2 12a1 1 0 0 1-.98.76zm-5.58-2h4.74l2.2-12a1 1 0 0 1 1-.82h4.44L38 39.26a1 1 0 0 1 .73-1.16 1.91 1.91 0 0 0 1.32-2.1l-1.76-12.49a4.72 4.72 0 0 0-4.49-4.38h-7.88a4.7 4.7 0 0 0-4.48 4.35L19.13 36c-.1.92 1 1.83 1.92 2.06a1 1 0 0 1 .73 1.16l-1.91 9.87h4.44a1 1 0 0 1 1 .82zm26.91-.13H44.09a1 1 0 0 1-1-.93l-.35-5.41a1 1 0 0 1 .93-1.06 1 1 0 0 1 1.06.93L45 59.8h8.44l1.16-18.26a1 1 0 0 1 1-.94h.91a1.09 1.09 0 0 0 .84-.31 1.69 1.69 0 0 0 .3-1.29l-1.59-13.89a4.14 4.14 0 0 0-3.94-3.84h-6.25a3.57 3.57 0 0 0-1.3.25 1 1 0 0 1-.72-1.87 5.78 5.78 0 0 1 2-.38h6.25a6.14 6.14 0 0 1 5.93 5.62l1.59 13.84a3.67 3.67 0 0 1-.77 2.89 3.07 3.07 0 0 1-2.31 1L55.4 60.86a1 1 0 0 1-1 .94zm-38.75 0H5.33a1 1 0 0 1-1-.95l-1-18.25a3.24 3.24 0 0 1-2.44-1.05 3.58 3.58 0 0 1-.8-2.82l1.59-13.84a6.14 6.14 0 0 1 5.93-5.62h6.26a4.65 4.65 0 0 1 1.4.23 1 1 0 1 1-.55 1.92 2.67 2.67 0 0 0-.85-.15H7.61a4.14 4.14 0 0 0-3.94 3.84L2.08 39a1.63 1.63 0 0 0 .3 1.26 1.26 1.26 0 0 0 1 .38h.92a1 1 0 0 1 1 .94l1 18.26h8.43L15 55.4a1 1 0 0 1 1.07-.93 1 1 0 0 1 .93 1.06l-.36 5.34a1 1 0 0 1-.99.93zm-5-46.89A6.38 6.38 0 1 1 17 8.53a6.34 6.34 0 0 1-6.33 6.38zm0-10.76A4.38 4.38 0 1 0 15 8.53a4.35 4.35 0 0 0-4.33-4.38zm38.4 10.72a6.34 6.34 0 1 1 6.35-6.34 6.34 6.34 0 0 1-6.33 6.34zm0-10.67a4.34 4.34 0 1 0 4.35 4.33 4.34 4.34 0 0 0-4.33-4.33zm-19.2 8.53A6.33 6.33 0 1 1 36.2 6.4a6.34 6.34 0 0 1-6.33 6.33zm0-10.66A4.33 4.33 0 1 0 34.2 6.4a4.34 4.34 0 0 0-4.33-4.33z" fill="#fcd692"/><path fill="none" d="M0 0h60v64H0z"/></svg>