<svg data-name="Layer 2" xmlns="http://www.w3.org/2000/svg" viewBox="0 0 64 64"><path d="M43.2 63.93H3.73a3.66 3.66 0 0 1-3.66-3.66V35.73A3.67 3.67 0 0 1 2.2 32.4v-3.07a3.66 3.66 0 0 1 3.67-3.66H15V8a3.67 3.67 0 0 1 3.67-3.67h.6v-.6A3.66 3.66 0 0 1 22.93.07h35.2a3.66 3.66 0 0 1 3.67 3.66v9.47a3.67 3.67 0 0 1 2.13 3.33v16a3.66 3.66 0 0 1-3.66 3.67H44.73v4.74a3.67 3.67 0 0 1 2.14 3.33v16a3.67 3.67 0 0 1-3.67 3.66zM3.73 34.07a1.66 1.66 0 0 0-1.66 1.66v24.54a1.66 1.66 0 0 0 1.66 1.66H43.2a1.66 1.66 0 0 0 1.67-1.66v-16a1.67 1.67 0 0 0-1.67-1.67H24.53a3.67 3.67 0 0 1-3.48-2.51l-1.65-4.88a1.67 1.67 0 0 0-1.59-1.14zm.47-2h13.61a3.66 3.66 0 0 1 3.48 2.5L23 39.45a1.66 1.66 0 0 0 1.58 1.15h18.2V29.33a1.66 1.66 0 0 0-1.66-1.66H5.87a1.66 1.66 0 0 0-1.67 1.66zm40.53 2.13h15.54a1.66 1.66 0 0 0 1.66-1.67v-16a1.66 1.66 0 0 0-1.66-1.66H39.86a3.67 3.67 0 0 1-3.48-2.51.44.44 0 0 1 0-.1L35.3 7.43a1.66 1.66 0 0 0-1.56-1.1H18.67A1.67 1.67 0 0 0 17 8v17.67h24.07a3.66 3.66 0 0 1 3.66 3.66zM38.3 11.77a1.66 1.66 0 0 0 1.56 1.1H59.8V3.73a1.66 1.66 0 0 0-1.67-1.66h-35.2a1.66 1.66 0 0 0-1.66 1.66v.6h12.47a3.67 3.67 0 0 1 3.48 2.51.44.44 0 0 1 0 .1zm18.23 50a1 1 0 0 1-.7-.29l-4.27-4.27a1 1 0 0 1-.22-.33.9.9 0 0 1-.07-.37 1 1 0 0 1 .07-.38 1.26 1.26 0 0 1 .21-.32l4.27-4.27A1 1 0 0 1 57.24 53l-2.56 2.56h2.92a4.33 4.33 0 0 0 4.33-4.33V41.6a1 1 0 0 1 2 0v9.6a6.34 6.34 0 0 1-6.33 6.33h-2.92l2.56 2.56a1 1 0 0 1 0 1.42 1 1 0 0 1-.71.29zM1.07 23.4a1 1 0 0 1-1-1v-9.6A6.34 6.34 0 0 1 6.4 6.47h2.92L6.76 3.91a1 1 0 0 1 0-1.42 1 1 0 0 1 1.41 0l4.27 4.27a1 1 0 0 1 0 1.41l-4.27 4.27A1 1 0 0 1 6.76 11l2.56-2.53H6.4a4.33 4.33 0 0 0-4.33 4.33v9.6a1 1 0 0 1-1 1z" fill="#fcd692"/><path fill="none" d="M0 0h64v64H0z"/></svg>