<svg data-name="Layer 2" xmlns="http://www.w3.org/2000/svg" viewBox="0 0 63 59"><path d="M55.5.5a7.49 7.49 0 0 0-3.62 14.06l-6.33 20a7.2 7.2 0 0 0-1-.08 7.48 7.48 0 0 0-5.23 2.13l-12.1-9.3a7.5 7.5 0 1 0-11 2.84l-6.8 13.61a7.52 7.52 0 1 0 1.85.77L18 31.06a7.38 7.38 0 0 0 2.5.44 7.47 7.47 0 0 0 5.6-2.5L38 38.21A7.38 7.38 0 0 0 37 42a7.5 7.5 0 1 0 10.48-6.88l6.27-19.83a7.76 7.76 0 0 0 1.75.21 7.5 7.5 0 0 0 0-15zM13 51a5.5 5.5 0 1 1-5.5-5.5A5.51 5.51 0 0 1 13 51zm7.5-21.5A5.5 5.5 0 1 1 26 24a5.51 5.51 0 0 1-5.5 5.5zM50 42a5.5 5.5 0 1 1-5.5-5.5A5.51 5.51 0 0 1 50 42zm5.5-28.5A5.5 5.5 0 1 1 61 8a5.51 5.51 0 0 1-5.5 5.5z" fill="#fcd692"/></svg>