<svg width="97" height="384" xmlns="http://www.w3.org/2000/svg"><g fill="#FFF" opacity=".3"><path d="M142.844 57.103l-.431-.25-48.335-27.928L142.842.748l.431.25 48.335 27.928-48.764 28.177zM97.53 28.925l45.314 26.182 45.312-26.18-45.314-26.183L97.53 28.925z"/><path d="M48.766 57.103l-.43-.25L0 28.926 48.765.747l.43.25L97.53 28.925 48.766 57.103zM3.452 28.925l45.314 26.182 45.312-26.182L48.765 2.742 3.452 28.925z"/><path d="M95.806 84.283l-.43-.25L47.04 56.106l48.764-28.178.43.25 48.336 27.928-48.764 28.178zM50.492 56.105l45.314 26.183 45.312-26.183-45.314-26.182-45.312 26.182z"/><path d="M142.845 111.464l-.43-.25-48.336-27.928 48.765-28.18 48.766 28.182-48.765 28.176zM97.531 83.286l45.314 26.182 45.313-26.18-45.314-26.185L97.53 83.286z"/><path d="M48.768 111.464l-.431-.25L0 83.286l48.765-28.18.43.251 48.336 27.929-48.764 28.178zM3.454 83.286l45.314 26.182 45.311-26.182-45.313-26.183L3.454 83.286z"/><path d="M95.807 138.645l-.431-.25-48.335-27.93 48.765-28.177.43.25 48.335 27.928-48.764 28.179zm-45.313-28.18l45.313 26.184 45.312-26.183-45.313-26.183-45.312 26.183z"/><path d="M142.846 165.825l-.43-.25-48.335-27.928 48.764-28.179 48.766 28.18-48.765 28.177zm-45.313-28.178l45.313 26.182 45.312-26.181-45.313-26.184-45.312 26.183z"/><path d="M48.769 165.825L.003 137.645l48.765-28.177.43.25 48.335 27.93-48.764 28.177zm-45.314-28.18L48.77 163.83l45.312-26.182-45.313-26.183-45.313 26.181z"/><path d="M95.809 193.006l-.431-.25-48.335-27.929 48.764-28.178.431.25 48.335 27.928-48.764 28.18zm-45.314-28.179L95.81 191.01l45.312-26.183-45.314-26.182-45.312 26.182z"/><path d="M142.848 220.185l-.43-.249-48.335-27.928 48.764-28.18.43.251 48.336 27.929-48.765 28.177zm-45.313-28.177l45.313 26.182 45.312-26.182-45.313-26.183-45.312 26.183z"/><path d="M48.77 220.185L.004 192.005 48.77 163.83l.43.25 48.336 27.929-48.765 28.177zm-45.313-28.18L48.77 218.19l45.313-26.182-45.314-26.183-45.312 26.18z"/><path d="M95.81 247.367l-.43-.25-48.336-27.93L95.81 191.01l.43.25 48.335 27.928-48.764 28.179zm-45.313-28.18l45.313 26.184 45.312-26.183-45.313-26.182-45.312 26.182z"/><path d="M142.85 274.547l-.43-.25-48.336-27.928 48.764-28.179.43.25 48.336 27.929-48.764 28.178zm-45.313-28.178l45.313 26.182 45.312-26.182-45.314-26.184-45.31 26.184z"/><path d="M48.772 274.546l-.431-.25L.006 246.367 48.77 218.19l.431.25 48.335 27.929-48.764 28.177zM3.458 246.367l45.314 26.183 45.311-26.181-45.313-26.184-45.312 26.182z"/><path d="M95.811 301.728l-48.765-28.18L95.81 245.37l.43.25 48.335 27.928-48.765 28.179zm-45.313-28.18l45.313 26.184 45.313-26.183-45.313-26.182-45.313 26.18z"/><path d="M142.851 328.907l-.43-.25-48.336-27.928 48.765-28.178 48.764 28.178-48.763 28.178zM97.538 300.73l45.313 26.183 45.311-26.183-45.312-26.182-45.312 26.182z"/><path d="M48.773 328.906l-.43-.25L.007 300.729l48.765-28.178 48.766 28.18-48.765 28.176zM3.46 300.728l45.313 26.182 45.312-26.18-45.313-26.185L3.46 300.728z"/><path d="M95.813 356.087l-.431-.25-48.335-27.928 48.764-28.177.431.25 48.336 27.928-48.765 28.177zM50.5 327.909l45.313 26.182 45.312-26.181-45.314-26.182-45.311 26.18z"/><path d="M142.852 383.269l-48.765-28.18 48.765-28.177 48.763 28.179-48.763 28.178zm-45.313-28.18l45.313 26.183 45.311-26.181-45.311-26.184-45.313 26.182z"/><path d="M48.775 383.267l-.43-.25L.008 355.09l48.764-28.178.431.25 48.335 27.928-48.764 28.178zM3.46 355.089l45.314 26.183 45.312-26.183-45.314-26.183L3.461 355.09z"/></g></svg>