<svg width="479" height="549" xmlns="http://www.w3.org/2000/svg" xmlns:xlink="http://www.w3.org/1999/xlink"><defs><linearGradient x1="50%" y1="0%" x2="50%" y2="94.048%" id="c"><stop stop-color="#FFE079" offset="0%"/><stop stop-color="#E572DA" offset="48.203%"/><stop stop-color="#3450DC" offset="100%"/></linearGradient><path id="a" d="M0 0h479v718H0z"/></defs><g transform="translate(0 -102)" fill="none" fill-rule="evenodd"><mask id="b" fill="#fff"><use xlink:href="#a"/></mask><g fill-rule="nonzero" mask="url(#b)"><path d="M.54 299.61L432.01 50.73a25 25 0 0124.963-.01l392.645 226.025c11.966 6.889 16.082 22.173 9.194 34.14a25 25 0 01-9.172 9.18l-387.006 223.32a40 40 0 01-39.997-.007L.54 299.61z" fill="url(#c)" transform="translate(-203 102)"/><g opacity=".4" fill="#FFF"><path d="M327.5 302L297 284.5l30.5-17.5 30.5 17.5-30.5 17.5zm-28.34-17.5l28.34 16.26 28.34-16.26-28.34-16.26-28.34 16.26zM386.5 335l-.27-.155L356 317.499 386.5 300l.269.155L417 317.501 386.5 335zm-28.34-17.5l28.34 16.26 28.34-16.26-28.34-16.26-28.34 16.26z"/><path d="M269.5 302l-.27-.155L239 284.499 269.5 267l.269.155L300 284.5 269.5 302zm-28.34-17.5l28.34 16.26 28.34-16.26-28.34-16.26-28.34 16.26z"/><path d="M298.5 318L268 300.5l30.5-17.5 30.5 17.5-30.5 17.5zm-28.34-17.5l28.34 16.26 28.34-16.26-28.34-16.26-28.34 16.26z"/><path d="M327.5 335l-.269-.155L297 317.5l30.5-17.5.27.155L358 317.5 327.5 335zm-28.34-17.5l28.34 16.26 28.34-16.26-28.34-16.26-28.34 16.26z"/><path d="M357.5 352l-.269-.155L327 334.5l30.5-17.5.27.155L388 334.5 357.5 352zm-28.34-17.5l28.34 16.26 28.34-16.26-28.34-16.26-28.34 16.26z"/><path d="M386.5 369l-.27-.155L356 351.5l30.5-17.5 30.5 17.5-30.5 17.5zm-28.341-17.5l28.341 16.26 28.34-16.26-28.34-16.26-28.341 16.26zM210.5 302l-.269-.155L180 284.5l30.5-17.5.269.155L241 284.5 210.5 302zm-28.34-17.5l28.34 16.26 28.34-16.26-28.34-16.26-28.34 16.26z"/><path d="M239.5 318l-.269-.155L209 300.5l30.5-17.5.27.155L270 300.5 239.5 318zm-28.34-17.5l28.34 16.26 28.34-16.26-28.34-16.26-28.34 16.26z"/><path d="M269.5 335l-.269-.155L239 317.5l30.5-17.5 30.5 17.5-30.5 17.5zm-28.34-17.5l28.34 16.26 28.34-16.26-28.34-16.26-28.34 16.26z"/><path d="M298.5 352L268 334.5l30.5-17.5.269.155L329 334.5 298.5 352zm-28.34-17.5l28.34 16.26 28.34-16.26-28.34-16.26-28.34 16.26z"/><path d="M327.5 369l-.269-.155L297 351.5l30.5-17.5.27.155L358 351.5 327.5 369zm-28.34-17.5l28.34 16.26 28.341-16.26-28.341-16.26-28.34 16.26z"/><path d="M357.5 386l-.27-.155L327 368.5l30.5-17.5.269.155L388 368.5 357.5 386zm-28.34-17.5l28.34 16.26 28.34-16.26-28.34-16.26-28.34 16.26z"/><path d="M386.5 403l-.269-.155L356 385.5l30.5-17.5.269.155L417 385.5 386.5 403zm-28.34-17.5l28.34 16.26 28.34-16.26-28.34-16.26-28.34 16.26zM152.5 302l-.27-.155L122 284.5l30.5-17.5.27.155L183 284.5 152.5 302zm-28.34-17.5l28.34 16.26 28.34-16.26-28.34-16.26-28.34 16.26z"/><path d="M181.5 318L151 300.5l30.5-17.5.269.155L212 300.5 181.5 318zm-28.34-17.5l28.34 16.26 28.34-16.26-28.34-16.26-28.34 16.26z"/><path d="M210.5 335l-.27-.155L180 317.5l30.5-17.5.269.155L241 317.5 210.5 335zm-28.34-17.5l28.34 16.26 28.34-16.26-28.34-16.26-28.34 16.26z"/><path d="M239.5 352l-.27-.155L209 334.5l30.5-17.5.27.155L270 334.5 239.5 352zm-28.34-17.5l28.34 16.26 28.34-16.26-28.34-16.26-28.34 16.26z"/><path d="M269.5 369L239 351.5l30.5-17.5 30.5 17.5-30.5 17.5zm-28.34-17.5l28.34 16.26 28.34-16.26-28.34-16.26-28.34 16.26z"/><path d="M298.5 386l-.269-.155L268 368.5l30.5-17.5.269.155L329 368.501 298.5 386zm-28.34-17.5l28.34 16.26 28.34-16.26-28.34-16.26-28.34 16.26z"/><path d="M327.5 403L297 385.5l30.5-17.5.27.155L358 385.5 327.5 403zm-28.34-17.5l28.34 16.26 28.34-16.26-28.34-16.26-28.34 16.26z"/><path d="M357.5 420l-.269-.155L327 402.5l30.5-17.5.27.155L388 402.5 357.5 420zm-28.34-17.5l28.34 16.26 28.34-16.26-28.34-16.26-28.34 16.26z"/><path d="M386.5 437l-.27-.155L356 419.5l30.5-17.5.269.155L417 419.5 386.5 437zm-28.34-17.5l28.34 16.26 28.34-16.26-28.34-16.26-28.34 16.26zM152.5 335l-.269-.155L122 317.5l30.5-17.5 30.5 17.501L152.5 335zm-28.34-17.5l28.34 16.26 28.34-16.259-28.34-16.261-28.34 16.26z"/><path d="M181.5 352L151 334.5l30.5-17.5.269.155L212 334.5 181.5 352zm-28.34-17.5l28.34 16.26 28.34-16.26-28.34-16.26-28.34 16.26z"/><path d="M210.5 369l-.27-.155L180 351.5l30.5-17.5.27.155L241 351.5 210.5 369zm-28.34-17.5l28.34 16.26 28.34-16.26-28.34-16.26-28.34 16.26z"/><path d="M239.5 386L209 368.5l30.5-17.5 30.5 17.5-30.5 17.5zm-28.34-17.5l28.34 16.26 28.34-16.26-28.34-16.26-28.34 16.26z"/><path d="M269.5 403l-.27-.155L239 385.5l30.5-17.5.269.155L300 385.5 269.5 403zm-28.34-17.5l28.34 16.26 28.34-16.26-28.34-16.26-28.34 16.26z"/><path d="M298.5 420l-.269-.155L268 402.5l30.5-17.5 30.5 17.501L298.5 420zm-28.34-17.5l28.34 16.26 28.34-16.259-28.34-16.261-28.34 16.26z"/><path d="M327.5 437L297 419.499 327.5 402l.269.155L358 419.5 327.5 437zm-28.34-17.501l28.34 16.262 28.34-16.261-28.34-16.26-28.34 16.259z"/><path d="M357.5 454l-.269-.155L327 436.5l30.5-17.5.269.155L388 436.5 357.5 454zm-28.34-17.5l28.34 16.26 28.34-16.26-28.34-16.26-28.34 16.26z"/><path d="M386.5 471l-.269-.155L356 453.5l30.5-17.5.269.155L417 453.5 386.5 471zm-28.34-17.5l28.34 16.26 28.34-16.26-28.34-16.26-28.34 16.26zM93.5 335l-.27-.155L63 317.5 93.5 300l.269.155L124 317.5 93.5 335zm-28.34-17.5l28.34 16.26 28.34-16.26-28.34-16.26-28.34 16.26z"/><path d="M122.5 352l-.269-.155L92 334.5l30.5-17.5.27.155L153 334.5 122.5 352zm-28.34-17.5l28.34 16.26 28.34-16.26-28.34-16.26-28.34 16.26z"/><path d="M152.5 369l-.27-.155L122 351.5l30.5-17.5 30.5 17.5-30.5 17.5zm-28.34-17.5l28.34 16.26 28.34-16.26-28.34-16.26-28.34 16.26z"/><path d="M181.5 386l-.27-.155L151 368.499 181.5 351l.269.155L212 368.5 181.5 386zm-28.34-17.5l28.34 16.26 28.34-16.26-28.34-16.26-28.34 16.26z"/><path d="M210.501 403L180 385.5l30.5-17.5 30.5 17.5-30.499 17.5zm-28.342-17.5l28.342 16.26 28.34-16.26-28.341-16.26-28.34 16.26z"/><path d="M239.5 420L209 402.5l30.499-17.5.27.155L270 402.5 239.5 420zm-28.34-17.5l28.34 16.26 28.34-16.26-28.341-16.26-28.34 16.26z"/><path d="M269.5 437l-.269-.155L239 419.5l30.5-17.5.27.155L300 419.5 269.5 437zm-28.34-17.5l28.34 16.26 28.34-16.26-28.34-16.26-28.34 16.26z"/><path d="M298.5 454l-.27-.155L268 436.5l30.5-17.5 30.5 17.5-30.5 17.5zm-28.34-17.5l28.34 16.26 28.34-16.26-28.34-16.26-28.34 16.26z"/><path d="M327.5 471l-.27-.155L297 453.5l30.5-17.5.27.155L358 453.5 327.5 471zm-28.34-17.5l28.34 16.26 28.34-16.26-28.34-16.26-28.34 16.26z"/><path d="M357.5 488L327 470.5l30.5-17.5.27.155L388 470.5 357.5 488zm-28.34-17.5l28.34 16.26 28.34-16.26-28.34-16.26-28.34 16.26z"/><path d="M386.5 504l-.269-.155L356 486.5l30.5-17.5.269.155L417 486.5 386.5 504zm-28.34-17.5l28.34 16.26 28.34-16.26-28.34-16.26-28.34 16.26zM298.5 521l-.27-.155L268 503.5l30.5-17.5 30.5 17.5-30.5 17.5zm-28.34-17.5l28.34 16.26 28.34-16.26-28.34-16.26-28.34 16.26z"/><path d="M240.5 521l-.269-.155L210 503.5l30.5-17.5.27.155L271 503.5 240.5 521zm-28.34-17.5l28.34 16.26 28.34-16.26-28.34-16.26-28.34 16.26z"/><path d="M181.5 521l-.269-.155L151 503.5l30.5-17.5 30.5 17.5-30.5 17.5zm-28.34-17.5l28.34 16.26 28.34-16.26-28.34-16.26-28.34 16.26zM93.5 369L63 351.5 93.5 334l.269.155L124 351.5 93.5 369zm-28.34-17.5l28.34 16.26 28.34-16.26-28.34-16.26-28.34 16.26z"/><path d="M122.5 386l-.269-.155L92 368.5l30.5-17.5.27.155L153 368.5 122.5 386zm-28.34-17.5l28.34 16.26 28.34-16.26-28.34-16.26-28.34 16.26z"/><path d="M152.5 403l-.27-.155L122 385.5l30.5-17.5.269.155L183 385.5 152.5 403zm-28.34-17.5l28.34 16.26 28.34-16.26-28.34-16.26-28.34 16.26z"/><path d="M181.5 420l-.269-.155L151 402.5l30.5-17.5 30.5 17.5-30.5 17.5zm-28.34-17.5l28.34 16.26 28.34-16.26-28.34-16.26-28.34 16.26z"/><path d="M210.5 437L180 419.5l30.5-17.5 30.5 17.5-30.5 17.5zm-28.34-17.5l28.34 16.26 28.34-16.26-28.34-16.26-28.34 16.26z"/><path d="M239.5 454L209 436.5l30.5-17.5.269.155L270 436.5 239.5 454zm-28.34-17.5l28.34 16.26 28.34-16.26-28.34-16.26-28.34 16.26z"/><path d="M269.5 471l-.269-.155L239 453.5l30.5-17.5.269.155L300 453.5 269.5 471zm-28.34-17.5l28.34 16.26 28.34-16.26-28.34-16.26-28.34 16.26z"/><path d="M298.5 488l-.269-.155L268 470.5l30.5-17.5.27.155L329 470.5 298.5 488zm-28.34-17.5l28.34 16.26 28.34-16.26-28.34-16.26-28.34 16.26z"/><path d="M327.5 504l-.27-.155L297 486.5l30.5-17.5 30.5 17.5-30.5 17.5zm-28.34-17.5l28.34 16.26 28.34-16.26-28.34-16.26-28.34 16.26z"/><path d="M327.5 538l-.27-.155L297 520.5l30.5-17.5 30.5 17.5-30.5 17.5zm-28.34-17.5l28.34 16.26 28.34-16.26-28.34-16.26-28.34 16.26z"/><path d="M269.5 538l-.269-.155L239 520.5l30.5-17.5.27.155L300 520.5 269.5 538zm-28.34-17.5l28.34 16.26 28.34-16.26-28.34-16.26-28.34 16.26z"/><path d="M269.5 572l-.269-.155L239 554.5l30.5-17.5.27.155L300 554.5 269.5 572zm-28.34-17.5l28.34 16.26 28.34-16.26-28.34-16.26-28.34 16.26z"/><path d="M210.5 572l-.269-.155L180 554.5l30.5-17.5 30.5 17.5-30.5 17.5zm-28.34-17.5l28.34 16.26 28.34-16.26-28.34-16.26-28.34 16.26z"/><path d="M210.5 538l-.269-.155L180 520.5l30.5-17.5 30.5 17.5-30.5 17.5zm-28.34-17.5l28.34 16.26 28.34-16.26-28.34-16.26-28.34 16.26z"/><path d="M152.5 538L122 520.5l30.5-17.5 30.5 17.5-30.5 17.5zm-28.34-17.5l28.34 16.26 28.34-16.26-28.34-16.26-28.34 16.26zM93.5 403L63 385.5 93.5 368l.269.155L124 385.5 93.5 403zm-28.34-17.5l28.34 16.26 28.34-16.26-28.34-16.26-28.34 16.26z"/><path d="M122.5 420l-.268-.155L92 402.5l30.5-17.5.27.155L153 402.5 122.5 420zm-28.34-17.5l28.34 16.26 28.34-16.26-28.34-16.26-28.34 16.26z"/><path d="M152.5 437l-.269-.155L122 419.5l30.5-17.5.269.155L183 419.5 152.5 437zm-28.34-17.5l28.34 16.26 28.34-16.26-28.34-16.26-28.34 16.26z"/><path d="M181.5 454L151 436.5l30.5-17.5 30.5 17.5-30.5 17.5zm-28.34-17.5l28.34 16.26 28.34-16.26-28.34-16.26-28.34 16.26z"/><path d="M210.5 471l-.27-.155L180 453.5l30.5-17.5 30.5 17.501L210.5 471zm-28.34-17.5l28.34 16.26 28.34-16.259-28.34-16.261-28.34 16.26z"/><path d="M239.5 488L209 470.5l30.5-17.5.27.155L270 470.5 239.5 488zm-28.34-17.5l28.34 16.26 28.34-16.26-28.34-16.26-28.34 16.26zM240.5 555L210 537.5l30.5-17.5.27.155L271 537.5 240.5 555zm-28.34-17.5l28.34 16.26 28.34-16.26-28.34-16.26-28.34 16.26z"/><path d="M269.5 504l-.269-.155L239 486.5l30.5-17.5.27.155L300 486.5 269.5 504zm-28.34-17.5l28.34 16.26 28.34-16.26-28.34-16.26-28.34 16.26zM93.5 437l-.269-.155L63 419.499 93.5 402l.27.155L124 419.501 93.5 437zm-28.34-17.5l28.34 16.26 28.34-16.26-28.34-16.26-28.34 16.26z"/><path d="M122.5 454L92 436.499 122.5 419l.269.155L153 436.5 122.5 454zm-28.34-17.501l28.34 16.261 28.34-16.26-28.34-16.26-28.34 16.259z"/><path d="M152.5 471l-.269-.155L122 453.5l30.5-17.5 30.5 17.5-30.5 17.5zm-28.34-17.5l28.34 16.26 28.34-16.26-28.34-16.26-28.34 16.26z"/><path d="M181.5 488L151 470.5l30.499-17.5.27.155L212 470.5 181.5 488zm-28.34-17.5l28.34 16.26 28.34-16.26-28.341-16.26-28.34 16.26z"/><path d="M210.5 504l-.269-.155L180 486.5l30.5-17.5 30.5 17.5-30.5 17.5zm-28.34-17.5l28.34 16.26 28.34-16.26-28.34-16.26-28.34 16.26zM93.5 471l-.269-.155L63 453.5 93.5 436l30.5 17.5L93.5 471zm-28.34-17.5l28.34 16.26 28.34-16.26-28.34-16.26-28.34 16.26z"/><path d="M122.5 488l-.27-.155L92 470.5l30.5-17.5.269.155L153 470.5 122.5 488zm-28.34-17.5l28.34 16.26 28.34-16.26-28.34-16.26-28.34 16.26z"/><path d="M152.5 504L122 486.5l30.5-17.5 30.5 17.5-30.5 17.5zm-28.34-17.5l28.34 16.26 28.34-16.26-28.34-16.26-28.34 16.26z"/><path d="M93.5 504l-.269-.155L63 486.5 93.5 469l.27.155L124 486.5 93.5 504zm-28.34-17.5l28.34 16.26 28.34-16.26-28.34-16.26-28.34 16.26z"/></g><path fill="#F4F4F4" opacity=".9" d="M315.23 328.93l-.38 134.73-75.59 43.92.38-134.72z"/><path fill="#FFF" opacity=".9" d="M239.64 372.86l-.38 134.72-76.09-43.92.38-134.73z"/><path fill="#FFF" d="M315.23 328.93l-75.59 43.93-76.09-43.93L239.14 285z"/><path fill="#C9F1E8" d="M183.16 387.84l-.04 13.97-12.15-7.02.04-13.96zm.06-19.43l-.04 13.96-12.15-7.01.04-13.96zm.05-19.43l-.04 13.97-12.14-7.02.03-13.97z"/><path fill="#F1BAE8" d="M232.26 435.65l-.04 13.97-43.6-25.17.04-13.97zm.05-19.43l-.04 13.97-43.59-25.17.04-13.97zm.06-19.43l-.04 13.96-43.6-25.17.04-13.96zm.05-19.44l-.04 13.97-43.59-25.17.04-13.96z"/><path fill="#C9F1E8" d="M183.05 426.7l-.04 13.97-12.15-7.02.04-13.96zm.06-19.43l-.04 13.97-12.15-7.01.04-13.97z"/><path fill="#F1BAE8" d="M232.2 455.08l-.04 13.97-43.59-25.17.04-13.97z"/><path fill="#FBE2B7" d="M258.83 389.92l.04 13.97-12.16 7.02-.04-13.97zm-.06-19.43l.04 13.97-12.15 7.02-.04-13.97z"/><path fill="#D6C8FA" d="M308.14 419.85l.04 13.96-43.6 25.17-.04-13.96zm-.06-19.44l.04 13.97-43.59 25.17-.04-13.97zm-.05-19.42l.04 13.96-43.6 25.17-.04-13.97zm-.06-19.44l.04 13.97-43.59 25.17-.04-13.97zm-.05-19.43l.04 13.96-43.6 25.18-.04-13.97z"/><path fill="#FBE2B7" d="M258.99 448.22l.04 13.96-12.15 7.02-.04-13.96zm-.05-19.44l.04 13.97-12.16 7.02-.04-13.97zm-.06-19.42l.04 13.96-12.15 7.02-.04-13.96z"/><path fill="#E8E8E8" d="M314.88 452.79l-.03 10.86-75.59 43.93.02-11.12z"/><path fill="#F4F1F1" d="M239.28 496.46l-.03 11.12-76.08-43.92.03-11.13z"/><path d="M238.79 330.71c.286.02.574.02.86 0l4.32 2.5c-3.09.94-6.39.94-9.48 0l4.3-2.5zM220 314.88c11-5.33 27.18-5.33 38.26 0l-3.9 2.26c-8.91-4.1-21.58-4.1-30.43 0l-3.93-2.26z" fill="#FED893"/><path d="M226.67 318.73a33.19 33.19 0 0124.93 0l-3.93 2.29a24.52 24.52 0 00-17 0l-4-2.29zm7.76 4.47a16.32 16.32 0 019.49 0l-4.25 2.5h-.88l-4.36-2.5zm9.1 5.26a2.09 2.09 0 000-.5l4.3-2.5a3.72 3.72 0 010 5.49l-4.3-2.49zm8.14 4.74c3.5-3 3.49-6.92 0-9.88l3.93-2.28c5.63 4.24 5.66 10.2.08 14.44l-4.01-2.28zm-24.92-9.93c-3.5 3-3.47 6.92.07 9.88l-3.94 2.28c-5.63-4.24-5.66-10.2-.08-14.44l3.95 2.28z" fill="#FED893"/><path d="M258.37 337.03c7-5.14 7-12.49-.1-17.63l3.9-2.27c9.22 6.4 9.28 15.76.12 22.16l-3.92-2.26zm-34.32 2.25c8.9 4.09 21.59 4.09 30.43 0l3.92 2.27c-11 5.32-27.17 5.32-38.24 0l3.89-2.27zm-4.01-19.88c-7 5.13-7 12.48.1 17.63l-3.89 2.26c-9.24-6.4-9.29-15.76-.13-22.16l3.92 2.27z" fill="#FED893"/><path d="M230.72 335.4a24.52 24.52 0 0017 0l4 2.29a33.12 33.12 0 01-24.94 0l3.94-2.29zm4.15-7.44a1.68 1.68 0 000 .5l-4.3 2.5a3.71 3.71 0 010-5.5l4.3 2.5z" fill="#FED893"/><path d="M359.03 305.027c.796-1.355 6.885-2.243 8.886 3.202.759 2.07.646 7.348 1.282 10.67.636 3.32 2.13 5.196 2.668 7.889.538 2.693-.339 7.217-6.459 8.04-6.12.824-10.865-1.479-12.312-3.543-1.446-2.065-1.482-6.464.026-8.827 1.508-2.362 2.652-4.28 2.616-7.353l3.294-10.078z" fill="#3A2C6D"/><path d="M351.408 328.54s-1.544 10.786 1.375 18.485c2.919 7.7 2.116-1.979 2.116-1.979l-.704-2.289s-.588-8.84-.346-11.015c.242-2.175.187-4.024.346-4.198.16-.174-.582-.516-.89-.544-.308-.027-1.897 1.54-1.897 1.54z" fill="#FFCEA9"/><path d="M363 304.385s-4.795-1.449-7.702 1.274c-1.955 1.89-2.745 4.768-2.05 7.462.387 1.59 1.165 3.76 2.366 3.878 1.202.119 7.386-12.614 7.386-12.614z" fill="#3A2C6D"/><path d="M364.573 317s-.302 5.429-.208 5.803c.094.375 2.035.782 2.577 1.254.541.472-2.817 5.972-4.53 6.77-1.712.798-7.006-1.265-7.37-4.012-.344-2.53 1.515-4.495 2.228-5.179a9.4 9.4 0 011.463-.038l.156-2.622c2.316-.77 5.684-1.976 5.684-1.976z" fill="#FFCEA9"/><path d="M366.177 323.75c1.5.234 3.215 1.05 3.445 1.882.279.973.868 5.55-.428 9.036-1.297 3.485-2.17 5.703-2.92 7.203 0 0-6.483 2.827-11.712-.467 0 0-.365-3.735-.386-5.736-4.822-4.273-.702-9.542 3.391-13.635.49-.044.984-.044 1.474 0 0 0-3.649 4.349-1.115 6.866 5.433-1.685 6.51-4.159 8.251-5.148z" fill="#F4F4F4"/><path d="M355.253 310.703c.484-3.36 2.723-5.896 5.921-5.691 1.637.098 3.17.899 4.26 2.223 1.091 1.325 1.65 3.066 1.556 4.839-.115 2.068-1.118 3.96-2.71 5.109a7.319 7.319 0 01-.484 1.47c-1.139 1.428-4.143 2.336-5.137 2.347-.857 0-1.599-.856-2.422-2.3-1.677-3.003-1.25-6.337-.984-7.997z" fill="#FFCEA9"/><path d="M362.665 305.175c2.236.506 4.071 1.229 4.68 3.758.415 1.74.966 5.053.44 6.454l-.32 1.006-2.709 1.607s-1.26-1.212-.87-4.764a2.84 2.84 0 00-.38-1.345 4.42 4.42 0 01-.373-1.073c-.321-.959-.948-1.74-1.753-2.185-2.019-1.3-4.97-.178-5.38.295 1.17-2.91 3.952-4.476 6.665-3.753z" fill="#3A2C6D"/><path d="M368.805 348.4c.54-3.403 1.622-5.613 1.125-7.482a66.76 66.76 0 00-4.262-11.025c-1.081-2.1-.773-3.59.373-4.426 1.293-.94 2.526-.525 3.689 1.817 1.46 2.95 3.11 5.98 3.91 10.374.394 2.131.6 4.2-.109 8.578-.497 3.061-1.498 4.778-2.704 7.65-.33.782-2.53-2.6-2.022-5.487z" fill="#FFCEA9"/><path d="M366.276 413c-1.198 1.025-3.072.317-3.153.413-1.224 1.282-3.042 2.398-4.398 3.514-.748.617-1.91 1.443-1.7 2.624.379 2.119 3.614 1.47 4.833.82 1.218-.649 2.217-1.722 3.374-2.473.82-.536 1.633-.815 1.761-1.904.077-.66-.507-3.015-.717-2.994z" fill="#38226D"/><path d="M366.98 416c-.16.986-.961 1.222-1.784 1.71-1.178.705-2.216 1.715-3.44 2.311-1.136.547-3.959 1.094-4.756-.295.432 1.877 3.625 1.286 4.838.7 1.214-.587 2.227-1.582 3.389-2.272.822-.493 1.64-.75 1.768-1.75a1.89 1.89 0 00-.015-.404z" fill="#9C73FF"/><path d="M358.301 411c-1.078.882-2.71.388-2.791.469-1.099 1.104-2.731 2.052-3.95 3.024-.676.535-1.729 1.24-1.537 2.264.343 1.82 3.255 1.26 4.358.7 1.104-.56 2.016-1.482 3.023-2.127.741-.459 1.472-.7 1.587-1.638.086-.58-.498-2.712-.69-2.692z" fill="#38226D"/><path d="M358.991 414c-.146.958-.87 1.221-1.608 1.71-1.062.706-2.023 1.717-3.1 2.309-1.011.538-3.54 1.076-4.283-.29.39 1.872 3.267 1.285 4.36.694 1.092-.592 2.022-1.582 3.033-2.27.744-.49 1.477-.749 1.593-1.75a1.81 1.81 0 00.005-.403z" fill="#9C73FF"/><path d="M351.506 353.534C352.029 349.243 353.6 343 353.6 343c1.48.703 3.08 1.106 4.711 1.186 2.728.143 7.094-.702 7.094-.702a42.293 42.293 0 002.492 3.919c1.22 1.717 3.586 5.487 3.016 12.065-.377 4.302-2.749 22.562-2.749 22.562a34.815 34.815 0 011.46 9.508c-.025 2.658-.711 7.168-1.486 11.342l-1.414 10.364s-1.884 1.382-3.224.409l.167-10.146c-.162-2.483-.408-6.147-.56-8.508-.257-3.807-.927-9.858-1.12-11.368-.194-1.51-.67-4.148-.9-7.11a8346.29 8346.29 0 01-1.325-17.989l-.152 2.819s-.142 4.567-.79 10.209c-.65 5.642-.875 8.141-.875 8.141s1.126 2.095 1.267 3.643c.115 1.217 1.487 10.858.665 15.76l-1.68 12.47a3.183 3.183 0 01-2.906.388l-.99-12.565a5113.59 5113.59 0 00-2.287-16.24c-.283-1.733-.524-2.59-.838-8.04-.314-5.45-.21-17.287.33-21.583z" fill="#FFCEA9"/><path d="M365.018 341.567l3.608 7.412s5.47 8.228-.196 29.37l1.036 6.507s-10.732 7.074-17.913 0c0 0-2.49-19.537-1.165-28.549A105.61 105.61 0 01353.734 341s1.758 1.996 10.825.678" fill="#FFBEF4"/><path d="M372 331.731s-2.47 2.56-5.4 2.241l-1.405-4.982s-.915-2.608 1.222-3.726c2.137-1.118 4.356 1.363 5.583 6.467zm-15-9.691s-2.91-.843-6 5.293l1.153.667s3.042-4.382 4.847-5.96z" fill="#EDEDED"/><path d="M116.05 421.66s.64 9.57 1.89 10.95c1.25 1.38 5.5 2.32 5.5 2.32l3.28 5.39s-3-17.13-3.64-17.54c-.64-.41-7.03-1.12-7.03-1.12z" fill="#FFCEA9"/><path d="M122.34 411a3.56 3.56 0 00-4.55 1.38c-1.21 2-2.46 8.84-2.57 10 0 0 1.69 2.34 4.22 2l2.9-13.38z" fill="#EDEDED"/><path d="M132 506.61a7.05 7.05 0 005.3-.64c1.27 0 8.2-2.93 9.14-.44.83 2.18-2.17 4.2-3.77 4.59-3.5.85-6.09 2.59-7.5 2.89-1 .22-2.4.36-3.23-.46-.94-.99-.88-4.64.06-5.94z" fill="#38226D"/><path d="M135.21 512.4c1.41-.29 4-2 7.5-2.89 1.34-.32 3.65-1.79 3.89-3.54.31 2-2.4 3.79-3.89 4.15-3.5.85-6.09 2.59-7.5 2.89-1 .22-2.4.36-3.23-.46a1.92 1.92 0 01-.46-.84 4.19 4.19 0 003.69.69z" fill="#9C73FF"/><path d="M121.25 503.24a7 7 0 005.3-.64c1.28 0 8.2-2.92 9.15-.43.82 2.18-2.18 4.2-3.78 4.59-3.5.84-6.09 2.59-7.49 2.88-1.05.22-2.41.37-3.24-.45-1-.99-.91-4.64.06-5.95z" fill="#38226D"/><path d="M124.43 509c1.4-.3 4-2 7.49-2.89 1.34-.32 3.66-1.79 3.89-3.55.31 2-2.4 3.79-3.89 4.16-3.5.84-6.09 2.59-7.49 2.88-1.05.22-2.41.37-3.24-.45a2.09 2.09 0 01-.46-.84 4.21 4.21 0 003.7.69z" fill="#9C73FF"/><path d="M120.49 483.76a41.85 41.85 0 011.6-7.58s-.48-6.55-.72-12.76c-.27-7-2.71-13.24-.79-18.86l21.42 4.77s-1 28.14-1.33 31.54a62.75 62.75 0 01-1 7.89c-1 5.45-2.07 17.65-2.07 17.65-2.3 1.34-5.67.24-5.67.24s0-15.27.13-19.2c.18-4.8.33-4.43.33-4.43l-.72-11.95-.47-5.94s-.6 4.36-1 8.25c-.34 3.4-1.16 6.47-2.08 12.8-.79 5.48-1.61 16.67-1.61 16.67-2.3 1.33-5.4.41-5.4.41s-1.24-14.74-.62-19.5z" fill="#9F7EF4"/><path d="M123.5 411.14c1.65.08 2.88.51 3.09 0 .178-.855.305-1.72.38-2.59-.19-.48-.36-1-.36-1-2.08-1.27-2.73-3.52-3-6.14-.46-4.47 2-8.38 6.42-8.85 4.21-.44 7.3 2.52 8.13 6.57.44 2 1.33 5.79.13 9.08-.67 1.85-1.53 3.31-2.39 3.59a18 18 0 01-2.49-.22s-.22 1.24-.37 2-.1 1.21 1.49 2.19-2.4 3-5 2.79c-2.6-.21-5.54-1.77-6.34-3.45-.91-1.81-.83-4.03.31-3.97z" fill="#FFCEA9"/><path d="M125.89 411.39c-.46 1.14.71 2.54 3.82 3.51 3.11.97 3.38-.28 3.38-.28a61.51 61.51 0 016 3.12c1.86 1.3 2.69 5.08 2.94 11.45.29 7.37.32 18.31.07 20.2 0 0-3.48 3.48-8 3.11-4.52-.37-12-4.32-13.79-7.37 0-6.46.81-7.51-.24-11.24-2.4-8.53-3.66-12-2.49-17.68 1-4.67 2.3-5.25 4.15-5.21a39 39 0 014.16.39z" fill="#F4F4F4"/><path d="M138.23 455.07L136 429.39l4.79-2.54 1.87 1.57-.66 23.06v1.46s.1 1.94-3.56 4.26c0 0-.06-.61-.11-1.18l-.09-1-.01.05z" fill="#FFCEA9"/><path d="M137.66 416.15c2.47 0 4 1.26 4.65 5.07.65 3.81 1 6.93 1 6.93a6.66 6.66 0 01-4.41 2.18c-3 .33-3.86-1.19-3.86-1.19s-.32-3.95-.48-6.64c-.16-2.69.04-6.29 3.1-6.35z" fill="#EDEDED"/><path d="M138 398.56s3.86-5.87-4.51-7.07c-6-.86-9.92 3-10.37 7.23-.43 4 2.05 8.19 3.84 9.85a7.29 7.29 0 005.22-.63 29.41 29.41 0 00.11-3.29s-2.93-6.2 5.71-6.09z" fill="#3A2C6D"/><g opacity=".9"><path d="M125.96 361c1.44 1.261 3.563.109 3.669.223a65.925 65.925 0 005.315 4.761c.895.761 2.294 1.772 2.021 3.234-.454 2.61-4.335 1.805-5.8 1.006-1.465-.8-2.663-2.12-4.042-3.044-1.01-.663-1.966-1.005-2.117-2.348-.081-.81.697-3.864.955-3.832z" fill="#38226D"/><path d="M125.023 364c.188 1.344 1.152 1.701 2.141 2.399 1.411.98 2.66 2.398 4.132 3.232 1.36.765 4.75 1.53 5.704-.414-.508 2.625-4.35 1.803-5.806.975-1.456-.828-2.674-2.211-4.06-3.175-1.015-.692-1.974-1.05-2.126-2.45-.014-.189-.01-.38.015-.567z" fill="#9C73FF"/><path d="M139.15 357.007c1.436 1.178 3.959-.112 4.045 0a56.934 56.934 0 004.747 4.306c.9.711 2.3 1.656 2.022 3.022-.455 2.438-4.338 1.686-5.804.94-1.466-.747-2.664-1.981-4.044-2.844-1.011-.62-1.962-.94-2.113-2.194-.06-.757.89-3.26 1.147-3.23z" fill="#38226D"/><path d="M138.02 359c.193 1.344 1.157 1.701 2.141 2.399 1.416.98 2.664 2.398 4.13 3.232 1.36.765 4.755 1.53 5.709-.414-.507 2.625-4.354 1.803-5.81.975-1.456-.828-2.669-2.211-4.06-3.175-.989-.692-1.968-1.05-2.12-2.45a2.786 2.786 0 01.01-.567z" fill="#9C73FF"/><path d="M125.254 309.04c.072 2.135.761 11.39 1.07 16.307.308 4.917.38 10.894.38 10.894s-.88 3.575-1.45 7.774c-.571 4.2 0 17.455 0 17.455a3.592 3.592 0 003.755 0s2.346-10.607 3.431-15.385c1.086-4.778 1.276-7.537 1.842-10.498.679-3.585 2.15-20.302 2.15-20.302l.586.035 1.544 18.88a20.519 20.519 0 00-.988 4.284c-.427 3.075.447 18.55.447 18.55a4.028 4.028 0 004.06-.16S146 336.38 146 333.26c0-2.06-.365-29.26-.365-29.26l-20.381 5.04z" fill="#9F7EF4"/><path d="M131.66 268s.243 4.797.139 5.221c-.104.424-2.146 1.834-2.738 2.34-.59.506 3.23 4.378 5.083 5.252 1.853.873 7.745-1.43 7.85-4.404.103-2.973-.994-5.471-1.914-5.62-.919-.148-8.42-2.789-8.42-2.789zm11.701 8.614c.281-2.042-1.113-3.986.24-5.614 4.735 4.485 4.133 16.355 5.21 23.947 3.515 3.553 10.584 7.05 12.576 7.894.363.158.674.326.603.706-.286 1.48-.73 2.042-1.645 3.453-4.679-1.949-8.05-3.069-13.893-8.431a12.454 12.454 0 01-1.482-1.875c-1.67-4.796-2.089-16.552-1.609-20.08z" fill="#FFCEA9"/><path d="M130.87 274.141s3.534 5.108 8.463 5.611c1.555-1.508 1.695-6.777-.456-8.466 0 0 1.98-1.549 3.332-1.247a6.808 6.808 0 013.043 3.766 29.975 29.975 0 011.736 10.934c-.083 5.028 0 20.321 0 20.321s-.69 3.238-5.146 5.646c-4.458 2.408-7.774 2.644-10.796 1.96-2.498-.562-4.56-1.417-5.416-3.172.223-3.519 1.84-12.679 1.234-17.093-.607-4.414-1.555-7.717-1.814-11.287-.26-3.57.487-3.519 2.332-4.77a29.347 29.347 0 013.488-2.203z" fill="#F4F4F4"/><path d="M141.69 261.787c-.555-3.396-3.16-5.972-6.891-5.777-3.97.208-7.008 3.397-6.788 7.124.124 2.09 1.282 4.005 3.131 5.176.13.515.325 1.014.58 1.486 1.315 1.449 5.31 2.33 6.45 2.19 1.489-.196 2.273-.774 2.977-2.283 1.236-2.68.849-6.243.541-7.916z" fill="#FFCEA9"/><path d="M131.515 268l.348-3.021s-2.64-6.404 3.571-5.174c4.08.808 5.109 1.16 6.353-1.425 1.244-2.584-3.144-4.907-8.347-4.275-3.717.37-6.514 3.36-6.439 6.883.137 1.915.676 5.763 4.514 7.012z" fill="#3A2C6D"/><path d="M124.077 279.489c1.775-.489.424-.083 1.775-.489 4.622 4.45 4.049 12.068 5.096 19.599 2.553 4.137 12.027 9.746 12.027 9.746.12.802-.17 1.036-1.192 2.655-4.562-1.932-8.387-3.599-14.091-8.91-.225-.21-.554-.264-.648-.552-1.631-4.807-3.441-18.548-2.967-22.049z" fill="#FFCEA9"/><path fill="#F4F4F4" d="M166 289l-6.888 23.08L144 318l5.511-22.484z"/><path d="M139.148 308.729c.222-.878.797-.66 1.442-.442a3.425 3.425 0 002.204.213c.616-.213 1.058-.796 1.58-1.184a1.89 1.89 0 01.984-.316c-.03.224-.34 1.533-.34 1.533s3.268.038 3.603-.039a.537.537 0 01.558.314.664.664 0 01-.066.69l.221-.038c.67-.164.955.97.28 1.14-.176.043-.358.065-.545.092.437.186.546.988 0 1.091l-.168.033a.506.506 0 01-.24.038h-.104a.706.706 0 01-.097.502.58.58 0 01-.395.267c-1.595.235-3.937.938-5.384-.518a8.399 8.399 0 01-2.893-.867c-.881-.464-.906-1.456-.64-2.51zm17.418-2.448h.228a.6.6 0 01-.191-.638.57.57 0 01.51-.41c.353 0 3.807-.749 3.807-.749l.414-1.472c0-.084.602.294.622.31a2.425 2.425 0 011.042 1.79 3.898 3.898 0 01-1.011 2.762 3.362 3.362 0 01-2.342 1.047c-.42.027-.824.048-1.183.079a.591.591 0 01-.427-.184.635.635 0 01-.174-.445h-.107a.523.523 0 01-.247 0h-.177c-.587 0-.632-.754-.233-1.047-.187 0-.38.036-.566.036-.734.047-.693-1.084.035-1.079z" fill="#FFCEA9"/><path d="M145.474 280s1.786-.09 2.526-1.113c-.138-1.75-2.418-8.39-7-8.887a8.381 8.381 0 012.867 3.398c.832 2 1.607 6.602 1.607 6.602zm-22.784 8.56s4.85 1.49 8.27-1.014c.374-.576-1.981-7.928-1.981-7.928s-2.035-3.761-5.22-2.267c-3.186 1.493-1.07 11.21-1.07 11.21z" fill="#EDEDED"/></g><path d="M313.311 144.476l.312-.141c.408-.174.816-.327 1.225-.468h.075c.376-.13.752-.24 1.074-.348h.237a15.937 15.937 0 011.783-.392h.13c.461-.066.923-.11 1.374-.13h1.805c.323 0 .634.064.946.108h.29c.365.065.73.152 1.074.25h.13c.302.09.6.194.891.316l.29.13.784.381.269.142-37.357-21.996-.118-.065-.15-.077-.785-.38-.15-.077-.129-.054c-.3-.12-.602-.229-.903-.316h-.107c-.355-.098-.71-.185-1.074-.25h-.29c-.312 0-.624-.087-.946-.109h-1.805c-.451 0-.902.065-1.375.13h-.108c-.6.097-1.196.228-1.783.392h-.236c-.376.11-.753.218-1.075.349h-.075a18.6 18.6 0 00-1.225.468h-.097l-.214.109a21.33 21.33 0 00-1.15.533c-.129.065-.269.12-.398.196-.483.24-.967.5-1.45.794L310.421 146c.484-.294.967-.555 1.45-.795l.398-.195c.387-.196.763-.37 1.15-.534" fill="#FFE9C2"/><path d="M291.242 136.243a25.738 25.738 0 011.846-.748h.086c.52-.174 1.051-.32 1.588-.438.3-.079.6-.143.901-.193.355-.075.713-.132 1.073-.17l.644-.065h1.695a12.65 12.65 0 011.588.203l.386.086c.4.093.794.207 1.18.342l.365.128c.487.185.957.41 1.406.673l-37.264-21.693-.118-.064a11.2 11.2 0 00-1.073-.524l-.215-.075-.364-.128-.558-.203-.633-.128-.387-.086h-.203c-.43-.075-.863-.129-1.299-.16h-1.834l-.644.075h-.59l-.537.117c-.3.05-.6.114-.901.193l-.472.096c-.365.096-.74.214-1.073.342h-.086c-.419.15-.848.31-1.288.491l-.558.246-.525.246c-.655.3-1.31.63-1.975 1.015a32.75 32.75 0 00-2.403 1.55L286.371 139a33.955 33.955 0 012.404-1.55 18.71 18.71 0 011.974-1.015l.526-.235" fill="#FFE9C2"/><path d="M256.09 126.05l.565-.246c.556-.224 1.068-.437 1.656-.63l.31-.117a36.05 36.05 0 011.932-.587c.363-.106.737-.192 1.068-.277l.545-.128c.523-.117 1.068-.203 1.548-.288h.086c.513-.075 1.068-.128 1.516-.182h1.367a19.325 19.325 0 012.083 0h.363c.545 0 1.068.107 1.623.192l.502.086c.613.104 1.22.243 1.816.416h.075c.554.163 1.1.356 1.634.576l.459.192c.46.203.897.416 1.335.651l.427.224-37.187-21.63-.192-.107-.235-.117a17.18 17.18 0 00-1.335-.65l-.224-.118-.214-.075c-.534-.22-1.08-.413-1.634-.576h-.053a16.255 16.255 0 00-1.837-.438h-.502a19.845 19.845 0 00-1.623-.192 2.277 2.277 0 01-.267 0h-.086a19.538 19.538 0 00-2.136 0h-1.355c-.491.054-1.004.107-1.506.182h-.075a17.3 17.3 0 00-1.548.288c-.192 0-.374.085-.555.128-.182.042-.663.15-.994.245h-.106c-.641.171-1.282.374-1.933.587l-.31.118c-.545.192-1.068.405-1.656.63l-.181.063c-.128 0-.256.128-.385.17-.587.257-1.174.524-1.772.812l-.652.32c-.769.384-1.538.79-2.307 1.238a43 43 0 00-3.14 1.963c-.363.246-.704.523-1.067.78-.663.469-1.335.938-1.987 1.44-.416.32-.812.672-1.217 1.067-.588.47-1.175.939-1.752 1.44-.577.502-.833.78-1.26 1.174-.427.395-1.068.982-1.613 1.505l-.074.064a111.18 111.18 0 00-2.371 2.465l-.641.715c-.3.33-.598.65-.897.992-.3.342-.385.47-.577.705-.555.661-1.068 1.323-1.645 1.995-.213.278-.448.534-.672.822-.225.288-.31.427-.47.64-.406.523-.79 1.067-1.186 1.6-.245.342-.502.662-.737 1.004-.235.341-.32.49-.49.725-.321.47-.642.95-.951 1.43-.31.48-.449.64-.663.971l-.576.95-.812 1.323-.47.78c-.267.448-.502.896-.758 1.344l-.673 1.216-.267.48c-.363.684-.705 1.377-1.068 2.07l-.416.833-.086.17a127.2 127.2 0 00-1.43 3.117l-.065.16c-.128.288-.235.587-.363.886-.3.725-.609 1.44-.886 2.134-.065.15-.107.288-.16.437-.182.47-.342.95-.513 1.42-.171.47-.385 1.067-.556 1.536-.064.214-.117.416-.181.62-.192.586-.363 1.173-.545 1.76-.181.587-.278.864-.395 1.302-.053.202-.096.405-.15.619a89.761 89.761 0 00-.566 2.294c-.096.405-.213.81-.299 1.206a42.12 42.12 0 00-.203.992c-.373.214-.758.406-1.142.63a47.1 47.1 0 00-2.392 1.504l-.406.267a54.22 54.22 0 00-2.243 1.622l-.427.342a50.04 50.04 0 00-2.21 1.824l-.193.171a58.418 58.418 0 00-2.072 1.932l-.214.192-.128.138a53.464 53.464 0 00-1.548 1.58l-.075.085c-.48.523-.961 1.067-1.431 1.58l-.128.149-.171.202a79.652 79.652 0 00-2.232 2.722l-.064.074-.16.224a69.898 69.898 0 00-1.688 2.284l-.17.235a.437.437 0 00-.076.117 38.84 38.84 0 00-1.537 2.284l-.15.224c-.074.11-.142.224-.203.341a66.215 66.215 0 00-1.185 1.921 2.785 2.785 0 01-.182.299l-.064.117a67.37 67.37 0 00-1.26 2.263l-.096.18-.192.374c-.32.605-.63 1.213-.93 1.825l-.192.384a2.133 2.133 0 01-.107.224c-.363.78-.726 1.548-1.068 2.337v.064l-.096.256c-.31.705-.598 1.41-.875 2.135l-.14.352c0 .085-.063.192-.106.288-.32.832-.62 1.675-.908 2.518l-.053.15c-.289.875-.545 1.75-.801 2.614a2.986 2.986 0 01-.096.33c.003.061.003.122 0 .182a59.711 59.711 0 00-.748 3.03l-.064.268c0 .138-.053.266-.075.395-.085.394-.16.8-.224 1.195-.064.394-.107.544-.15.821-.042.278-.128.811-.192 1.228 0 .192-.053.384-.085.576.005.05.005.1 0 .15a55.424 55.424 0 00-.257 2.592v.555c0 .886-.085 1.771-.085 2.636 0 6.584 1.623 11.823 4.39 15.484a15.364 15.364 0 004.463 3.99L194.051 252c-5.447-3.201-8.832-9.892-8.854-19.464 0-.864 0-1.75.086-2.636v-.544c.064-.864.15-1.74.256-2.604l.096-.725c.064-.416.118-.822.192-1.227.075-.406.097-.545.14-.822.042-.278.149-.8.234-1.195 0-.224.096-.438.14-.662a65.9 65.9 0 01.747-3.03c0-.171.096-.342.139-.513.256-.875.512-1.75.8-2.614l.065-.192a54.94 54.94 0 01.907-2.53c.075-.213.16-.426.246-.64.278-.704.566-1.419.865-2.134.053-.106.096-.213.139-.32.342-.79.705-1.558 1.068-2.337l.299-.608c.299-.605.609-1.213.929-1.825l.288-.555c.406-.757.823-1.515 1.26-2.251l.257-.427a52.39 52.39 0 011.175-1.932l.352-.554a61.391 61.391 0 011.538-2.295l.235-.33a74.998 74.998 0 011.698-2.295l.224-.299a79.652 79.652 0 012.232-2.72l.3-.353c.47-.533.95-1.067 1.43-1.568l.075-.097c.513-.533 1.068-1.067 1.549-1.579l.341-.33a69.462 69.462 0 012.072-1.932l.193-.17a39.068 39.068 0 012.21-1.826l.427-.341c.737-.566 1.485-1.067 2.243-1.622l.395-.267c.79-.523 1.592-1.067 2.393-1.494l1.153-.64c.15-.726.331-1.462.502-2.198.17-.737.363-1.526.566-2.295.203-.768.352-1.28.545-1.92.192-.64.352-1.174.544-1.761.193-.587.48-1.43.737-2.134.171-.48.331-.96.513-1.43.33-.875.683-1.74 1.068-2.604.128-.299.235-.608.363-.896.502-1.163 1.068-2.305 1.58-3.447l.428-.832a64.01 64.01 0 011.313-2.55c.225-.406.449-.812.684-1.217.398-.712.804-1.423 1.217-2.134.267-.449.534-.897.812-1.334a59 59 0 011.239-1.921c.427-.63.63-.96.95-1.43.32-.47.705-1.1 1.143-1.633.438-.533.78-1.067 1.185-1.611.406-.544.759-.971 1.143-1.451.545-.673 1.068-1.334 1.645-1.996.577-.661.972-1.142 1.474-1.696.213-.246.427-.48.651-.715a63.282 63.282 0 012.435-2.53c.534-.522 1.068-1.067 1.634-1.525.566-.46.812-.78 1.239-1.142.427-.363 1.175-.982 1.762-1.473.406-.33.801-.672 1.207-.992.651-.502 1.324-.971 1.997-1.452l1.068-.768a118.982 118.982 0 013.14-1.963 40.502 40.502 0 012.307-1.238l.651-.32a36.548 36.548 0 011.773-.8" fill="#FFE9C2"/><path d="M251.413 127.952c16.849-9.729 31.024-4.634 35.089 11.002a27.653 27.653 0 012.396-1.552c10.623-6.132 19.449-2.354 21.235 8.284 12.239-7.085 21.867-1.53 21.867 12.094 0 12.65-8.205 27.827-18.871 35.479a32.57 32.57 0 01-2.568 1.67c-.797.461-1.618.88-2.46 1.252l-92.58 53.64c-16.806 9.708-30.467 1.927-30.521-17.401-.053-19.33 13.512-42.81 30.318-52.54.396-.235.77-.427 1.155-.641 3.98-20.196 18.08-41.57 34.897-51.287" fill="#FED893"/></g></g></svg>