<svg width="124" height="33" xmlns="http://www.w3.org/2000/svg"><path d="M31.651 23.87c-2.73 5.164-8.157 8.69-14.392 8.69H1.412v-8.69h30.24M31.65 8.714H.013V.024H17.26c6.235 0 11.662 3.527 14.392 8.69m1.676 7.578c0 1.353-.177 2.707-.528 4.04H3.71v-8.08H32.8c.351 1.334.528 2.687.528 4.04M54.456 7.71v14.217h-2.318l-.163-1.383c-.773 1.2-2.013 1.606-3.234 1.606-2.949 0-5.165-1.952-5.165-5.247 0-3.457 2.176-5.247 5.104-5.247 1.058 0 2.705.57 3.295 1.607V7.71h2.481zm-8.4 9.193c0 1.75 1.262 2.95 2.848 2.95 1.566 0 2.908-1.14 2.908-2.95 0-1.749-1.342-2.928-2.908-2.928-1.586 0-2.847 1.118-2.847 2.928zM66.72 11.9l-6.122 14.216h-2.725l1.871-4.352-4.007-9.864h2.888l1.526 4.332.956 2.827 1.037-2.766 1.83-4.393h2.746m8.684 10.027V16.68c0-1.526-.834-2.685-2.42-2.685-1.526 0-2.563 1.281-2.563 2.807v5.125h-2.46V11.88h2.216l.163 1.363c1.017-.997 2.034-1.505 3.295-1.505 2.359 0 4.25 1.769 4.25 4.921v5.268h-2.481M87.973 11.9h2.38v10.027h-2.34l-.122-1.465c-.57 1.18-2.135 1.75-3.254 1.77-2.97.02-5.166-1.81-5.166-5.329 0-3.457 2.299-5.267 5.227-5.247 1.343 0 2.624.63 3.193 1.627l.082-1.383zm-6.02 5.003c0 1.912 1.322 3.051 2.969 3.051 3.905 0 3.905-6.081 0-6.081-1.647 0-2.97 1.119-2.97 3.03zm17.359 5.024v-5.37c0-1.321-.692-2.521-2.054-2.521-1.343 0-2.136 1.2-2.136 2.522v5.369h-2.48V11.88h2.297l.183 1.22c.53-1.017 1.688-1.383 2.644-1.383 1.2 0 2.4.488 2.97 1.871.894-1.423 2.054-1.83 3.355-1.83 2.848 0 4.25 1.749 4.25 4.759v5.41h-2.48v-5.41c0-1.322-.55-2.44-1.892-2.44-1.342 0-2.176 1.159-2.176 2.48v5.37h-2.481m14.062-12.854c0 1.932-2.928 1.932-2.928 0s2.928-1.932 2.928 0zm-2.705 12.854h2.482V11.86h-2.482v10.067zm13.321-1.282c-1.159 1.14-2.38 1.587-3.864 1.587-2.908 0-5.328-1.75-5.328-5.308 0-3.56 2.42-5.308 5.328-5.308 1.424 0 2.522.406 3.62 1.484l-1.566 1.648a3.045 3.045 0 00-2.013-.794c-1.668 0-2.888 1.22-2.888 2.97 0 1.911 1.302 2.928 2.847 2.928.793 0 1.587-.223 2.197-.834l1.667 1.627" fill="#FFF" fill-rule="evenodd"/></svg>