<svg width="40" height="40" xmlns="http://www.w3.org/2000/svg" xmlns:xlink="http://www.w3.org/1999/xlink"><defs><path id="a" d="M0 0h39.657v39.65H0z"/><path id="c" d="M0 0h39.657v39.65H0z"/><path id="e" d="M0 0h39.657v39.65H0z"/></defs><g fill="none" fill-rule="evenodd"><path d="M20.854 19.5c0 .747-.607 1.354-1.354 1.354a1.356 1.356 0 01-1.354-1.354 1.355 1.355 0 012.708 0zM16 19.5c0 1.93 1.57 3.5 3.5 3.5s3.5-1.57 3.5-3.5-1.57-3.5-3.5-3.5-3.5 1.57-3.5 3.5z" fill="#8659FA" fill-rule="nonzero"/><path d="M27.834 9.638a1.11 1.11 0 00-.357-1.527A14.013 14.013 0 0020.068 6C12.311 6 6 12.325 6 20.1c0 2.61.717 5.159 2.074 7.372a1.105 1.105 0 001.522.364 1.11 1.11 0 00.363-1.525A11.877 11.877 0 018.212 20.1c0-6.552 5.319-11.882 11.856-11.882 2.214 0 4.372.615 6.242 1.778.52.323 1.201.163 1.524-.357" fill="#8659FA" fill-rule="nonzero"/><mask id="b" fill="#fff"><use xlink:href="#a"/></mask><path d="M30.182 12.383a1.084 1.084 0 00-.374 1.487 11.604 11.604 0 011.642 5.959c0 6.408-5.213 11.621-11.622 11.621a11.57 11.57 0 01-6.315-1.864 1.084 1.084 0 00-1.18 1.82 13.74 13.74 0 007.495 2.213c7.604 0 13.79-6.186 13.79-13.79 0-2.496-.674-4.941-1.95-7.072a1.084 1.084 0 00-1.486-.374" fill="#034FCF" fill-rule="nonzero" mask="url(#b)"/><mask id="d" fill="#fff"><use xlink:href="#c"/></mask><path d="M19.828 0c-3.634 0-7.183.995-10.274 2.87.65.332 1.098 1 1.098 1.779 0 .033-.008.063-.01.096a17.62 17.62 0 019.186-2.576c9.738 0 17.66 7.922 17.66 17.66 0 3.296-.914 6.512-2.643 9.298a1.084 1.084 0 001.843 1.144 19.782 19.782 0 002.969-10.442C39.657 8.896 30.762 0 19.828 0" fill="#034FCF" fill-rule="nonzero" mask="url(#d)"/><mask id="f" fill="#fff"><use xlink:href="#e"/></mask><path d="M28.847 35.066c0-.019.005-.036.005-.055a17.633 17.633 0 01-9.024 2.478c-9.737 0-17.66-7.922-17.66-17.66 0-3.422.98-6.74 2.833-9.598a1.084 1.084 0 00-1.819-1.18A19.755 19.755 0 000 19.83c0 10.933 8.895 19.828 19.828 19.828 3.583 0 7.093-.966 10.153-2.794a1.998 1.998 0 01-1.134-1.797" fill="#07DB9C" fill-rule="nonzero" mask="url(#f)"/><path d="M31 33a1.997 1.997 0 00-1.995 1.946c0 .018-.005.035-.005.054 0 .792.464 1.47 1.132 1.794.264.128.556.206.868.206a2 2 0 100-4M9.904 3.225A1.98 1.98 0 009 3a2 2 0 100 4c1.072 0 1.94-.845 1.99-1.905.002-.032.01-.062.01-.095 0-.777-.448-1.444-1.096-1.775" fill="#8659FA" fill-rule="nonzero"/></g></svg>