<svg version="1.1" id="Layer_1" xmlns="http://www.w3.org/2000/svg" xmlns:xlink="http://www.w3.org/1999/xlink" width="189" height="40">
<style type="text/css">
	.st0{fill:#3D54A0;}
	.st1{fill:url(#SVGID_1_);}
	.st2{fill:url(#SVGID_00000171712540852406332630000014865042679209627778_);}
</style>
<g>
	<g>
		<path class="st0" d="M54.62,31.17V13.63h-5.5v-3.06h14.2v3.06h-5.67v17.54H54.62z"/>
		<path class="st0" d="M76.17,29.14h-0.03c-0.6,0.61-1.42,1.15-2.47,1.62c-1.05,0.47-2.14,0.71-3.28,0.71
			c-1.53,0-2.89-0.34-4.06-1.01c-1.17-0.68-2.08-1.61-2.74-2.8c-0.66-1.19-0.98-2.54-0.98-4.05c0-1.73,0.35-3.2,1.04-4.43
			s1.61-2.17,2.75-2.82c1.14-0.66,2.39-0.99,3.73-0.99c1.23,0,2.36,0.32,3.37,0.96s1.81,1.52,2.41,2.63c0.6,1.12,0.9,2.42,0.9,3.91
			l-0.03,1.29H65.5c0.17,1.39,0.72,2.5,1.64,3.31c0.93,0.81,2.1,1.22,3.52,1.22c1.03,0,1.86-0.2,2.5-0.6s1.16-0.79,1.57-1.16
			L76.17,29.14z M70.14,18.16c-1.1,0-2.07,0.27-2.89,0.81c-0.82,0.54-1.37,1.47-1.63,2.78h8.25v-0.21
			c-0.06-0.67-0.27-1.26-0.63-1.77c-0.37-0.51-0.82-0.91-1.36-1.19C71.33,18.3,70.75,18.16,70.14,18.16z"/>
		<path class="st0" d="M88.21,18.98c-0.19-0.1-0.42-0.18-0.69-0.25c-0.27-0.07-0.56-0.1-0.86-0.1c-0.6,0-1.19,0.16-1.77,0.49
			c-0.58,0.32-1.06,0.78-1.44,1.38c-0.38,0.6-0.58,1.31-0.58,2.13v8.53h-2.92V15.72h2.92v2.91c0.41-0.94,1.03-1.72,1.87-2.33
			c0.83-0.61,1.71-0.91,2.62-0.91c0.69,0,1.22,0.1,1.6,0.29L88.21,18.98z"/>
		<path class="st0" d="M98.76,15.45c1.22,0,2.19,0.29,2.92,0.87c0.73,0.58,1.25,1.37,1.57,2.37c0.26-0.49,0.65-0.99,1.15-1.49
			c0.51-0.5,1.09-0.92,1.77-1.25c0.67-0.33,1.39-0.5,2.16-0.5c1.27,0,2.26,0.29,2.97,0.87c0.71,0.58,1.21,1.35,1.5,2.33
			c0.29,0.97,0.43,2.06,0.43,3.25v9.27h-2.92v-9.09c0-1.14-0.21-2.06-0.62-2.77c-0.41-0.71-1.19-1.06-2.33-1.06
			c-1.09,0-1.98,0.36-2.68,1.07c-0.7,0.72-1.05,1.58-1.05,2.6v9.24h-2.92v-9.15c0-1.1-0.22-2-0.67-2.71
			c-0.45-0.71-1.19-1.06-2.22-1.06c-0.71,0-1.35,0.17-1.91,0.5c-0.56,0.33-1,0.77-1.32,1.31c-0.32,0.54-0.48,1.14-0.48,1.81v9.3
			h-2.92V15.72h2.92v2.47c0.45-0.71,1.08-1.34,1.89-1.9C96.84,15.73,97.75,15.45,98.76,15.45z"/>
		<path class="st0" d="M119.05,12.36c-0.66,0-1.14-0.18-1.46-0.53c-0.32-0.35-0.48-0.81-0.48-1.38c0-0.49,0.16-0.93,0.48-1.32
			c0.32-0.39,0.8-0.59,1.46-0.59c0.65,0,1.14,0.18,1.46,0.53c0.32,0.35,0.48,0.81,0.48,1.38c0,0.49-0.16,0.93-0.48,1.32
			C120.19,12.17,119.7,12.36,119.05,12.36z M120.53,31.17h-2.89V15.72h2.89V31.17z"/>
		<path class="st0" d="M132.63,15.39c1.33,0,2.36,0.28,3.09,0.85s1.24,1.33,1.53,2.3c0.29,0.96,0.44,2.03,0.44,3.21v9.42h-2.89
			v-9.21c0-0.75-0.09-1.41-0.28-2s-0.51-1.05-0.95-1.38c-0.45-0.33-1.08-0.47-1.88-0.41c-0.75,0-1.41,0.17-1.99,0.5
			s-1.04,0.78-1.38,1.32c-0.34,0.55-0.5,1.16-0.5,1.82v9.36h-2.89V15.72h2.89v2.44c0.45-0.73,1.1-1.37,1.96-1.93
			C130.63,15.67,131.58,15.39,132.63,15.39z"/>
		<path class="st0" d="M151.66,25.02v-9.3h2.89v15.45h-2.89V28.7c-0.43,0.73-1.06,1.37-1.89,1.93s-1.83,0.84-2.99,0.84
			c-1.53,0-2.78-0.55-3.73-1.65s-1.43-2.62-1.43-4.56v-9.53h2.89v8.71c0,0.78,0.12,1.51,0.35,2.18c0.23,0.67,0.61,1.2,1.12,1.6
			s1.17,0.6,1.98,0.6c1.01,0,1.88-0.33,2.61-1C151.29,27.15,151.66,26.21,151.66,25.02z"/>
		<path class="st0" d="M167.09,19.78c-0.52-0.55-1.12-1-1.78-1.35s-1.28-0.53-1.84-0.53c-0.39,0-0.78,0.05-1.16,0.15
			s-0.71,0.28-0.97,0.54s-0.39,0.65-0.39,1.16c0.02,0.71,0.32,1.21,0.91,1.5s1.32,0.56,2.2,0.79c0.77,0.22,1.52,0.49,2.25,0.81
			s1.33,0.79,1.81,1.41c0.48,0.62,0.72,1.49,0.72,2.6c0,0.96-0.26,1.79-0.77,2.47c-0.52,0.69-1.18,1.21-1.99,1.57
			c-0.81,0.36-1.67,0.54-2.57,0.54c-1.07,0-2.12-0.2-3.16-0.6c-1.04-0.4-1.92-1.09-2.65-2.07l1.96-1.77
			c0.51,0.61,1.08,1.08,1.73,1.43c0.65,0.34,1.44,0.51,2.37,0.51c0.36,0,0.71-0.06,1.07-0.19c0.36-0.13,0.66-0.33,0.91-0.62
			c0.25-0.28,0.38-0.67,0.38-1.16c0-0.47-0.14-0.84-0.41-1.1s-0.63-0.48-1.08-0.65s-0.95-0.32-1.49-0.46
			c-0.8-0.24-1.6-0.52-2.37-0.87c-0.78-0.34-1.42-0.83-1.94-1.47c-0.51-0.64-0.77-1.51-0.77-2.6c0-0.92,0.25-1.71,0.74-2.37
			c0.5-0.66,1.15-1.17,1.95-1.53s1.66-0.54,2.58-0.54c0.88,0,1.83,0.2,2.86,0.59c1.03,0.39,1.88,1.02,2.55,1.88L167.09,19.78z"/>
		
			<linearGradient id="SVGID_1_" gradientUnits="userSpaceOnUse" x1="168.3837" y1="25.4427" x2="190.6013" y2="12.6154" gradientTransform="matrix(1 0 0 -1 0 40)">
			<stop  offset="0" style="stop-color:#FFDF79"/>
			<stop  offset="0.5" style="stop-color:#C178AF"/>
			<stop  offset="0.8" style="stop-color:#3D54A0"/>
		</linearGradient>
		<path class="st1" d="M170.54,31.17l7.04-10.53l-6.9-10.06h3.84l5.14,7.86l4.91-7.86h3.56l-6.79,10.39l7.07,10.21h-3.84l-5.25-7.97
			l-5.22,7.97L170.54,31.17L170.54,31.17z"/>
	</g>
	
		<linearGradient id="SVGID_00000116214553719254490430000015140806071962185907_" gradientUnits="userSpaceOnUse" x1="2.6776" y1="30.0011" x2="37.3252" y2="9.9973" gradientTransform="matrix(1 0 0 -1 0 40)">
		<stop  offset="0" style="stop-color:#FFDF79"/>
		<stop  offset="0.5" style="stop-color:#C178AF"/>
		<stop  offset="0.8" style="stop-color:#3D54A0"/>
	</linearGradient>
	<path style="fill:url(#SVGID_00000116214553719254490430000015140806071962185907_);" d="M16.43,20c0,1.97,1.6,3.57,3.57,3.57
		s3.57-1.6,3.57-3.57s-1.6-3.57-3.57-3.57S16.43,18.03,16.43,20z M21.38,20c0,0.76-0.62,1.38-1.38,1.38c-0.76,0-1.38-0.62-1.38-1.38
		c0-0.76,0.62-1.38,1.38-1.38C20.76,18.62,21.38,19.24,21.38,20z M26.17,10.03C24.32,8.88,22.19,8.28,20,8.28
		C13.54,8.28,8.28,13.54,8.28,20c0,2.17,0.6,4.29,1.73,6.13c0.32,0.51,0.16,1.19-0.36,1.5c-0.18,0.11-0.38,0.16-0.57,0.16
		c-0.37,0-0.73-0.19-0.93-0.52C6.8,25.09,6.09,22.57,6.09,20c0-7.67,6.24-13.91,13.91-13.91c2.6,0,5.13,0.72,7.33,2.08
		c0.51,0.32,0.67,0.99,0.35,1.51C27.36,10.19,26.68,10.35,26.17,10.03z M31.94,12.87c1.29,2.15,1.97,4.62,1.97,7.13
		c0,7.67-6.24,13.91-13.91,13.91c-2.69,0-5.31-0.77-7.56-2.23c-0.51-0.33-0.65-1.01-0.32-1.51c0.33-0.51,1.01-0.65,1.51-0.32
		c1.9,1.23,4.1,1.88,6.37,1.88c6.46,0,11.72-5.26,11.72-11.72c0-2.12-0.57-4.2-1.66-6.01c-0.31-0.52-0.14-1.19,0.38-1.5
		C30.96,12.18,31.63,12.35,31.94,12.87z M33.14,35.37c0,1.12-0.9,2.02-2.02,2.02c-0.32,0-0.61-0.08-0.88-0.21
		C27.15,39.03,23.61,40,20,40C8.97,40,0,31.03,0,20c0-3.88,1.11-7.63,3.21-10.87c0.33-0.51,1.01-0.65,1.51-0.32
		c0.51,0.33,0.65,1.01,0.32,1.51C3.18,13.2,2.19,16.55,2.19,20c0,9.82,7.99,17.81,17.81,17.81c3.21,0,6.36-0.86,9.1-2.5
		c0.03-1.09,0.92-1.97,2.02-1.97C32.23,33.35,33.14,34.25,33.14,35.37z M40,20c0,3.73-1.04,7.38-2.99,10.53
		c-0.21,0.33-0.56,0.52-0.93,0.52c-0.2,0-0.4-0.05-0.58-0.16c-0.51-0.32-0.67-0.99-0.35-1.51c1.74-2.81,2.67-6.05,2.67-9.38
		c0-9.82-7.99-17.81-17.81-17.81c-3.28,0-6.48,0.9-9.27,2.6c-0.05,1.07-0.93,1.92-2.01,1.92c-1.12,0-2.02-0.9-2.02-2.02
		s0.9-2.02,2.02-2.02c0.33,0,0.64,0.09,0.91,0.23C12.75,1,16.33,0,20,0C31.03,0,40,8.97,40,20z"/>
</g>
</svg>
