<svg width="189" height="40" xmlns="http://www.w3.org/2000/svg" xmlns:xlink="http://www.w3.org/1999/xlink"><defs><path id="a" d="M0 0h39.657v39.65H0z"/><path id="c" d="M0 0h39.657v39.65H0z"/><path id="e" d="M0 0h39.657v39.65H0z"/></defs><g fill="none" fill-rule="evenodd"><path d="M20.854 19.5c0 .747-.607 1.354-1.354 1.354a1.356 1.356 0 01-1.354-1.354 1.355 1.355 0 012.708 0zM16 19.5c0 1.93 1.57 3.5 3.5 3.5s3.5-1.57 3.5-3.5-1.57-3.5-3.5-3.5-3.5 1.57-3.5 3.5z" fill="#8659FA" fill-rule="nonzero"/><path d="M27.834 9.638a1.11 1.11 0 00-.357-1.527A14.013 14.013 0 0020.068 6C12.311 6 6 12.325 6 20.1c0 2.61.717 5.159 2.074 7.372a1.105 1.105 0 001.522.364 1.11 1.11 0 00.363-1.525A11.877 11.877 0 018.212 20.1c0-6.552 5.319-11.882 11.856-11.882 2.214 0 4.372.615 6.242 1.778.52.323 1.201.163 1.524-.357" fill="#8659FA" fill-rule="nonzero"/><mask id="b" fill="#fff"><use xlink:href="#a"/></mask><path d="M30.182 12.383a1.084 1.084 0 00-.374 1.487 11.604 11.604 0 011.642 5.959c0 6.408-5.213 11.621-11.622 11.621a11.57 11.57 0 01-6.315-1.864 1.084 1.084 0 00-1.18 1.82 13.74 13.74 0 007.495 2.213c7.604 0 13.79-6.186 13.79-13.79 0-2.496-.674-4.941-1.95-7.072a1.084 1.084 0 00-1.486-.374" fill="#034FCF" fill-rule="nonzero" mask="url(#b)"/><mask id="d" fill="#fff"><use xlink:href="#c"/></mask><path d="M19.828 0c-3.634 0-7.183.995-10.274 2.87.65.332 1.098 1 1.098 1.779 0 .033-.008.063-.01.096a17.62 17.62 0 019.186-2.576c9.738 0 17.66 7.922 17.66 17.66 0 3.296-.914 6.512-2.643 9.298a1.084 1.084 0 001.843 1.144 19.782 19.782 0 002.969-10.442C39.657 8.896 30.762 0 19.828 0" fill="#034FCF" fill-rule="nonzero" mask="url(#d)"/><mask id="f" fill="#fff"><use xlink:href="#e"/></mask><path d="M28.847 35.066c0-.019.005-.036.005-.055a17.633 17.633 0 01-9.024 2.478c-9.737 0-17.66-7.922-17.66-17.66 0-3.422.98-6.74 2.833-9.598a1.084 1.084 0 00-1.819-1.18A19.755 19.755 0 000 19.83c0 10.933 8.895 19.828 19.828 19.828 3.583 0 7.093-.966 10.153-2.794a1.998 1.998 0 01-1.134-1.797" fill="#07DB9C" fill-rule="nonzero" mask="url(#f)"/><path d="M31 33a1.997 1.997 0 00-1.995 1.946c0 .018-.005.035-.005.054 0 .792.464 1.47 1.132 1.794.264.128.556.206.868.206a2 2 0 100-4M9.904 3.225A1.98 1.98 0 009 3a2 2 0 100 4c1.072 0 1.94-.845 1.99-1.905.002-.032.01-.062.01-.095 0-.777-.448-1.444-1.096-1.775" fill="#8659FA" fill-rule="nonzero"/><path d="M55.423 31V13.971H50V11h14v2.971h-5.59V31h-2.987m15.992-13.222c-1.088 0-2.038.269-2.85.805-.812.537-1.347 1.458-1.604 2.764h8.134v-.204a3.478 3.478 0 00-.622-1.755 3.822 3.822 0 00-1.342-1.185 3.623 3.623 0 00-1.716-.425zm5.949 10.911h-.028c-.59.605-1.402 1.141-2.435 1.61a7.761 7.761 0 01-3.237.701c-1.512 0-2.845-.336-3.998-1.009a7.106 7.106 0 01-2.698-2.779c-.646-1.18-.968-2.52-.968-4.022 0-1.715.341-3.183 1.024-4.402.682-1.219 1.586-2.155 2.712-2.808a7.198 7.198 0 013.68-.98c1.217 0 2.323.317 3.32.95.995.634 1.788 1.507 2.379 2.619.59 1.11.885 2.408.885 3.89l-.028 1.287H66.85c.166 1.385.706 2.482 1.619 3.29.912.81 2.07 1.215 3.472 1.215 1.014 0 1.835-.2 2.462-.6.627-.4 1.144-.785 1.55-1.155l1.41 2.193zm11.879-10.047a3.456 3.456 0 00-1.542-.358c-.598 0-1.187.164-1.766.492a4.068 4.068 0 00-1.444 1.403c-.384.608-.575 1.329-.575 2.164V31H81V15.328h2.916v2.956a5.685 5.685 0 011.864-2.359c.832-.616 1.706-.925 2.622-.925.691 0 1.224.1 1.598.299l-.757 3.343M99.539 15c1.214 0 2.186.295 2.914.883.729.59 1.252 1.394 1.57 2.413.261-.5.645-1.004 1.15-1.513a6.728 6.728 0 011.765-1.274 4.72 4.72 0 012.158-.509c1.27 0 2.26.295 2.97.883.71.59 1.21 1.379 1.5 2.368.29.989.434 2.093.434 3.31V31h-2.915v-9.258c0-1.159-.205-2.098-.616-2.817-.411-.72-1.187-1.079-2.326-1.079-1.084 0-1.976.365-2.677 1.094-.7.73-1.05 1.613-1.05 2.651V31H101.5v-9.319c0-1.118-.224-2.037-.672-2.756-.448-.72-1.187-1.079-2.214-1.079-.71 0-1.345.17-1.906.51-.56.34-1 .784-1.317 1.333a3.609 3.609 0 00-.476 1.843V31H92V15.27h2.915v2.516c.448-.719 1.079-1.363 1.891-1.932A4.651 4.651 0 0199.54 15m19.01 16h2.986V15.98h-2.985V31zM120 12.72c-.677 0-1.179-.172-1.506-.516-.33-.343-.494-.791-.494-1.345 0-.476.165-.905.494-1.287.327-.381.83-.572 1.507-.572.676 0 1.178.172 1.507.515.327.344.492.791.492 1.344 0 .478-.165.907-.492 1.288-.33.382-.831.572-1.507.572zM132.857 15c1.353 0 2.4.289 3.143.866.744.577 1.262 1.353 1.557 2.328.295.976.443 2.06.443 3.254V31h-2.943v-9.343c0-.756-.095-1.433-.286-2.03-.19-.597-.514-1.064-.972-1.403-.456-.338-1.095-.478-1.914-.418-.762 0-1.437.17-2.029.507a3.883 3.883 0 00-1.4 1.344 3.457 3.457 0 00-.513 1.85V31H125V15.328h2.943v2.478c.457-.736 1.124-1.388 2-1.955a5.254 5.254 0 012.914-.851m19.238 9.45V15H155v15.701h-2.905V28.19c-.432.738-1.067 1.39-1.903 1.96-.838.567-1.839.851-3.003.851-1.543 0-2.792-.557-3.752-1.675C142.48 28.21 142 26.664 142 24.69V15h2.905v8.852c0 .798.117 1.536.352 2.213.235.679.61 1.222 1.128 1.63.517.41 1.18.614 1.988.614 1.015 0 1.888-.34 2.623-1.017.733-.677 1.1-1.625 1.1-2.842m15.186-5.084a6.907 6.907 0 00-1.76-1.348c-.655-.351-1.26-.527-1.814-.527-.389 0-.772.049-1.15.147-.38.097-.698.278-.956.542-.259.263-.388.65-.388 1.157.018.704.318 1.202.9 1.495.582.293 1.307.557 2.175.791.758.215 1.497.483 2.217.806a4.55 4.55 0 011.787 1.406c.471.616.707 1.48.707 2.594 0 .957-.254 1.778-.761 2.461a4.916 4.916 0 01-1.968 1.568 6.122 6.122 0 01-2.536.542 8.51 8.51 0 01-3.117-.6c-1.026-.4-1.898-1.09-2.618-2.067l1.939-1.757a5.685 5.685 0 001.704 1.42c.638.343 1.418.513 2.342.513.35 0 .702-.063 1.053-.19s.65-.332.9-.615c.249-.283.374-.67.374-1.158 0-.469-.134-.835-.4-1.099-.27-.264-.624-.478-1.068-.645a14.452 14.452 0 00-1.469-.454 18.773 18.773 0 01-2.34-.864 5.034 5.034 0 01-1.913-1.466c-.509-.634-.762-1.498-.762-2.593 0-.918.244-1.704.734-2.359a4.891 4.891 0 011.926-1.524 6.074 6.074 0 012.55-.542c.868 0 1.81.196 2.827.586a5.731 5.731 0 012.52 1.876l-1.634 1.904M171 31l7.092-10.228-6.95-9.772h3.871l5.17 7.628L185.128 11h3.588l-6.837 10.086L189 31h-3.872l-5.283-7.743L174.589 31H171" fill="#034FCF" fill-rule="nonzero"/></g></svg>