<svg width="231" height="49" xmlns="http://www.w3.org/2000/svg" xmlns:xlink="http://www.w3.org/1999/xlink"><defs><path id="a" d="M0 0h48.58v48.572H0z"/></defs><g fill="none" fill-rule="evenodd"><path d="M25.966 24.29c0 .925-.752 1.677-1.676 1.677a1.678 1.678 0 01-1.677-1.677c0-.924.752-1.676 1.677-1.676.924 0 1.676.752 1.676 1.676zm-6.009 0a4.337 4.337 0 004.333 4.333 4.337 4.337 0 004.332-4.333 4.337 4.337 0 00-4.332-4.332 4.337 4.337 0 00-4.333 4.332z" fill="#FFF"/><path d="M33.614 11.756a1.328 1.328 0 00-.428-1.829 16.854 16.854 0 00-8.896-2.53c-9.315 0-16.893 7.579-16.893 16.893 0 3.127.861 6.182 2.49 8.833a1.327 1.327 0 102.264-1.39 14.207 14.207 0 01-2.098-7.443c0-7.85 6.387-14.236 14.237-14.236a14.2 14.2 0 017.495 2.13 1.328 1.328 0 001.829-.428" fill="#FFF"/><mask id="b" fill="#fff"><use xlink:href="#a"/></mask><path d="M36.973 15.17a1.328 1.328 0 00-.458 1.821 14.215 14.215 0 012.011 7.3c0 7.85-6.386 14.236-14.236 14.236a14.18 14.18 0 01-7.737-2.284 1.328 1.328 0 00-1.446 2.229 16.83 16.83 0 009.183 2.711c9.314 0 16.892-7.578 16.892-16.893 0-3.057-.825-6.052-2.388-8.663a1.328 1.328 0 00-1.821-.457" fill="#FFF" mask="url(#b)"/><path d="M24.29 0a24.24 24.24 0 00-12.586 3.517 2.446 2.446 0 011.345 2.178c0 .04-.01.078-.011.117A21.584 21.584 0 0124.29 2.657c11.928 0 21.633 9.705 21.633 21.633 0 4.039-1.12 7.977-3.238 11.39a1.328 1.328 0 002.257 1.401 24.233 24.233 0 003.637-12.79C48.58 10.896 37.683 0 24.29 0m11.047 42.955c0-.022.006-.044.007-.066a21.601 21.601 0 01-11.054 3.035c-11.93 0-21.634-9.705-21.634-21.634 0-4.191 1.2-8.257 3.47-11.756a1.328 1.328 0 00-2.228-1.446A24.2 24.2 0 000 24.29c0 13.394 10.896 24.29 24.29 24.29 4.388 0 8.688-1.184 12.437-3.422a2.448 2.448 0 01-1.39-2.203" fill="#FFF" mask="url(#b)"/><path d="M37.792 40.5a2.45 2.45 0 00-2.448 2.389c0 .022-.007.044-.007.066 0 .973.57 1.805 1.39 2.203a2.43 2.43 0 001.065.252 2.455 2.455 0 100-4.91M11.704 3.517a2.429 2.429 0 00-1.11-.277 2.455 2.455 0 100 4.91 2.449 2.449 0 002.444-2.338c.001-.04.011-.077.011-.117 0-.954-.55-1.772-1.345-2.178m56.282 34.318V16.563h-6.671v-3.711h17.222v3.711h-6.875v21.272h-3.676M86.807 22.06c-1.339 0-2.507.327-3.505.982-1 .654-1.657 1.778-1.974 3.372h10.006v-.25a4.221 4.221 0 00-.765-2.141 4.69 4.69 0 00-1.651-1.446 4.486 4.486 0 00-2.11-.517zm7.318 13.312h-.034c-.727.738-1.724 1.393-2.995 1.963a9.614 9.614 0 01-3.982.857c-1.861 0-3.5-.41-4.919-1.231a8.703 8.703 0 01-3.318-3.391c-.795-1.44-1.191-3.075-1.191-4.908 0-2.093.42-3.883 1.259-5.37.84-1.488 1.951-2.63 3.336-3.427a8.91 8.91 0 014.526-1.195c1.498 0 2.86.387 4.085 1.159 1.225.774 2.2 1.838 2.927 3.195.726 1.355 1.089 2.939 1.089 4.746l-.034 1.57H81.19c.205 1.69.868 3.029 1.992 4.016 1.123.988 2.546 1.481 4.271 1.481 1.248 0 2.258-.244 3.029-.731.771-.488 1.407-.958 1.906-1.41l1.736 2.676zm14.601-12.313a4.256 4.256 0 00-1.872-.428c-.726 0-1.44.196-2.144.589a4.905 4.905 0 00-1.752 1.677c-.466.727-.698 1.589-.698 2.588v10.35h-3.54V19.097h3.54v3.534a6.815 6.815 0 012.263-2.82c1.01-.737 2.07-1.106 3.183-1.106.839 0 1.485.12 1.94.357l-.92 3.997m12.798-4.282c1.475 0 2.655.35 3.54 1.052.884.703 1.52 1.66 1.906 2.873.317-.594.783-1.195 1.395-1.802a8.168 8.168 0 012.145-1.517 5.825 5.825 0 012.62-.606c1.543 0 2.746.35 3.608 1.052.862.703 1.469 1.642 1.821 2.82.351 1.178.527 2.493.527 3.944v11.242h-3.54V26.807c0-1.38-.249-2.499-.748-3.355-.5-.857-1.441-1.285-2.825-1.285-1.316 0-2.4.434-3.25 1.302-.851.87-1.277 1.922-1.277 3.16v11.206h-3.54v-11.1c0-1.332-.272-2.427-.816-3.283-.545-.857-1.442-1.285-2.69-1.285-.862 0-1.633.203-2.314.607a4.474 4.474 0 00-1.6 1.588c-.386.655-.578 1.387-.578 2.195v11.278h-3.54V19.097h3.54v2.999c.545-.857 1.31-1.624 2.297-2.302a5.725 5.725 0 013.319-1.017m22.906 19.058h3.505V19.097h-3.505v18.738zm1.702-22.806c-.795 0-1.385-.214-1.77-.642-.386-.429-.58-.988-.58-1.678 0-.594.194-1.13.58-1.606.385-.476.975-.714 1.77-.714.794 0 1.383.214 1.77.643.385.428.578.987.578 1.677 0 .595-.193 1.13-.578 1.606-.387.477-.976.714-1.77.714zm16.472 3.676c1.612 0 2.86.345 3.744 1.035.886.69 1.504 1.618 1.855 2.784.351 1.166.528 2.463.528 3.89v11.421h-3.506V26.664c0-.904-.113-1.713-.34-2.427-.227-.714-.613-1.273-1.158-1.678-.543-.404-1.305-.57-2.28-.5-.908 0-1.713.204-2.417.607a4.633 4.633 0 00-1.667 1.607 4.145 4.145 0 00-.612 2.213v11.35h-3.506v-18.74h3.506v2.963c.545-.88 1.338-1.66 2.381-2.338a6.242 6.242 0 013.472-1.017m23.076 11.671V19.097h3.506v18.738h-3.505v-2.998c-.523.88-1.288 1.66-2.298 2.338-1.01.678-2.219 1.017-3.624 1.017-1.862 0-3.37-.666-4.528-1.999-1.156-1.332-1.735-3.176-1.735-5.532V19.097h3.506v10.565c0 .952.141 1.832.426 2.64.282.81.736 1.459 1.36 1.946.625.488 1.424.732 2.4.732 1.225 0 2.28-.405 3.165-1.214.885-.808 1.328-1.939 1.328-3.39m18.719-6.353a8.476 8.476 0 00-2.162-1.642c-.805-.428-1.548-.643-2.228-.643-.478 0-.948.06-1.413.18a2.465 2.465 0 00-1.175.66c-.317.32-.476.79-.476 1.409.023.857.391 1.464 1.106 1.82.714.357 1.605.679 2.672.964a20.2 20.2 0 012.723.981 5.59 5.59 0 012.195 1.713c.578.75.868 1.803.868 3.16 0 1.165-.312 2.164-.935 2.997a6.03 6.03 0 01-2.417 1.91c-.988.44-2.026.66-3.115.66a10.56 10.56 0 01-3.829-.731c-1.26-.488-2.33-1.327-3.216-2.517l2.382-2.141a6.978 6.978 0 002.093 1.73c.784.417 1.741.625 2.877.625.43 0 .862-.077 1.293-.232a2.66 2.66 0 001.106-.75c.306-.344.46-.814.46-1.409 0-.57-.166-1.017-.493-1.338-.33-.322-.766-.583-1.31-.786a17.863 17.863 0 00-1.805-.553 23.185 23.185 0 01-2.876-1.052 6.178 6.178 0 01-2.349-1.785c-.624-.773-.935-1.826-.935-3.159 0-1.118.3-2.076.901-2.873.601-.797 1.39-1.415 2.366-1.856a7.514 7.514 0 013.13-.66c1.068 0 2.224.238 3.473.714a7.035 7.035 0 013.097 2.284l-2.008 2.32m4.186 13.812l8.543-12.777-8.372-12.206h4.663l6.227 9.529 5.957-9.53h4.322l-8.236 12.6 8.578 12.384h-4.664l-6.364-9.672-6.33 9.672h-4.324" fill="#FFF"/></g></svg>