<?xml version="1.0" encoding="utf-8"?>
<!-- Generator: Adobe Illustrator 25.4.1, SVG Export Plug-In . SVG Version: 6.00 Build 0)  -->
<svg version="1.0" id="Layer_1" xmlns="http://www.w3.org/2000/svg" xmlns:xlink="http://www.w3.org/1999/xlink" x="0px" y="0px"
	 viewBox="0 0 568 492" style="enable-background:new 0 0 568 492;" xml:space="preserve">
<style type="text/css">
	.st0{fill:#CFBDFD;}
	.st1{fill:#FFF7E6;}
	.st2{fill:#9E7AFB;}
	.st3{fill:#F6CBEF;}
	.st4{fill:#ED96DE;}
	.st5{fill:#AEB9F1;}
	.st6{fill:#5D73E3;}
	.st7{fill:#FFF7E9;}
	.st8{fill:#FEE8BE;}
	.st9{fill:#FED893;}
	.st10{fill:#8659FA;}
	.st11{fill:#FAE5F7;}
	.st12{fill:#3450DC;}
	.st13{fill:#E87CD6;}
	.st14{fill:#E7DEFE;}
</style>
<g>
	<polygon class="st0" points="53.34,182.66 12.73,112.33 53.34,42 134.55,42 175.16,112.33 134.55,182.66 	"/>
	<path class="st1" d="M133.69,43.5l39.74,68.83l-39.74,68.83H54.2l-39.74-68.83L54.2,43.5H133.69 M135.42,40.5H52.47L11,112.33
		l41.47,71.83h82.95l41.47-71.83L135.42,40.5L135.42,40.5z"/>
</g>
<g>
	<polygon class="st2" points="82.36,211.69 41.76,141.35 82.36,71.02 163.58,71.02 204.18,141.35 163.58,211.69 	"/>
	<path class="st1" d="M162.71,72.52l39.74,68.83l-39.74,68.83H83.23l-39.74-68.83l39.74-68.83H162.71 M164.44,69.52H81.5
		l-41.47,71.83l41.47,71.83h82.95l41.47-71.83L164.44,69.52L164.44,69.52z"/>
</g>
<g>
	<polygon class="st3" points="53.34,455.48 12.73,385.15 53.34,314.82 134.55,314.82 175.16,385.15 134.55,455.48 	"/>
	<path class="st1" d="M133.69,316.32l39.74,68.83l-39.74,68.83H54.2l-39.74-68.83l39.74-68.83H133.69 M135.42,313.32H52.47
		L11,385.15l41.47,71.83h82.95l41.47-71.83L135.42,313.32L135.42,313.32z"/>
</g>
<g>
	<polygon class="st4" points="82.36,426.46 41.76,356.13 82.36,285.79 163.58,285.79 204.18,356.13 163.58,426.46 	"/>
	<path class="st1" d="M162.71,287.29l39.74,68.83l-39.74,68.83H83.23l-39.74-68.83l39.74-68.83H162.71 M164.44,284.29H81.5
		l-41.47,71.83l41.47,71.83h82.95l41.47-71.83L164.44,284.29L164.44,284.29z"/>
</g>
<g>
	<polygon class="st5" points="436.45,455.48 395.84,385.15 436.45,314.82 517.66,314.82 558.27,385.15 517.66,455.48 	"/>
	<path class="st1" d="M516.8,316.32l39.74,68.83l-39.74,68.83h-79.48l-39.74-68.83l39.74-68.83H516.8 M518.53,313.32h-82.95
		l-41.47,71.83l41.47,71.83h82.95L560,385.15L518.53,313.32L518.53,313.32z"/>
</g>
<g>
	<polygon class="st6" points="407.42,426.46 366.82,356.13 407.42,285.79 488.64,285.79 529.24,356.13 488.64,426.46 	"/>
	<path class="st1" d="M487.77,287.29l39.74,68.83l-39.74,68.83h-79.48l-39.74-68.83l39.74-68.83H487.77 M489.5,284.29h-82.95
		l-41.47,71.83l41.47,71.83h82.95l41.47-71.83L489.5,284.29L489.5,284.29z"/>
</g>
<g>
	<polygon class="st7" points="436.45,182.66 395.84,112.33 436.45,42 517.66,42 558.27,112.33 517.66,182.66 	"/>
	<path class="st1" d="M516.8,43.5l39.74,68.83l-39.74,68.83h-79.48l-39.74-68.83l39.74-68.83H516.8 M518.53,40.5h-82.95
		l-41.47,71.83l41.47,71.83h82.95L560,112.33L518.53,40.5L518.53,40.5z"/>
</g>
<g>
	<polygon class="st8" points="407.42,211.69 366.82,141.35 407.42,71.02 488.64,71.02 529.24,141.35 488.64,211.69 	"/>
	<path class="st1" d="M487.77,72.52l39.74,68.83l-39.74,68.83h-79.48l-39.74-68.83l39.74-68.83H487.77 M489.5,69.52h-82.95
		l-41.47,71.83l41.47,71.83h82.95l41.47-71.83L489.5,69.52L489.5,69.52z"/>
</g>
<g>
	<polygon class="st1" points="244.89,321.98 204.29,251.64 244.89,181.31 326.11,181.31 366.71,251.64 326.11,321.98 	"/>
	<path class="st1" d="M325.24,182.81l39.74,68.83l-39.74,68.83h-79.48l-39.74-68.83l39.74-68.83H325.24 M326.97,179.81h-82.95
		l-41.47,71.83l41.47,71.83h82.95l41.47-71.83L326.97,179.81L326.97,179.81z"/>
</g>
<g>
	<polygon class="st9" points="378.4,240.71 337.79,170.38 378.4,100.04 459.61,100.04 500.22,170.38 459.61,240.71 	"/>
	<path class="st1" d="M458.75,101.55l39.74,68.83l-39.74,68.83h-79.48l-39.74-68.83l39.74-68.83H458.75 M460.48,98.55h-82.95
		l-41.47,71.83l41.47,71.83h82.95l41.47-71.83L460.48,98.55L460.48,98.55z"/>
</g>
<g>
	<polygon class="st10" points="111.39,240.71 70.78,170.38 111.39,100.04 192.6,100.04 233.21,170.38 192.6,240.71 	"/>
	<path class="st1" d="M191.73,101.55l39.74,68.83l-39.74,68.83h-79.48l-39.74-68.83l39.74-68.83H191.73 M193.47,98.55h-82.95
		l-41.47,71.83l41.47,71.83h82.95l41.47-71.83L193.47,98.55L193.47,98.55z"/>
</g>
<g>
	<polygon class="st11" points="244.89,168.15 204.29,97.82 244.89,27.49 326.11,27.49 366.71,97.82 326.11,168.15 	"/>
	<path class="st1" d="M325.24,28.99l39.74,68.83l-39.74,68.83h-79.48l-39.74-68.83l39.74-68.83H325.24 M326.97,25.99h-82.95
		l-41.47,71.83l41.47,71.83h82.95l41.47-71.83L326.97,25.99L326.97,25.99z"/>
</g>
<g>
	<polygon class="st12" points="378.4,397.44 337.79,327.1 378.4,256.77 459.61,256.77 500.22,327.1 459.61,397.44 	"/>
	<path class="st1" d="M458.75,258.27l39.74,68.83l-39.74,68.83h-79.48l-39.74-68.83l39.74-68.83H458.75 M460.48,255.27h-82.95
		l-41.47,71.83l41.47,71.83h82.95l41.47-71.83L460.48,255.27L460.48,255.27z"/>
</g>
<g>
	<polygon class="st13" points="111.39,397.44 70.78,327.1 111.39,256.77 192.6,256.77 233.21,327.1 192.6,397.44 	"/>
	<path class="st1" d="M191.73,258.27l39.74,68.83l-39.74,68.83h-79.48L72.51,327.1l39.74-68.83H191.73 M193.47,255.27h-82.95
		L69.05,327.1l41.47,71.83h82.95l41.47-71.83L193.47,255.27L193.47,255.27z"/>
</g>
<g>
	<polygon class="st14" points="244.89,475.8 204.29,405.47 244.89,335.13 326.11,335.13 366.71,405.47 326.11,475.8 	"/>
	<path class="st1" d="M325.24,336.63l39.74,68.83l-39.74,68.83h-79.48l-39.74-68.83l39.74-68.83H325.24 M326.97,333.63h-82.95
		l-41.47,71.83l41.47,71.83h82.95l41.47-71.83L326.97,333.63L326.97,333.63z"/>
</g>
<path class="st12" d="M241.23,244.8c0.04,0.04,0.07,0.1,0.07,0.16v1.85c0,0.06-0.02,0.12-0.07,0.16s-0.1,0.07-0.16,0.07h-2.87
	c-0.06,0-0.09,0.03-0.09,0.09v10.58c0,0.06-0.02,0.12-0.07,0.16c-0.04,0.05-0.1,0.07-0.16,0.07h-2.21c-0.06,0-0.12-0.02-0.16-0.07
	c-0.04-0.04-0.07-0.1-0.07-0.16v-10.58c0-0.06-0.03-0.09-0.09-0.09h-2.77c-0.06,0-0.12-0.02-0.16-0.07s-0.07-0.1-0.07-0.16v-1.85
	c0-0.06,0.02-0.12,0.07-0.16c0.04-0.04,0.1-0.07,0.16-0.07h8.49C241.13,244.74,241.19,244.76,241.23,244.8z"/>
<path class="st12" d="M250.76,246.96c-0.04,0.04-0.1,0.07-0.16,0.07h-5.06c-0.06,0-0.09,0.03-0.09,0.09v2.94
	c0,0.06,0.03,0.09,0.09,0.09h3.15c0.06,0,0.12,0.02,0.16,0.07c0.04,0.05,0.07,0.1,0.07,0.16v1.83c0,0.06-0.02,0.12-0.07,0.16
	c-0.04,0.05-0.1,0.07-0.16,0.07h-3.15c-0.06,0-0.09,0.03-0.09,0.09v3.04c0,0.06,0.03,0.09,0.09,0.09h5.06
	c0.06,0,0.12,0.02,0.16,0.07s0.07,0.1,0.07,0.16v1.83c0,0.06-0.02,0.12-0.07,0.16c-0.04,0.05-0.1,0.07-0.16,0.07h-7.58
	c-0.06,0-0.12-0.02-0.16-0.07c-0.04-0.04-0.07-0.1-0.07-0.16v-12.75c0-0.06,0.02-0.12,0.07-0.16c0.04-0.04,0.1-0.07,0.16-0.07h7.58
	c0.06,0,0.12,0.02,0.16,0.07c0.04,0.04,0.07,0.1,0.07,0.16v1.83C250.82,246.86,250.8,246.91,250.76,246.96z"/>
<path class="st12" d="M258.37,257.76l-1.91-5.21c-0.03-0.05-0.06-0.08-0.09-0.08h-1.19c-0.06,0-0.09,0.03-0.09,0.09v5.15
	c0,0.06-0.02,0.12-0.07,0.16c-0.04,0.05-0.1,0.07-0.16,0.07h-2.21c-0.06,0-0.12-0.02-0.16-0.07c-0.04-0.04-0.07-0.1-0.07-0.16
	v-12.75c0-0.06,0.02-0.12,0.07-0.16c0.04-0.04,0.1-0.07,0.16-0.07h4.6c0.74,0,1.4,0.17,1.98,0.5c0.58,0.33,1.02,0.8,1.34,1.41
	s0.47,1.3,0.47,2.07c0,0.8-0.18,1.5-0.53,2.09c-0.35,0.59-0.85,1.03-1.49,1.32c-0.06,0.03-0.08,0.07-0.06,0.13l2.15,5.41
	c0.01,0.03,0.02,0.06,0.02,0.09c0,0.11-0.07,0.17-0.21,0.17h-2.3C258.49,257.94,258.41,257.88,258.37,257.76z M255.09,247.12v3.23
	c0,0.06,0.03,0.09,0.09,0.09h1.64c0.46,0,0.84-0.15,1.13-0.46c0.29-0.31,0.43-0.72,0.43-1.24c0-0.53-0.14-0.95-0.43-1.26
	c-0.29-0.31-0.67-0.46-1.13-0.46h-1.64C255.12,247.02,255.09,247.05,255.09,247.12z"/>
<path class="st12" d="M270.2,244.74h2.19c0.06,0,0.12,0.02,0.16,0.07c0.04,0.04,0.07,0.1,0.07,0.16v12.75
	c0,0.06-0.02,0.12-0.07,0.16c-0.04,0.05-0.1,0.07-0.16,0.07h-2.21c-0.06,0-0.12-0.02-0.16-0.07c-0.05-0.04-0.07-0.1-0.07-0.16v-8.38
	c0-0.05-0.01-0.08-0.04-0.09c-0.03-0.01-0.05,0.01-0.08,0.05l-1.74,2.87c-0.05,0.1-0.14,0.15-0.26,0.15h-0.43
	c-0.13,0-0.21-0.05-0.27-0.15l-1.73-2.87c-0.03-0.04-0.05-0.05-0.08-0.05c-0.03,0.01-0.04,0.03-0.04,0.09v8.38
	c0,0.06-0.02,0.12-0.07,0.16c-0.04,0.05-0.1,0.07-0.16,0.07h-2.21c-0.06,0-0.12-0.02-0.16-0.07c-0.05-0.04-0.07-0.1-0.07-0.16
	v-12.75c0-0.06,0.02-0.12,0.07-0.16c0.04-0.04,0.1-0.07,0.16-0.07h2.19c0.12,0,0.21,0.05,0.26,0.15l2.26,3.72
	c0.04,0.08,0.08,0.08,0.11,0l2.24-3.72C269.98,244.79,270.07,244.74,270.2,244.74z"/>
<path class="st12" d="M274.64,257.88c-0.04-0.04-0.07-0.1-0.07-0.16v-12.75c0-0.06,0.02-0.12,0.07-0.16
	c0.04-0.04,0.1-0.07,0.16-0.07h2.21c0.06,0,0.12,0.02,0.16,0.07c0.04,0.04,0.07,0.1,0.07,0.16v12.75c0,0.06-0.02,0.12-0.07,0.16
	c-0.04,0.05-0.1,0.07-0.16,0.07h-2.21C274.74,257.94,274.68,257.92,274.64,257.88z"/>
<path class="st12" d="M285.77,244.8c0.04-0.04,0.1-0.07,0.16-0.07h2.19c0.06,0,0.12,0.02,0.16,0.07c0.04,0.04,0.07,0.1,0.07,0.16
	v12.75c0,0.06-0.02,0.12-0.07,0.16c-0.04,0.05-0.1,0.07-0.16,0.07h-2.3c-0.13,0-0.21-0.06-0.27-0.17l-3.6-7.68
	c-0.03-0.04-0.05-0.06-0.08-0.06c-0.03,0-0.04,0.03-0.04,0.08l0.02,7.6c0,0.06-0.02,0.12-0.07,0.16c-0.05,0.05-0.1,0.07-0.16,0.07
	h-2.19c-0.06,0-0.12-0.02-0.16-0.07c-0.04-0.04-0.07-0.1-0.07-0.16v-12.75c0-0.06,0.02-0.12,0.07-0.16c0.04-0.04,0.1-0.07,0.16-0.07
	h2.28c0.13,0,0.21,0.06,0.26,0.17l3.6,7.68c0.03,0.04,0.05,0.06,0.08,0.06s0.04-0.02,0.04-0.08v-7.6
	C285.7,244.9,285.73,244.85,285.77,244.8z"/>
<path class="st12" d="M297.06,257.76l-0.44-1.85c-0.01-0.05-0.04-0.08-0.09-0.08h-3.53c-0.05,0-0.08,0.03-0.09,0.08l-0.43,1.85
	c-0.04,0.13-0.12,0.19-0.25,0.19h-2.28c-0.16,0-0.23-0.08-0.19-0.25l3.4-12.77c0.04-0.13,0.13-0.19,0.26-0.19h2.74
	c0.14,0,0.23,0.06,0.26,0.19l3.4,12.77l0.02,0.08c0,0.11-0.07,0.17-0.21,0.17h-2.3C297.19,257.94,297.1,257.88,297.06,257.76z
	 M293.44,253.75c0.02,0.02,0.05,0.03,0.08,0.03H296c0.03,0,0.05-0.01,0.08-0.03c0.03-0.02,0.03-0.05,0.02-0.09l-1.3-5.47
	c-0.01-0.05-0.03-0.08-0.06-0.08s-0.04,0.03-0.06,0.08l-1.26,5.47C293.41,253.7,293.41,253.73,293.44,253.75z"/>
<path class="st12" d="M308.22,244.8c0.04,0.04,0.07,0.1,0.07,0.16v1.85c0,0.06-0.02,0.12-0.07,0.16c-0.04,0.04-0.1,0.07-0.16,0.07
	h-2.87c-0.06,0-0.09,0.03-0.09,0.09v10.58c0,0.06-0.02,0.12-0.07,0.16c-0.05,0.05-0.1,0.07-0.16,0.07h-2.21
	c-0.06,0-0.12-0.02-0.16-0.07c-0.04-0.04-0.07-0.1-0.07-0.16v-10.58c0-0.06-0.03-0.09-0.09-0.09h-2.77c-0.06,0-0.12-0.02-0.16-0.07
	c-0.04-0.04-0.07-0.1-0.07-0.16v-1.85c0-0.06,0.02-0.12,0.07-0.16c0.04-0.04,0.1-0.07,0.16-0.07h8.49
	C308.12,244.74,308.18,244.76,308.22,244.8z"/>
<path class="st12" d="M311.2,257.59c-0.66-0.35-1.17-0.85-1.54-1.49c-0.37-0.64-0.55-1.39-0.55-2.24v-5.02
	c0-0.84,0.18-1.58,0.55-2.22c0.36-0.64,0.88-1.14,1.54-1.49s1.42-0.53,2.29-0.53c0.87,0,1.64,0.18,2.3,0.53
	c0.67,0.35,1.18,0.85,1.55,1.49c0.36,0.64,0.55,1.38,0.55,2.22v5.02c0,0.86-0.18,1.6-0.55,2.24c-0.37,0.64-0.88,1.14-1.55,1.49
	c-0.67,0.35-1.43,0.53-2.3,0.53C312.63,258.11,311.86,257.94,311.2,257.59z M314.76,255.31c0.31-0.35,0.47-0.8,0.47-1.35v-5.21
	c0-0.57-0.16-1.02-0.47-1.37c-0.31-0.35-0.74-0.52-1.26-0.52c-0.52,0-0.93,0.17-1.24,0.52c-0.31,0.35-0.47,0.8-0.47,1.37v5.21
	c0,0.55,0.16,1,0.47,1.35c0.31,0.35,0.73,0.52,1.24,0.52C314.02,255.83,314.44,255.66,314.76,255.31z"/>
<path class="st12" d="M325.6,257.76l-1.91-5.21c-0.03-0.05-0.06-0.08-0.09-0.08h-1.19c-0.06,0-0.09,0.03-0.09,0.09v5.15
	c0,0.06-0.02,0.12-0.07,0.16c-0.04,0.05-0.1,0.07-0.16,0.07h-2.21c-0.06,0-0.12-0.02-0.16-0.07c-0.04-0.04-0.07-0.1-0.07-0.16
	v-12.75c0-0.06,0.02-0.12,0.07-0.16c0.04-0.04,0.1-0.07,0.16-0.07h4.6c0.74,0,1.4,0.17,1.98,0.5c0.58,0.33,1.02,0.8,1.34,1.41
	c0.31,0.6,0.47,1.3,0.47,2.07c0,0.8-0.18,1.5-0.53,2.09c-0.35,0.59-0.85,1.03-1.49,1.32c-0.06,0.03-0.08,0.07-0.06,0.13l2.15,5.41
	c0.01,0.03,0.02,0.06,0.02,0.09c0,0.11-0.07,0.17-0.21,0.17h-2.3C325.73,257.94,325.64,257.88,325.6,257.76z M322.32,247.12v3.23
	c0,0.06,0.03,0.09,0.09,0.09h1.64c0.46,0,0.84-0.15,1.13-0.46c0.29-0.31,0.43-0.72,0.43-1.24c0-0.53-0.14-0.95-0.43-1.26
	c-0.29-0.31-0.67-0.46-1.13-0.46h-1.64C322.35,247.02,322.32,247.05,322.32,247.12z"/>
<path class="st12" d="M331.6,257.63c-0.65-0.31-1.16-0.74-1.52-1.3c-0.36-0.56-0.54-1.2-0.54-1.93v-0.49c0-0.06,0.02-0.12,0.07-0.16
	c0.04-0.04,0.1-0.07,0.16-0.07h2.17c0.06,0,0.12,0.02,0.16,0.07c0.04,0.04,0.07,0.1,0.07,0.16v0.36c0,0.44,0.16,0.81,0.49,1.1
	c0.33,0.3,0.77,0.44,1.32,0.44c0.49,0,0.86-0.13,1.12-0.38c0.26-0.25,0.39-0.57,0.39-0.96c0-0.29-0.08-0.54-0.25-0.75
	c-0.16-0.21-0.39-0.4-0.69-0.59c-0.3-0.18-0.75-0.43-1.37-0.75c-0.76-0.38-1.37-0.73-1.85-1.06c-0.48-0.33-0.89-0.75-1.23-1.26
	c-0.34-0.52-0.51-1.14-0.51-1.87c0-0.73,0.17-1.37,0.52-1.91c0.35-0.55,0.83-0.97,1.46-1.26c0.63-0.3,1.35-0.44,2.15-0.44
	c0.84,0,1.59,0.16,2.24,0.48c0.65,0.32,1.16,0.77,1.53,1.35c0.36,0.58,0.55,1.24,0.55,2v0.38c0,0.06-0.02,0.12-0.07,0.16
	c-0.04,0.04-0.1,0.07-0.16,0.07h-2.17c-0.06,0-0.12-0.02-0.16-0.07c-0.04-0.04-0.07-0.1-0.07-0.16v-0.34c0-0.45-0.16-0.83-0.47-1.13
	c-0.31-0.3-0.74-0.45-1.28-0.45c-0.45,0-0.81,0.12-1.07,0.35c-0.26,0.23-0.39,0.56-0.39,0.97c0,0.29,0.08,0.54,0.23,0.75
	c0.15,0.21,0.38,0.42,0.7,0.61c0.31,0.19,0.79,0.45,1.43,0.76l0.4,0.23c0.73,0.4,1.3,0.75,1.71,1.05c0.41,0.3,0.75,0.67,1.03,1.12
	c0.28,0.45,0.42,1,0.42,1.64c0,1.14-0.39,2.05-1.16,2.73c-0.77,0.67-1.8,1.01-3.09,1.01C333.02,258.09,332.26,257.94,331.6,257.63z"
	/>
</svg>
